<?xml version="1.0" encoding="utf-8" standalone="no"?>
<!DOCTYPE svg PUBLIC "-//W3C//DTD SVG 1.1//EN"
  "http://www.w3.org/Graphics/SVG/1.1/DTD/svg11.dtd">
<svg xmlns:xlink="http://www.w3.org/1999/xlink" width="864pt" height="288pt" viewBox="0 0 864 288" xmlns="http://www.w3.org/2000/svg" version="1.1">
 <metadata>
  <rdf:RDF xmlns:dc="http://purl.org/dc/elements/1.1/" xmlns:cc="http://creativecommons.org/ns#" xmlns:rdf="http://www.w3.org/1999/02/22-rdf-syntax-ns#">
   <cc:Work>
    <dc:type rdf:resource="http://purl.org/dc/dcmitype/StillImage"/>
    <dc:date>2023-03-16T22:03:13.738540</dc:date>
    <dc:format>image/svg+xml</dc:format>
    <dc:creator>
     <cc:Agent>
      <dc:title>Matplotlib v3.5.1, https://matplotlib.org/</dc:title>
     </cc:Agent>
    </dc:creator>
   </cc:Work>
  </rdf:RDF>
 </metadata>
 <defs>
  <style type="text/css">*{stroke-linejoin: round; stroke-linecap: butt}</style>
 </defs>
 <g id="figure_1">
  <g id="patch_1">
   <path d="M 0 288 
L 864 288 
L 864 0 
L 0 0 
z
" style="fill: #ffffff"/>
  </g>
  <g id="axes_1">
   <g id="patch_2">
    <path d="M 81.46 146.915 
L 851.04 146.915 
L 851.04 28.96 
L 81.46 28.96 
z
" style="fill: #eaeaf2"/>
   </g>
   <g id="matplotlib.axis_1">
    <g id="xtick_1">
     <g id="line2d_1">
      <path d="M 100.6995 146.915 
L 100.6995 28.96 
" clip-path="url(#pa985a633b7)" style="fill: none; stroke: #ffffff; stroke-linecap: round"/>
     </g>
     <g id="text_1">
      <!-- Lachnospirales -->
      <g style="fill: #262626" transform="translate(103.734813 238.593594)rotate(-90)scale(0.11 -0.11)">
       <defs>
        <path id="DejaVuSans-4c" d="M 628 4666 
L 1259 4666 
L 1259 531 
L 3531 531 
L 3531 0 
L 628 0 
L 628 4666 
z
" transform="scale(0.015625)"/>
        <path id="DejaVuSans-61" d="M 2194 1759 
Q 1497 1759 1228 1600 
Q 959 1441 959 1056 
Q 959 750 1161 570 
Q 1363 391 1709 391 
Q 2188 391 2477 730 
Q 2766 1069 2766 1631 
L 2766 1759 
L 2194 1759 
z
M 3341 1997 
L 3341 0 
L 2766 0 
L 2766 531 
Q 2569 213 2275 61 
Q 1981 -91 1556 -91 
Q 1019 -91 701 211 
Q 384 513 384 1019 
Q 384 1609 779 1909 
Q 1175 2209 1959 2209 
L 2766 2209 
L 2766 2266 
Q 2766 2663 2505 2880 
Q 2244 3097 1772 3097 
Q 1472 3097 1187 3025 
Q 903 2953 641 2809 
L 641 3341 
Q 956 3463 1253 3523 
Q 1550 3584 1831 3584 
Q 2591 3584 2966 3190 
Q 3341 2797 3341 1997 
z
" transform="scale(0.015625)"/>
        <path id="DejaVuSans-63" d="M 3122 3366 
L 3122 2828 
Q 2878 2963 2633 3030 
Q 2388 3097 2138 3097 
Q 1578 3097 1268 2742 
Q 959 2388 959 1747 
Q 959 1106 1268 751 
Q 1578 397 2138 397 
Q 2388 397 2633 464 
Q 2878 531 3122 666 
L 3122 134 
Q 2881 22 2623 -34 
Q 2366 -91 2075 -91 
Q 1284 -91 818 406 
Q 353 903 353 1747 
Q 353 2603 823 3093 
Q 1294 3584 2113 3584 
Q 2378 3584 2631 3529 
Q 2884 3475 3122 3366 
z
" transform="scale(0.015625)"/>
        <path id="DejaVuSans-68" d="M 3513 2113 
L 3513 0 
L 2938 0 
L 2938 2094 
Q 2938 2591 2744 2837 
Q 2550 3084 2163 3084 
Q 1697 3084 1428 2787 
Q 1159 2491 1159 1978 
L 1159 0 
L 581 0 
L 581 4863 
L 1159 4863 
L 1159 2956 
Q 1366 3272 1645 3428 
Q 1925 3584 2291 3584 
Q 2894 3584 3203 3211 
Q 3513 2838 3513 2113 
z
" transform="scale(0.015625)"/>
        <path id="DejaVuSans-6e" d="M 3513 2113 
L 3513 0 
L 2938 0 
L 2938 2094 
Q 2938 2591 2744 2837 
Q 2550 3084 2163 3084 
Q 1697 3084 1428 2787 
Q 1159 2491 1159 1978 
L 1159 0 
L 581 0 
L 581 3500 
L 1159 3500 
L 1159 2956 
Q 1366 3272 1645 3428 
Q 1925 3584 2291 3584 
Q 2894 3584 3203 3211 
Q 3513 2838 3513 2113 
z
" transform="scale(0.015625)"/>
        <path id="DejaVuSans-6f" d="M 1959 3097 
Q 1497 3097 1228 2736 
Q 959 2375 959 1747 
Q 959 1119 1226 758 
Q 1494 397 1959 397 
Q 2419 397 2687 759 
Q 2956 1122 2956 1747 
Q 2956 2369 2687 2733 
Q 2419 3097 1959 3097 
z
M 1959 3584 
Q 2709 3584 3137 3096 
Q 3566 2609 3566 1747 
Q 3566 888 3137 398 
Q 2709 -91 1959 -91 
Q 1206 -91 779 398 
Q 353 888 353 1747 
Q 353 2609 779 3096 
Q 1206 3584 1959 3584 
z
" transform="scale(0.015625)"/>
        <path id="DejaVuSans-73" d="M 2834 3397 
L 2834 2853 
Q 2591 2978 2328 3040 
Q 2066 3103 1784 3103 
Q 1356 3103 1142 2972 
Q 928 2841 928 2578 
Q 928 2378 1081 2264 
Q 1234 2150 1697 2047 
L 1894 2003 
Q 2506 1872 2764 1633 
Q 3022 1394 3022 966 
Q 3022 478 2636 193 
Q 2250 -91 1575 -91 
Q 1294 -91 989 -36 
Q 684 19 347 128 
L 347 722 
Q 666 556 975 473 
Q 1284 391 1588 391 
Q 1994 391 2212 530 
Q 2431 669 2431 922 
Q 2431 1156 2273 1281 
Q 2116 1406 1581 1522 
L 1381 1569 
Q 847 1681 609 1914 
Q 372 2147 372 2553 
Q 372 3047 722 3315 
Q 1072 3584 1716 3584 
Q 2034 3584 2315 3537 
Q 2597 3491 2834 3397 
z
" transform="scale(0.015625)"/>
        <path id="DejaVuSans-70" d="M 1159 525 
L 1159 -1331 
L 581 -1331 
L 581 3500 
L 1159 3500 
L 1159 2969 
Q 1341 3281 1617 3432 
Q 1894 3584 2278 3584 
Q 2916 3584 3314 3078 
Q 3713 2572 3713 1747 
Q 3713 922 3314 415 
Q 2916 -91 2278 -91 
Q 1894 -91 1617 61 
Q 1341 213 1159 525 
z
M 3116 1747 
Q 3116 2381 2855 2742 
Q 2594 3103 2138 3103 
Q 1681 3103 1420 2742 
Q 1159 2381 1159 1747 
Q 1159 1113 1420 752 
Q 1681 391 2138 391 
Q 2594 391 2855 752 
Q 3116 1113 3116 1747 
z
" transform="scale(0.015625)"/>
        <path id="DejaVuSans-69" d="M 603 3500 
L 1178 3500 
L 1178 0 
L 603 0 
L 603 3500 
z
M 603 4863 
L 1178 4863 
L 1178 4134 
L 603 4134 
L 603 4863 
z
" transform="scale(0.015625)"/>
        <path id="DejaVuSans-72" d="M 2631 2963 
Q 2534 3019 2420 3045 
Q 2306 3072 2169 3072 
Q 1681 3072 1420 2755 
Q 1159 2438 1159 1844 
L 1159 0 
L 581 0 
L 581 3500 
L 1159 3500 
L 1159 2956 
Q 1341 3275 1631 3429 
Q 1922 3584 2338 3584 
Q 2397 3584 2469 3576 
Q 2541 3569 2628 3553 
L 2631 2963 
z
" transform="scale(0.015625)"/>
        <path id="DejaVuSans-6c" d="M 603 4863 
L 1178 4863 
L 1178 0 
L 603 0 
L 603 4863 
z
" transform="scale(0.015625)"/>
        <path id="DejaVuSans-65" d="M 3597 1894 
L 3597 1613 
L 953 1613 
Q 991 1019 1311 708 
Q 1631 397 2203 397 
Q 2534 397 2845 478 
Q 3156 559 3463 722 
L 3463 178 
Q 3153 47 2828 -22 
Q 2503 -91 2169 -91 
Q 1331 -91 842 396 
Q 353 884 353 1716 
Q 353 2575 817 3079 
Q 1281 3584 2069 3584 
Q 2775 3584 3186 3129 
Q 3597 2675 3597 1894 
z
M 3022 2063 
Q 3016 2534 2758 2815 
Q 2500 3097 2075 3097 
Q 1594 3097 1305 2825 
Q 1016 2553 972 2059 
L 3022 2063 
z
" transform="scale(0.015625)"/>
       </defs>
       <use xlink:href="#DejaVuSans-4c"/>
       <use xlink:href="#DejaVuSans-61" x="55.712891"/>
       <use xlink:href="#DejaVuSans-63" x="116.992188"/>
       <use xlink:href="#DejaVuSans-68" x="171.972656"/>
       <use xlink:href="#DejaVuSans-6e" x="235.351562"/>
       <use xlink:href="#DejaVuSans-6f" x="298.730469"/>
       <use xlink:href="#DejaVuSans-73" x="359.912109"/>
       <use xlink:href="#DejaVuSans-70" x="412.011719"/>
       <use xlink:href="#DejaVuSans-69" x="475.488281"/>
       <use xlink:href="#DejaVuSans-72" x="503.271484"/>
       <use xlink:href="#DejaVuSans-61" x="544.384766"/>
       <use xlink:href="#DejaVuSans-6c" x="605.664062"/>
       <use xlink:href="#DejaVuSans-65" x="633.447266"/>
       <use xlink:href="#DejaVuSans-73" x="694.970703"/>
      </g>
     </g>
    </g>
    <g id="xtick_2">
     <g id="line2d_2">
      <path d="M 139.1785 146.915 
L 139.1785 28.96 
" clip-path="url(#pa985a633b7)" style="fill: none; stroke: #ffffff; stroke-linecap: round"/>
     </g>
     <g id="text_2">
      <!-- Oscillospirales -->
      <g style="fill: #262626" transform="translate(142.213812 235.338281)rotate(-90)scale(0.11 -0.11)">
       <defs>
        <path id="DejaVuSans-4f" d="M 2522 4238 
Q 1834 4238 1429 3725 
Q 1025 3213 1025 2328 
Q 1025 1447 1429 934 
Q 1834 422 2522 422 
Q 3209 422 3611 934 
Q 4013 1447 4013 2328 
Q 4013 3213 3611 3725 
Q 3209 4238 2522 4238 
z
M 2522 4750 
Q 3503 4750 4090 4092 
Q 4678 3434 4678 2328 
Q 4678 1225 4090 567 
Q 3503 -91 2522 -91 
Q 1538 -91 948 565 
Q 359 1222 359 2328 
Q 359 3434 948 4092 
Q 1538 4750 2522 4750 
z
" transform="scale(0.015625)"/>
       </defs>
       <use xlink:href="#DejaVuSans-4f"/>
       <use xlink:href="#DejaVuSans-73" x="78.710938"/>
       <use xlink:href="#DejaVuSans-63" x="130.810547"/>
       <use xlink:href="#DejaVuSans-69" x="185.791016"/>
       <use xlink:href="#DejaVuSans-6c" x="213.574219"/>
       <use xlink:href="#DejaVuSans-6c" x="241.357422"/>
       <use xlink:href="#DejaVuSans-6f" x="269.140625"/>
       <use xlink:href="#DejaVuSans-73" x="330.322266"/>
       <use xlink:href="#DejaVuSans-70" x="382.421875"/>
       <use xlink:href="#DejaVuSans-69" x="445.898438"/>
       <use xlink:href="#DejaVuSans-72" x="473.681641"/>
       <use xlink:href="#DejaVuSans-61" x="514.794922"/>
       <use xlink:href="#DejaVuSans-6c" x="576.074219"/>
       <use xlink:href="#DejaVuSans-65" x="603.857422"/>
       <use xlink:href="#DejaVuSans-73" x="665.380859"/>
      </g>
     </g>
    </g>
    <g id="xtick_3">
     <g id="line2d_3">
      <path d="M 177.6575 146.915 
L 177.6575 28.96 
" clip-path="url(#pa985a633b7)" style="fill: none; stroke: #ffffff; stroke-linecap: round"/>
     </g>
    </g>
    <g id="xtick_4">
     <g id="line2d_4">
      <path d="M 216.1365 146.915 
L 216.1365 28.96 
" clip-path="url(#pa985a633b7)" style="fill: none; stroke: #ffffff; stroke-linecap: round"/>
     </g>
    </g>
    <g id="xtick_5">
     <g id="line2d_5">
      <path d="M 254.6155 146.915 
L 254.6155 28.96 
" clip-path="url(#pa985a633b7)" style="fill: none; stroke: #ffffff; stroke-linecap: round"/>
     </g>
    </g>
    <g id="xtick_6">
     <g id="line2d_6">
      <path d="M 293.0945 146.915 
L 293.0945 28.96 
" clip-path="url(#pa985a633b7)" style="fill: none; stroke: #ffffff; stroke-linecap: round"/>
     </g>
    </g>
    <g id="xtick_7">
     <g id="line2d_7">
      <path d="M 331.5735 146.915 
L 331.5735 28.96 
" clip-path="url(#pa985a633b7)" style="fill: none; stroke: #ffffff; stroke-linecap: round"/>
     </g>
    </g>
    <g id="xtick_8">
     <g id="line2d_8">
      <path d="M 370.0525 146.915 
L 370.0525 28.96 
" clip-path="url(#pa985a633b7)" style="fill: none; stroke: #ffffff; stroke-linecap: round"/>
     </g>
    </g>
    <g id="xtick_9">
     <g id="line2d_9">
      <path d="M 408.5315 146.915 
L 408.5315 28.96 
" clip-path="url(#pa985a633b7)" style="fill: none; stroke: #ffffff; stroke-linecap: round"/>
     </g>
    </g>
    <g id="xtick_10">
     <g id="line2d_10">
      <path d="M 447.0105 146.915 
L 447.0105 28.96 
" clip-path="url(#pa985a633b7)" style="fill: none; stroke: #ffffff; stroke-linecap: round"/>
     </g>
    </g>
    <g id="xtick_11">
     <g id="line2d_11">
      <path d="M 485.4895 146.915 
L 485.4895 28.96 
" clip-path="url(#pa985a633b7)" style="fill: none; stroke: #ffffff; stroke-linecap: round"/>
     </g>
    </g>
    <g id="xtick_12">
     <g id="line2d_12">
      <path d="M 523.9685 146.915 
L 523.9685 28.96 
" clip-path="url(#pa985a633b7)" style="fill: none; stroke: #ffffff; stroke-linecap: round"/>
     </g>
    </g>
    <g id="xtick_13">
     <g id="line2d_13">
      <path d="M 562.4475 146.915 
L 562.4475 28.96 
" clip-path="url(#pa985a633b7)" style="fill: none; stroke: #ffffff; stroke-linecap: round"/>
     </g>
    </g>
    <g id="xtick_14">
     <g id="line2d_14">
      <path d="M 600.9265 146.915 
L 600.9265 28.96 
" clip-path="url(#pa985a633b7)" style="fill: none; stroke: #ffffff; stroke-linecap: round"/>
     </g>
    </g>
    <g id="xtick_15">
     <g id="line2d_15">
      <path d="M 639.4055 146.915 
L 639.4055 28.96 
" clip-path="url(#pa985a633b7)" style="fill: none; stroke: #ffffff; stroke-linecap: round"/>
     </g>
    </g>
    <g id="xtick_16">
     <g id="line2d_16">
      <path d="M 677.8845 146.915 
L 677.8845 28.96 
" clip-path="url(#pa985a633b7)" style="fill: none; stroke: #ffffff; stroke-linecap: round"/>
     </g>
    </g>
    <g id="xtick_17">
     <g id="line2d_17">
      <path d="M 716.3635 146.915 
L 716.3635 28.96 
" clip-path="url(#pa985a633b7)" style="fill: none; stroke: #ffffff; stroke-linecap: round"/>
     </g>
    </g>
    <g id="xtick_18">
     <g id="line2d_18">
      <path d="M 754.8425 146.915 
L 754.8425 28.96 
" clip-path="url(#pa985a633b7)" style="fill: none; stroke: #ffffff; stroke-linecap: round"/>
     </g>
    </g>
    <g id="xtick_19">
     <g id="line2d_19">
      <path d="M 793.3215 146.915 
L 793.3215 28.96 
" clip-path="url(#pa985a633b7)" style="fill: none; stroke: #ffffff; stroke-linecap: round"/>
     </g>
     <g id="text_3">
      <!-- Bacteroidales -->
      <g style="fill: #262626" transform="translate(796.356813 231.172031)rotate(-90)scale(0.11 -0.11)">
       <defs>
        <path id="DejaVuSans-42" d="M 1259 2228 
L 1259 519 
L 2272 519 
Q 2781 519 3026 730 
Q 3272 941 3272 1375 
Q 3272 1813 3026 2020 
Q 2781 2228 2272 2228 
L 1259 2228 
z
M 1259 4147 
L 1259 2741 
L 2194 2741 
Q 2656 2741 2882 2914 
Q 3109 3088 3109 3444 
Q 3109 3797 2882 3972 
Q 2656 4147 2194 4147 
L 1259 4147 
z
M 628 4666 
L 2241 4666 
Q 2963 4666 3353 4366 
Q 3744 4066 3744 3513 
Q 3744 3084 3544 2831 
Q 3344 2578 2956 2516 
Q 3422 2416 3680 2098 
Q 3938 1781 3938 1306 
Q 3938 681 3513 340 
Q 3088 0 2303 0 
L 628 0 
L 628 4666 
z
" transform="scale(0.015625)"/>
        <path id="DejaVuSans-74" d="M 1172 4494 
L 1172 3500 
L 2356 3500 
L 2356 3053 
L 1172 3053 
L 1172 1153 
Q 1172 725 1289 603 
Q 1406 481 1766 481 
L 2356 481 
L 2356 0 
L 1766 0 
Q 1100 0 847 248 
Q 594 497 594 1153 
L 594 3053 
L 172 3053 
L 172 3500 
L 594 3500 
L 594 4494 
L 1172 4494 
z
" transform="scale(0.015625)"/>
        <path id="DejaVuSans-64" d="M 2906 2969 
L 2906 4863 
L 3481 4863 
L 3481 0 
L 2906 0 
L 2906 525 
Q 2725 213 2448 61 
Q 2172 -91 1784 -91 
Q 1150 -91 751 415 
Q 353 922 353 1747 
Q 353 2572 751 3078 
Q 1150 3584 1784 3584 
Q 2172 3584 2448 3432 
Q 2725 3281 2906 2969 
z
M 947 1747 
Q 947 1113 1208 752 
Q 1469 391 1925 391 
Q 2381 391 2643 752 
Q 2906 1113 2906 1747 
Q 2906 2381 2643 2742 
Q 2381 3103 1925 3103 
Q 1469 3103 1208 2742 
Q 947 2381 947 1747 
z
" transform="scale(0.015625)"/>
       </defs>
       <use xlink:href="#DejaVuSans-42"/>
       <use xlink:href="#DejaVuSans-61" x="68.603516"/>
       <use xlink:href="#DejaVuSans-63" x="129.882812"/>
       <use xlink:href="#DejaVuSans-74" x="184.863281"/>
       <use xlink:href="#DejaVuSans-65" x="224.072266"/>
       <use xlink:href="#DejaVuSans-72" x="285.595703"/>
       <use xlink:href="#DejaVuSans-6f" x="324.458984"/>
       <use xlink:href="#DejaVuSans-69" x="385.640625"/>
       <use xlink:href="#DejaVuSans-64" x="413.423828"/>
       <use xlink:href="#DejaVuSans-61" x="476.900391"/>
       <use xlink:href="#DejaVuSans-6c" x="538.179688"/>
       <use xlink:href="#DejaVuSans-65" x="565.962891"/>
       <use xlink:href="#DejaVuSans-73" x="627.486328"/>
      </g>
     </g>
    </g>
    <g id="xtick_20">
     <g id="line2d_20">
      <path d="M 831.8005 146.915 
L 831.8005 28.96 
" clip-path="url(#pa985a633b7)" style="fill: none; stroke: #ffffff; stroke-linecap: round"/>
     </g>
     <g id="text_4">
      <!-- Christensenellales -->
      <g style="fill: #262626" transform="translate(834.835813 257.073594)rotate(-90)scale(0.11 -0.11)">
       <defs>
        <path id="DejaVuSans-43" d="M 4122 4306 
L 4122 3641 
Q 3803 3938 3442 4084 
Q 3081 4231 2675 4231 
Q 1875 4231 1450 3742 
Q 1025 3253 1025 2328 
Q 1025 1406 1450 917 
Q 1875 428 2675 428 
Q 3081 428 3442 575 
Q 3803 722 4122 1019 
L 4122 359 
Q 3791 134 3420 21 
Q 3050 -91 2638 -91 
Q 1578 -91 968 557 
Q 359 1206 359 2328 
Q 359 3453 968 4101 
Q 1578 4750 2638 4750 
Q 3056 4750 3426 4639 
Q 3797 4528 4122 4306 
z
" transform="scale(0.015625)"/>
       </defs>
       <use xlink:href="#DejaVuSans-43"/>
       <use xlink:href="#DejaVuSans-68" x="69.824219"/>
       <use xlink:href="#DejaVuSans-72" x="133.203125"/>
       <use xlink:href="#DejaVuSans-69" x="174.316406"/>
       <use xlink:href="#DejaVuSans-73" x="202.099609"/>
       <use xlink:href="#DejaVuSans-74" x="254.199219"/>
       <use xlink:href="#DejaVuSans-65" x="293.408203"/>
       <use xlink:href="#DejaVuSans-6e" x="354.931641"/>
       <use xlink:href="#DejaVuSans-73" x="418.310547"/>
       <use xlink:href="#DejaVuSans-65" x="470.410156"/>
       <use xlink:href="#DejaVuSans-6e" x="531.933594"/>
       <use xlink:href="#DejaVuSans-65" x="595.3125"/>
       <use xlink:href="#DejaVuSans-6c" x="656.835938"/>
       <use xlink:href="#DejaVuSans-6c" x="684.619141"/>
       <use xlink:href="#DejaVuSans-61" x="712.402344"/>
       <use xlink:href="#DejaVuSans-6c" x="773.681641"/>
       <use xlink:href="#DejaVuSans-65" x="801.464844"/>
       <use xlink:href="#DejaVuSans-73" x="862.988281"/>
      </g>
     </g>
    </g>
    <g id="text_5">
     <!-- Order -->
     <g style="fill: #262626" transform="translate(449.197812 270.191719)scale(0.12 -0.12)">
      <use xlink:href="#DejaVuSans-4f"/>
      <use xlink:href="#DejaVuSans-72" x="78.710938"/>
      <use xlink:href="#DejaVuSans-64" x="118.074219"/>
      <use xlink:href="#DejaVuSans-65" x="181.550781"/>
      <use xlink:href="#DejaVuSans-72" x="243.074219"/>
     </g>
    </g>
   </g>
   <g id="matplotlib.axis_2">
    <g id="ytick_1">
     <g id="line2d_21">
      <path d="M 81.46 146.915 
L 851.04 146.915 
" clip-path="url(#pa985a633b7)" style="fill: none; stroke: #ffffff; stroke-linecap: round"/>
     </g>
     <g id="text_6">
      <!-- 0 -->
      <g style="fill: #262626" transform="translate(64.96125 151.094141)scale(0.11 -0.11)">
       <defs>
        <path id="DejaVuSans-30" d="M 2034 4250 
Q 1547 4250 1301 3770 
Q 1056 3291 1056 2328 
Q 1056 1369 1301 889 
Q 1547 409 2034 409 
Q 2525 409 2770 889 
Q 3016 1369 3016 2328 
Q 3016 3291 2770 3770 
Q 2525 4250 2034 4250 
z
M 2034 4750 
Q 2819 4750 3233 4129 
Q 3647 3509 3647 2328 
Q 3647 1150 3233 529 
Q 2819 -91 2034 -91 
Q 1250 -91 836 529 
Q 422 1150 422 2328 
Q 422 3509 836 4129 
Q 1250 4750 2034 4750 
z
" transform="scale(0.015625)"/>
       </defs>
       <use xlink:href="#DejaVuSans-30"/>
      </g>
     </g>
    </g>
    <g id="ytick_2">
     <g id="line2d_22">
      <path d="M 81.46 118.057455 
L 851.04 118.057455 
" clip-path="url(#pa985a633b7)" style="fill: none; stroke: #ffffff; stroke-linecap: round"/>
     </g>
     <g id="text_7">
      <!-- 100000 -->
      <g style="fill: #262626" transform="translate(29.9675 122.236595)scale(0.11 -0.11)">
       <defs>
        <path id="DejaVuSans-31" d="M 794 531 
L 1825 531 
L 1825 4091 
L 703 3866 
L 703 4441 
L 1819 4666 
L 2450 4666 
L 2450 531 
L 3481 531 
L 3481 0 
L 794 0 
L 794 531 
z
" transform="scale(0.015625)"/>
       </defs>
       <use xlink:href="#DejaVuSans-31"/>
       <use xlink:href="#DejaVuSans-30" x="63.623047"/>
       <use xlink:href="#DejaVuSans-30" x="127.246094"/>
       <use xlink:href="#DejaVuSans-30" x="190.869141"/>
       <use xlink:href="#DejaVuSans-30" x="254.492188"/>
       <use xlink:href="#DejaVuSans-30" x="318.115234"/>
      </g>
     </g>
    </g>
    <g id="ytick_3">
     <g id="line2d_23">
      <path d="M 81.46 89.199909 
L 851.04 89.199909 
" clip-path="url(#pa985a633b7)" style="fill: none; stroke: #ffffff; stroke-linecap: round"/>
     </g>
     <g id="text_8">
      <!-- 200000 -->
      <g style="fill: #262626" transform="translate(29.9675 93.37905)scale(0.11 -0.11)">
       <defs>
        <path id="DejaVuSans-32" d="M 1228 531 
L 3431 531 
L 3431 0 
L 469 0 
L 469 531 
Q 828 903 1448 1529 
Q 2069 2156 2228 2338 
Q 2531 2678 2651 2914 
Q 2772 3150 2772 3378 
Q 2772 3750 2511 3984 
Q 2250 4219 1831 4219 
Q 1534 4219 1204 4116 
Q 875 4013 500 3803 
L 500 4441 
Q 881 4594 1212 4672 
Q 1544 4750 1819 4750 
Q 2544 4750 2975 4387 
Q 3406 4025 3406 3419 
Q 3406 3131 3298 2873 
Q 3191 2616 2906 2266 
Q 2828 2175 2409 1742 
Q 1991 1309 1228 531 
z
" transform="scale(0.015625)"/>
       </defs>
       <use xlink:href="#DejaVuSans-32"/>
       <use xlink:href="#DejaVuSans-30" x="63.623047"/>
       <use xlink:href="#DejaVuSans-30" x="127.246094"/>
       <use xlink:href="#DejaVuSans-30" x="190.869141"/>
       <use xlink:href="#DejaVuSans-30" x="254.492188"/>
       <use xlink:href="#DejaVuSans-30" x="318.115234"/>
      </g>
     </g>
    </g>
    <g id="ytick_4">
     <g id="line2d_24">
      <path d="M 81.46 60.342364 
L 851.04 60.342364 
" clip-path="url(#pa985a633b7)" style="fill: none; stroke: #ffffff; stroke-linecap: round"/>
     </g>
     <g id="text_9">
      <!-- 300000 -->
      <g style="fill: #262626" transform="translate(29.9675 64.521505)scale(0.11 -0.11)">
       <defs>
        <path id="DejaVuSans-33" d="M 2597 2516 
Q 3050 2419 3304 2112 
Q 3559 1806 3559 1356 
Q 3559 666 3084 287 
Q 2609 -91 1734 -91 
Q 1441 -91 1130 -33 
Q 819 25 488 141 
L 488 750 
Q 750 597 1062 519 
Q 1375 441 1716 441 
Q 2309 441 2620 675 
Q 2931 909 2931 1356 
Q 2931 1769 2642 2001 
Q 2353 2234 1838 2234 
L 1294 2234 
L 1294 2753 
L 1863 2753 
Q 2328 2753 2575 2939 
Q 2822 3125 2822 3475 
Q 2822 3834 2567 4026 
Q 2313 4219 1838 4219 
Q 1578 4219 1281 4162 
Q 984 4106 628 3988 
L 628 4550 
Q 988 4650 1302 4700 
Q 1616 4750 1894 4750 
Q 2613 4750 3031 4423 
Q 3450 4097 3450 3541 
Q 3450 3153 3228 2886 
Q 3006 2619 2597 2516 
z
" transform="scale(0.015625)"/>
       </defs>
       <use xlink:href="#DejaVuSans-33"/>
       <use xlink:href="#DejaVuSans-30" x="63.623047"/>
       <use xlink:href="#DejaVuSans-30" x="127.246094"/>
       <use xlink:href="#DejaVuSans-30" x="190.869141"/>
       <use xlink:href="#DejaVuSans-30" x="254.492188"/>
       <use xlink:href="#DejaVuSans-30" x="318.115234"/>
      </g>
     </g>
    </g>
    <g id="ytick_5">
     <g id="line2d_25">
      <path d="M 81.46 31.484819 
L 851.04 31.484819 
" clip-path="url(#pa985a633b7)" style="fill: none; stroke: #ffffff; stroke-linecap: round"/>
     </g>
     <g id="text_10">
      <!-- 400000 -->
      <g style="fill: #262626" transform="translate(29.9675 35.663959)scale(0.11 -0.11)">
       <defs>
        <path id="DejaVuSans-34" d="M 2419 4116 
L 825 1625 
L 2419 1625 
L 2419 4116 
z
M 2253 4666 
L 3047 4666 
L 3047 1625 
L 3713 1625 
L 3713 1100 
L 3047 1100 
L 3047 0 
L 2419 0 
L 2419 1100 
L 313 1100 
L 313 1709 
L 2253 4666 
z
" transform="scale(0.015625)"/>
       </defs>
       <use xlink:href="#DejaVuSans-34"/>
       <use xlink:href="#DejaVuSans-30" x="63.623047"/>
       <use xlink:href="#DejaVuSans-30" x="127.246094"/>
       <use xlink:href="#DejaVuSans-30" x="190.869141"/>
       <use xlink:href="#DejaVuSans-30" x="254.492188"/>
       <use xlink:href="#DejaVuSans-30" x="318.115234"/>
      </g>
     </g>
    </g>
    <g id="text_11">
     <!-- Abundances -->
     <g style="fill: #262626" transform="translate(23.471875 124.860938)rotate(-90)scale(0.12 -0.12)">
      <defs>
       <path id="DejaVuSans-41" d="M 2188 4044 
L 1331 1722 
L 3047 1722 
L 2188 4044 
z
M 1831 4666 
L 2547 4666 
L 4325 0 
L 3669 0 
L 3244 1197 
L 1141 1197 
L 716 0 
L 50 0 
L 1831 4666 
z
" transform="scale(0.015625)"/>
       <path id="DejaVuSans-62" d="M 3116 1747 
Q 3116 2381 2855 2742 
Q 2594 3103 2138 3103 
Q 1681 3103 1420 2742 
Q 1159 2381 1159 1747 
Q 1159 1113 1420 752 
Q 1681 391 2138 391 
Q 2594 391 2855 752 
Q 3116 1113 3116 1747 
z
M 1159 2969 
Q 1341 3281 1617 3432 
Q 1894 3584 2278 3584 
Q 2916 3584 3314 3078 
Q 3713 2572 3713 1747 
Q 3713 922 3314 415 
Q 2916 -91 2278 -91 
Q 1894 -91 1617 61 
Q 1341 213 1159 525 
L 1159 0 
L 581 0 
L 581 4863 
L 1159 4863 
L 1159 2969 
z
" transform="scale(0.015625)"/>
       <path id="DejaVuSans-75" d="M 544 1381 
L 544 3500 
L 1119 3500 
L 1119 1403 
Q 1119 906 1312 657 
Q 1506 409 1894 409 
Q 2359 409 2629 706 
Q 2900 1003 2900 1516 
L 2900 3500 
L 3475 3500 
L 3475 0 
L 2900 0 
L 2900 538 
Q 2691 219 2414 64 
Q 2138 -91 1772 -91 
Q 1169 -91 856 284 
Q 544 659 544 1381 
z
M 1991 3584 
L 1991 3584 
z
" transform="scale(0.015625)"/>
      </defs>
      <use xlink:href="#DejaVuSans-41"/>
      <use xlink:href="#DejaVuSans-62" x="68.408203"/>
      <use xlink:href="#DejaVuSans-75" x="131.884766"/>
      <use xlink:href="#DejaVuSans-6e" x="195.263672"/>
      <use xlink:href="#DejaVuSans-64" x="258.642578"/>
      <use xlink:href="#DejaVuSans-61" x="322.119141"/>
      <use xlink:href="#DejaVuSans-6e" x="383.398438"/>
      <use xlink:href="#DejaVuSans-63" x="446.777344"/>
      <use xlink:href="#DejaVuSans-65" x="501.757812"/>
      <use xlink:href="#DejaVuSans-73" x="563.28125"/>
     </g>
    </g>
   </g>
   <g id="patch_3">
    <path d="M 91.07975 146.915 
L 110.31925 146.915 
L 110.31925 55.202547 
L 91.07975 55.202547 
z
" clip-path="url(#pa985a633b7)" style="fill: #4c72b0; stroke: #ffffff; stroke-linejoin: miter"/>
   </g>
   <g id="patch_4">
    <path d="M 129.55875 146.915 
L 148.79825 146.915 
L 148.79825 65.28999 
L 129.55875 65.28999 
z
" clip-path="url(#pa985a633b7)" style="fill: #4c72b0; stroke: #ffffff; stroke-linejoin: miter"/>
   </g>
   <g id="patch_5">
    <path d="M 168.03775 146.915 
L 187.27725 146.915 
L 187.27725 133.302896 
L 168.03775 133.302896 
z
" clip-path="url(#pa985a633b7)" style="fill: #4c72b0; stroke: #ffffff; stroke-linejoin: miter"/>
   </g>
   <g id="patch_6">
    <path d="M 206.51675 146.915 
L 225.75625 146.915 
L 225.75625 146.37825 
L 206.51675 146.37825 
z
" clip-path="url(#pa985a633b7)" style="fill: #4c72b0; stroke: #ffffff; stroke-linejoin: miter"/>
   </g>
   <g id="patch_7">
    <path d="M 244.99575 146.915 
L 264.23525 146.915 
L 264.23525 146.37825 
L 244.99575 146.37825 
z
" clip-path="url(#pa985a633b7)" style="fill: #4c72b0; stroke: #ffffff; stroke-linejoin: miter"/>
   </g>
   <g id="patch_8">
    <path d="M 283.47475 146.915 
L 302.71425 146.915 
L 302.71425 144.374959 
L 283.47475 144.374959 
z
" clip-path="url(#pa985a633b7)" style="fill: #4c72b0; stroke: #ffffff; stroke-linejoin: miter"/>
   </g>
   <g id="patch_9">
    <path d="M 321.95375 146.915 
L 341.19325 146.915 
L 341.19325 146.37825 
L 321.95375 146.37825 
z
" clip-path="url(#pa985a633b7)" style="fill: #4c72b0; stroke: #ffffff; stroke-linejoin: miter"/>
   </g>
   <g id="patch_10">
    <path d="M 360.43275 146.915 
L 379.67225 146.915 
L 379.67225 144.374959 
L 360.43275 144.374959 
z
" clip-path="url(#pa985a633b7)" style="fill: #4c72b0; stroke: #ffffff; stroke-linejoin: miter"/>
   </g>
   <g id="patch_11">
    <path d="M 398.91175 146.915 
L 418.15125 146.915 
L 418.15125 133.302896 
L 398.91175 133.302896 
z
" clip-path="url(#pa985a633b7)" style="fill: #4c72b0; stroke: #ffffff; stroke-linejoin: miter"/>
   </g>
   <g id="patch_12">
    <path d="M 437.39075 146.915 
L 456.63025 146.915 
L 456.63025 139.320848 
L 437.39075 139.320848 
z
" clip-path="url(#pa985a633b7)" style="fill: #4c72b0; stroke: #ffffff; stroke-linejoin: miter"/>
   </g>
   <g id="patch_13">
    <path d="M 475.86975 146.915 
L 495.10925 146.915 
L 495.10925 139.320848 
L 475.86975 139.320848 
z
" clip-path="url(#pa985a633b7)" style="fill: #4c72b0; stroke: #ffffff; stroke-linejoin: miter"/>
   </g>
   <g id="patch_14">
    <path d="M 514.34875 146.915 
L 533.58825 146.915 
L 533.58825 144.374959 
L 514.34875 144.374959 
z
" clip-path="url(#pa985a633b7)" style="fill: #4c72b0; stroke: #ffffff; stroke-linejoin: miter"/>
   </g>
   <g id="patch_15">
    <path d="M 552.82775 146.915 
L 572.06725 146.915 
L 572.06725 139.320848 
L 552.82775 139.320848 
z
" clip-path="url(#pa985a633b7)" style="fill: #4c72b0; stroke: #ffffff; stroke-linejoin: miter"/>
   </g>
   <g id="patch_16">
    <path d="M 591.30675 146.915 
L 610.54625 146.915 
L 610.54625 133.302896 
L 591.30675 133.302896 
z
" clip-path="url(#pa985a633b7)" style="fill: #4c72b0; stroke: #ffffff; stroke-linejoin: miter"/>
   </g>
   <g id="patch_17">
    <path d="M 629.78575 146.915 
L 649.02525 146.915 
L 649.02525 133.302896 
L 629.78575 133.302896 
z
" clip-path="url(#pa985a633b7)" style="fill: #4c72b0; stroke: #ffffff; stroke-linejoin: miter"/>
   </g>
   <g id="patch_18">
    <path d="M 668.26475 146.915 
L 687.50425 146.915 
L 687.50425 146.37825 
L 668.26475 146.37825 
z
" clip-path="url(#pa985a633b7)" style="fill: #4c72b0; stroke: #ffffff; stroke-linejoin: miter"/>
   </g>
   <g id="patch_19">
    <path d="M 706.74375 146.915 
L 725.98325 146.915 
L 725.98325 144.374959 
L 706.74375 144.374959 
z
" clip-path="url(#pa985a633b7)" style="fill: #4c72b0; stroke: #ffffff; stroke-linejoin: miter"/>
   </g>
   <g id="patch_20">
    <path d="M 745.22275 146.915 
L 764.46225 146.915 
L 764.46225 139.320848 
L 745.22275 139.320848 
z
" clip-path="url(#pa985a633b7)" style="fill: #4c72b0; stroke: #ffffff; stroke-linejoin: miter"/>
   </g>
   <g id="patch_21">
    <path d="M 783.70175 146.915 
L 802.94125 146.915 
L 802.94125 128.764758 
L 783.70175 128.764758 
z
" clip-path="url(#pa985a633b7)" style="fill: #4c72b0; stroke: #ffffff; stroke-linejoin: miter"/>
   </g>
   <g id="patch_22">
    <path d="M 822.18075 146.915 
L 841.42025 146.915 
L 841.42025 136.822939 
L 822.18075 136.822939 
z
" clip-path="url(#pa985a633b7)" style="fill: #4c72b0; stroke: #ffffff; stroke-linejoin: miter"/>
   </g>
   <g id="patch_23">
    <path d="M 91.07975 55.202547 
L 110.31925 55.202547 
L 110.31925 34.576905 
L 91.07975 34.576905 
z
" clip-path="url(#pa985a633b7)" style="fill: #dd8452; stroke: #ffffff; stroke-linejoin: miter"/>
   </g>
   <g id="patch_24">
    <path d="M 129.55875 65.28999 
L 148.79825 65.28999 
L 148.79825 47.395426 
L 129.55875 47.395426 
z
" clip-path="url(#pa985a633b7)" style="fill: #dd8452; stroke: #ffffff; stroke-linejoin: miter"/>
   </g>
   <g id="patch_25">
    <path d="M 168.03775 133.302896 
L 187.27725 133.302896 
L 187.27725 126.038875 
L 168.03775 126.038875 
z
" clip-path="url(#pa985a633b7)" style="fill: #dd8452; stroke: #ffffff; stroke-linejoin: miter"/>
   </g>
   <g id="patch_26">
    <path d="M 206.51675 146.37825 
L 225.75625 146.37825 
L 225.75625 139.114228 
L 206.51675 139.114228 
z
" clip-path="url(#pa985a633b7)" style="fill: #dd8452; stroke: #ffffff; stroke-linejoin: miter"/>
   </g>
   <g id="patch_27">
    <path d="M 244.99575 146.37825 
L 264.23525 146.37825 
L 264.23525 139.114228 
L 244.99575 139.114228 
z
" clip-path="url(#pa985a633b7)" style="fill: #dd8452; stroke: #ffffff; stroke-linejoin: miter"/>
   </g>
   <g id="patch_28">
    <path d="M 283.47475 144.374959 
L 302.71425 144.374959 
L 302.71425 137.110938 
L 283.47475 137.110938 
z
" clip-path="url(#pa985a633b7)" style="fill: #dd8452; stroke: #ffffff; stroke-linejoin: miter"/>
   </g>
   <g id="patch_29">
    <path d="M 321.95375 146.37825 
L 341.19325 146.37825 
L 341.19325 139.114228 
L 321.95375 139.114228 
z
" clip-path="url(#pa985a633b7)" style="fill: #dd8452; stroke: #ffffff; stroke-linejoin: miter"/>
   </g>
   <g id="patch_30">
    <path d="M 360.43275 144.374959 
L 379.67225 144.374959 
L 379.67225 137.110938 
L 360.43275 137.110938 
z
" clip-path="url(#pa985a633b7)" style="fill: #dd8452; stroke: #ffffff; stroke-linejoin: miter"/>
   </g>
   <g id="patch_31">
    <path d="M 398.91175 133.302896 
L 418.15125 133.302896 
L 418.15125 126.038875 
L 398.91175 126.038875 
z
" clip-path="url(#pa985a633b7)" style="fill: #dd8452; stroke: #ffffff; stroke-linejoin: miter"/>
   </g>
   <g id="patch_32">
    <path d="M 437.39075 139.320848 
L 456.63025 139.320848 
L 456.63025 132.056827 
L 437.39075 132.056827 
z
" clip-path="url(#pa985a633b7)" style="fill: #dd8452; stroke: #ffffff; stroke-linejoin: miter"/>
   </g>
   <g id="patch_33">
    <path d="M 475.86975 139.320848 
L 495.10925 139.320848 
L 495.10925 132.056827 
L 475.86975 132.056827 
z
" clip-path="url(#pa985a633b7)" style="fill: #dd8452; stroke: #ffffff; stroke-linejoin: miter"/>
   </g>
   <g id="patch_34">
    <path d="M 514.34875 144.374959 
L 533.58825 144.374959 
L 533.58825 137.110938 
L 514.34875 137.110938 
z
" clip-path="url(#pa985a633b7)" style="fill: #dd8452; stroke: #ffffff; stroke-linejoin: miter"/>
   </g>
   <g id="patch_35">
    <path d="M 552.82775 139.320848 
L 572.06725 139.320848 
L 572.06725 132.056827 
L 552.82775 132.056827 
z
" clip-path="url(#pa985a633b7)" style="fill: #dd8452; stroke: #ffffff; stroke-linejoin: miter"/>
   </g>
   <g id="patch_36">
    <path d="M 591.30675 133.302896 
L 610.54625 133.302896 
L 610.54625 126.038875 
L 591.30675 126.038875 
z
" clip-path="url(#pa985a633b7)" style="fill: #dd8452; stroke: #ffffff; stroke-linejoin: miter"/>
   </g>
   <g id="patch_37">
    <path d="M 629.78575 133.302896 
L 649.02525 133.302896 
L 649.02525 126.038875 
L 629.78575 126.038875 
z
" clip-path="url(#pa985a633b7)" style="fill: #dd8452; stroke: #ffffff; stroke-linejoin: miter"/>
   </g>
   <g id="patch_38">
    <path d="M 668.26475 146.37825 
L 687.50425 146.37825 
L 687.50425 139.114228 
L 668.26475 139.114228 
z
" clip-path="url(#pa985a633b7)" style="fill: #dd8452; stroke: #ffffff; stroke-linejoin: miter"/>
   </g>
   <g id="patch_39">
    <path d="M 706.74375 144.374959 
L 725.98325 144.374959 
L 725.98325 137.110938 
L 706.74375 137.110938 
z
" clip-path="url(#pa985a633b7)" style="fill: #dd8452; stroke: #ffffff; stroke-linejoin: miter"/>
   </g>
   <g id="patch_40">
    <path d="M 745.22275 139.320848 
L 764.46225 139.320848 
L 764.46225 132.056827 
L 745.22275 132.056827 
z
" clip-path="url(#pa985a633b7)" style="fill: #dd8452; stroke: #ffffff; stroke-linejoin: miter"/>
   </g>
   <g id="patch_41">
    <path d="M 783.70175 128.764758 
L 802.94125 128.764758 
L 802.94125 123.717574 
L 783.70175 123.717574 
z
" clip-path="url(#pa985a633b7)" style="fill: #dd8452; stroke: #ffffff; stroke-linejoin: miter"/>
   </g>
   <g id="patch_42">
    <path d="M 822.18075 136.822939 
L 841.42025 136.822939 
L 841.42025 134.08205 
L 822.18075 134.08205 
z
" clip-path="url(#pa985a633b7)" style="fill: #dd8452; stroke: #ffffff; stroke-linejoin: miter"/>
   </g>
   <g id="patch_43">
    <path d="M 81.46 146.915 
L 81.46 28.96 
" style="fill: none; stroke: #ffffff; stroke-width: 1.25; stroke-linejoin: miter; stroke-linecap: square"/>
   </g>
   <g id="patch_44">
    <path d="M 851.04 146.915 
L 851.04 28.96 
" style="fill: none; stroke: #ffffff; stroke-width: 1.25; stroke-linejoin: miter; stroke-linecap: square"/>
   </g>
   <g id="patch_45">
    <path d="M 81.46 146.915 
L 851.04 146.915 
" style="fill: none; stroke: #ffffff; stroke-width: 1.25; stroke-linejoin: miter; stroke-linecap: square"/>
   </g>
   <g id="patch_46">
    <path d="M 81.46 28.96 
L 851.04 28.96 
" style="fill: none; stroke: #ffffff; stroke-width: 1.25; stroke-linejoin: miter; stroke-linecap: square"/>
   </g>
   <g id="text_12">
    <!-- Top 20 Order abundances rank for groups 0x1 - Sorted by 1 -->
    <g style="fill: #262626" transform="translate(287.418125 22.96)scale(0.12 -0.12)">
     <defs>
      <path id="DejaVuSans-54" d="M -19 4666 
L 3928 4666 
L 3928 4134 
L 2272 4134 
L 2272 0 
L 1638 0 
L 1638 4134 
L -19 4134 
L -19 4666 
z
" transform="scale(0.015625)"/>
      <path id="DejaVuSans-20" transform="scale(0.015625)"/>
      <path id="DejaVuSans-6b" d="M 581 4863 
L 1159 4863 
L 1159 1991 
L 2875 3500 
L 3609 3500 
L 1753 1863 
L 3688 0 
L 2938 0 
L 1159 1709 
L 1159 0 
L 581 0 
L 581 4863 
z
" transform="scale(0.015625)"/>
      <path id="DejaVuSans-66" d="M 2375 4863 
L 2375 4384 
L 1825 4384 
Q 1516 4384 1395 4259 
Q 1275 4134 1275 3809 
L 1275 3500 
L 2222 3500 
L 2222 3053 
L 1275 3053 
L 1275 0 
L 697 0 
L 697 3053 
L 147 3053 
L 147 3500 
L 697 3500 
L 697 3744 
Q 697 4328 969 4595 
Q 1241 4863 1831 4863 
L 2375 4863 
z
" transform="scale(0.015625)"/>
      <path id="DejaVuSans-67" d="M 2906 1791 
Q 2906 2416 2648 2759 
Q 2391 3103 1925 3103 
Q 1463 3103 1205 2759 
Q 947 2416 947 1791 
Q 947 1169 1205 825 
Q 1463 481 1925 481 
Q 2391 481 2648 825 
Q 2906 1169 2906 1791 
z
M 3481 434 
Q 3481 -459 3084 -895 
Q 2688 -1331 1869 -1331 
Q 1566 -1331 1297 -1286 
Q 1028 -1241 775 -1147 
L 775 -588 
Q 1028 -725 1275 -790 
Q 1522 -856 1778 -856 
Q 2344 -856 2625 -561 
Q 2906 -266 2906 331 
L 2906 616 
Q 2728 306 2450 153 
Q 2172 0 1784 0 
Q 1141 0 747 490 
Q 353 981 353 1791 
Q 353 2603 747 3093 
Q 1141 3584 1784 3584 
Q 2172 3584 2450 3431 
Q 2728 3278 2906 2969 
L 2906 3500 
L 3481 3500 
L 3481 434 
z
" transform="scale(0.015625)"/>
      <path id="DejaVuSans-78" d="M 3513 3500 
L 2247 1797 
L 3578 0 
L 2900 0 
L 1881 1375 
L 863 0 
L 184 0 
L 1544 1831 
L 300 3500 
L 978 3500 
L 1906 2253 
L 2834 3500 
L 3513 3500 
z
" transform="scale(0.015625)"/>
      <path id="DejaVuSans-2d" d="M 313 2009 
L 1997 2009 
L 1997 1497 
L 313 1497 
L 313 2009 
z
" transform="scale(0.015625)"/>
      <path id="DejaVuSans-53" d="M 3425 4513 
L 3425 3897 
Q 3066 4069 2747 4153 
Q 2428 4238 2131 4238 
Q 1616 4238 1336 4038 
Q 1056 3838 1056 3469 
Q 1056 3159 1242 3001 
Q 1428 2844 1947 2747 
L 2328 2669 
Q 3034 2534 3370 2195 
Q 3706 1856 3706 1288 
Q 3706 609 3251 259 
Q 2797 -91 1919 -91 
Q 1588 -91 1214 -16 
Q 841 59 441 206 
L 441 856 
Q 825 641 1194 531 
Q 1563 422 1919 422 
Q 2459 422 2753 634 
Q 3047 847 3047 1241 
Q 3047 1584 2836 1778 
Q 2625 1972 2144 2069 
L 1759 2144 
Q 1053 2284 737 2584 
Q 422 2884 422 3419 
Q 422 4038 858 4394 
Q 1294 4750 2059 4750 
Q 2388 4750 2728 4690 
Q 3069 4631 3425 4513 
z
" transform="scale(0.015625)"/>
      <path id="DejaVuSans-79" d="M 2059 -325 
Q 1816 -950 1584 -1140 
Q 1353 -1331 966 -1331 
L 506 -1331 
L 506 -850 
L 844 -850 
Q 1081 -850 1212 -737 
Q 1344 -625 1503 -206 
L 1606 56 
L 191 3500 
L 800 3500 
L 1894 763 
L 2988 3500 
L 3597 3500 
L 2059 -325 
z
" transform="scale(0.015625)"/>
     </defs>
     <use xlink:href="#DejaVuSans-54"/>
     <use xlink:href="#DejaVuSans-6f" x="44.083984"/>
     <use xlink:href="#DejaVuSans-70" x="105.265625"/>
     <use xlink:href="#DejaVuSans-20" x="168.742188"/>
     <use xlink:href="#DejaVuSans-32" x="200.529297"/>
     <use xlink:href="#DejaVuSans-30" x="264.152344"/>
     <use xlink:href="#DejaVuSans-20" x="327.775391"/>
     <use xlink:href="#DejaVuSans-4f" x="359.5625"/>
     <use xlink:href="#DejaVuSans-72" x="438.273438"/>
     <use xlink:href="#DejaVuSans-64" x="477.636719"/>
     <use xlink:href="#DejaVuSans-65" x="541.113281"/>
     <use xlink:href="#DejaVuSans-72" x="602.636719"/>
     <use xlink:href="#DejaVuSans-20" x="643.75"/>
     <use xlink:href="#DejaVuSans-61" x="675.537109"/>
     <use xlink:href="#DejaVuSans-62" x="736.816406"/>
     <use xlink:href="#DejaVuSans-75" x="800.292969"/>
     <use xlink:href="#DejaVuSans-6e" x="863.671875"/>
     <use xlink:href="#DejaVuSans-64" x="927.050781"/>
     <use xlink:href="#DejaVuSans-61" x="990.527344"/>
     <use xlink:href="#DejaVuSans-6e" x="1051.806641"/>
     <use xlink:href="#DejaVuSans-63" x="1115.185547"/>
     <use xlink:href="#DejaVuSans-65" x="1170.166016"/>
     <use xlink:href="#DejaVuSans-73" x="1231.689453"/>
     <use xlink:href="#DejaVuSans-20" x="1283.789062"/>
     <use xlink:href="#DejaVuSans-72" x="1315.576172"/>
     <use xlink:href="#DejaVuSans-61" x="1356.689453"/>
     <use xlink:href="#DejaVuSans-6e" x="1417.96875"/>
     <use xlink:href="#DejaVuSans-6b" x="1481.347656"/>
     <use xlink:href="#DejaVuSans-20" x="1539.257812"/>
     <use xlink:href="#DejaVuSans-66" x="1571.044922"/>
     <use xlink:href="#DejaVuSans-6f" x="1606.25"/>
     <use xlink:href="#DejaVuSans-72" x="1667.431641"/>
     <use xlink:href="#DejaVuSans-20" x="1708.544922"/>
     <use xlink:href="#DejaVuSans-67" x="1740.332031"/>
     <use xlink:href="#DejaVuSans-72" x="1803.808594"/>
     <use xlink:href="#DejaVuSans-6f" x="1842.671875"/>
     <use xlink:href="#DejaVuSans-75" x="1903.853516"/>
     <use xlink:href="#DejaVuSans-70" x="1967.232422"/>
     <use xlink:href="#DejaVuSans-73" x="2030.708984"/>
     <use xlink:href="#DejaVuSans-20" x="2082.808594"/>
     <use xlink:href="#DejaVuSans-30" x="2114.595703"/>
     <use xlink:href="#DejaVuSans-78" x="2178.21875"/>
     <use xlink:href="#DejaVuSans-31" x="2237.398438"/>
     <use xlink:href="#DejaVuSans-20" x="2301.021484"/>
     <use xlink:href="#DejaVuSans-2d" x="2332.808594"/>
     <use xlink:href="#DejaVuSans-20" x="2368.892578"/>
     <use xlink:href="#DejaVuSans-53" x="2400.679688"/>
     <use xlink:href="#DejaVuSans-6f" x="2464.15625"/>
     <use xlink:href="#DejaVuSans-72" x="2525.337891"/>
     <use xlink:href="#DejaVuSans-74" x="2566.451172"/>
     <use xlink:href="#DejaVuSans-65" x="2605.660156"/>
     <use xlink:href="#DejaVuSans-64" x="2667.183594"/>
     <use xlink:href="#DejaVuSans-20" x="2730.660156"/>
     <use xlink:href="#DejaVuSans-62" x="2762.447266"/>
     <use xlink:href="#DejaVuSans-79" x="2825.923828"/>
     <use xlink:href="#DejaVuSans-20" x="2885.103516"/>
     <use xlink:href="#DejaVuSans-31" x="2916.890625"/>
    </g>
   </g>
   <g id="legend_1">
    <g id="patch_47">
     <path d="M 801.14125 70.051875 
L 843.34 70.051875 
Q 845.54 70.051875 845.54 67.851875 
L 845.54 36.66 
Q 845.54 34.46 843.34 34.46 
L 801.14125 34.46 
Q 798.94125 34.46 798.94125 36.66 
L 798.94125 67.851875 
Q 798.94125 70.051875 801.14125 70.051875 
z
" style="fill: #eaeaf2; opacity: 0.8; stroke: #cccccc; stroke-linejoin: miter"/>
    </g>
    <g id="patch_48">
     <path d="M 803.34125 47.218281 
L 825.34125 47.218281 
L 825.34125 39.518281 
L 803.34125 39.518281 
z
" style="fill: #4c72b0; stroke: #ffffff; stroke-linejoin: miter"/>
    </g>
    <g id="text_13">
     <!-- 0 -->
     <g style="fill: #262626" transform="translate(834.14125 47.218281)scale(0.11 -0.11)">
      <use xlink:href="#DejaVuSans-30"/>
     </g>
    </g>
    <g id="patch_49">
     <path d="M 803.34125 63.364219 
L 825.34125 63.364219 
L 825.34125 55.664219 
L 803.34125 55.664219 
z
" style="fill: #dd8452; stroke: #ffffff; stroke-linejoin: miter"/>
    </g>
    <g id="text_14">
     <!-- 1 -->
     <g style="fill: #262626" transform="translate(834.14125 63.364219)scale(0.11 -0.11)">
      <use xlink:href="#DejaVuSans-31"/>
     </g>
    </g>
   </g>
  </g>
 </g>
 <defs>
  <clipPath id="pa985a633b7">
   <rect x="81.46" y="28.96" width="769.58" height="117.955"/>
  </clipPath>
 </defs>
</svg>
