<?xml version="1.0" encoding="utf-8" standalone="no"?>
<!DOCTYPE svg PUBLIC "-//W3C//DTD SVG 1.1//EN"
  "http://www.w3.org/Graphics/SVG/1.1/DTD/svg11.dtd">
<svg xmlns:xlink="http://www.w3.org/1999/xlink" width="864pt" height="288pt" viewBox="0 0 864 288" xmlns="http://www.w3.org/2000/svg" version="1.1">
 <metadata>
  <rdf:RDF xmlns:dc="http://purl.org/dc/elements/1.1/" xmlns:cc="http://creativecommons.org/ns#" xmlns:rdf="http://www.w3.org/1999/02/22-rdf-syntax-ns#">
   <cc:Work>
    <dc:type rdf:resource="http://purl.org/dc/dcmitype/StillImage"/>
    <dc:date>2023-03-16T22:03:10.939162</dc:date>
    <dc:format>image/svg+xml</dc:format>
    <dc:creator>
     <cc:Agent>
      <dc:title>Matplotlib v3.5.1, https://matplotlib.org/</dc:title>
     </cc:Agent>
    </dc:creator>
   </cc:Work>
  </rdf:RDF>
 </metadata>
 <defs>
  <style type="text/css">*{stroke-linejoin: round; stroke-linecap: butt}</style>
 </defs>
 <g id="figure_1">
  <g id="patch_1">
   <path d="M 0 288 
L 864 288 
L 864 0 
L 0 0 
z
" style="fill: #ffffff"/>
  </g>
  <g id="axes_1">
   <g id="patch_2">
    <path d="M 81.46 123.29 
L 851.04 123.29 
L 851.04 28.96 
L 81.46 28.96 
z
" style="fill: #eaeaf2"/>
   </g>
   <g id="matplotlib.axis_1">
    <g id="xtick_1">
     <g id="line2d_1">
      <path d="M 100.6995 123.29 
L 100.6995 28.96 
" clip-path="url(#p9fe83e849d)" style="fill: none; stroke: #ffffff; stroke-linecap: round"/>
     </g>
     <g id="text_1">
      <!-- Clostridia -->
      <g style="fill: #262626" transform="translate(103.734813 184.658437)rotate(-90)scale(0.11 -0.11)">
       <defs>
        <path id="DejaVuSans-43" d="M 4122 4306 
L 4122 3641 
Q 3803 3938 3442 4084 
Q 3081 4231 2675 4231 
Q 1875 4231 1450 3742 
Q 1025 3253 1025 2328 
Q 1025 1406 1450 917 
Q 1875 428 2675 428 
Q 3081 428 3442 575 
Q 3803 722 4122 1019 
L 4122 359 
Q 3791 134 3420 21 
Q 3050 -91 2638 -91 
Q 1578 -91 968 557 
Q 359 1206 359 2328 
Q 359 3453 968 4101 
Q 1578 4750 2638 4750 
Q 3056 4750 3426 4639 
Q 3797 4528 4122 4306 
z
" transform="scale(0.015625)"/>
        <path id="DejaVuSans-6c" d="M 603 4863 
L 1178 4863 
L 1178 0 
L 603 0 
L 603 4863 
z
" transform="scale(0.015625)"/>
        <path id="DejaVuSans-6f" d="M 1959 3097 
Q 1497 3097 1228 2736 
Q 959 2375 959 1747 
Q 959 1119 1226 758 
Q 1494 397 1959 397 
Q 2419 397 2687 759 
Q 2956 1122 2956 1747 
Q 2956 2369 2687 2733 
Q 2419 3097 1959 3097 
z
M 1959 3584 
Q 2709 3584 3137 3096 
Q 3566 2609 3566 1747 
Q 3566 888 3137 398 
Q 2709 -91 1959 -91 
Q 1206 -91 779 398 
Q 353 888 353 1747 
Q 353 2609 779 3096 
Q 1206 3584 1959 3584 
z
" transform="scale(0.015625)"/>
        <path id="DejaVuSans-73" d="M 2834 3397 
L 2834 2853 
Q 2591 2978 2328 3040 
Q 2066 3103 1784 3103 
Q 1356 3103 1142 2972 
Q 928 2841 928 2578 
Q 928 2378 1081 2264 
Q 1234 2150 1697 2047 
L 1894 2003 
Q 2506 1872 2764 1633 
Q 3022 1394 3022 966 
Q 3022 478 2636 193 
Q 2250 -91 1575 -91 
Q 1294 -91 989 -36 
Q 684 19 347 128 
L 347 722 
Q 666 556 975 473 
Q 1284 391 1588 391 
Q 1994 391 2212 530 
Q 2431 669 2431 922 
Q 2431 1156 2273 1281 
Q 2116 1406 1581 1522 
L 1381 1569 
Q 847 1681 609 1914 
Q 372 2147 372 2553 
Q 372 3047 722 3315 
Q 1072 3584 1716 3584 
Q 2034 3584 2315 3537 
Q 2597 3491 2834 3397 
z
" transform="scale(0.015625)"/>
        <path id="DejaVuSans-74" d="M 1172 4494 
L 1172 3500 
L 2356 3500 
L 2356 3053 
L 1172 3053 
L 1172 1153 
Q 1172 725 1289 603 
Q 1406 481 1766 481 
L 2356 481 
L 2356 0 
L 1766 0 
Q 1100 0 847 248 
Q 594 497 594 1153 
L 594 3053 
L 172 3053 
L 172 3500 
L 594 3500 
L 594 4494 
L 1172 4494 
z
" transform="scale(0.015625)"/>
        <path id="DejaVuSans-72" d="M 2631 2963 
Q 2534 3019 2420 3045 
Q 2306 3072 2169 3072 
Q 1681 3072 1420 2755 
Q 1159 2438 1159 1844 
L 1159 0 
L 581 0 
L 581 3500 
L 1159 3500 
L 1159 2956 
Q 1341 3275 1631 3429 
Q 1922 3584 2338 3584 
Q 2397 3584 2469 3576 
Q 2541 3569 2628 3553 
L 2631 2963 
z
" transform="scale(0.015625)"/>
        <path id="DejaVuSans-69" d="M 603 3500 
L 1178 3500 
L 1178 0 
L 603 0 
L 603 3500 
z
M 603 4863 
L 1178 4863 
L 1178 4134 
L 603 4134 
L 603 4863 
z
" transform="scale(0.015625)"/>
        <path id="DejaVuSans-64" d="M 2906 2969 
L 2906 4863 
L 3481 4863 
L 3481 0 
L 2906 0 
L 2906 525 
Q 2725 213 2448 61 
Q 2172 -91 1784 -91 
Q 1150 -91 751 415 
Q 353 922 353 1747 
Q 353 2572 751 3078 
Q 1150 3584 1784 3584 
Q 2172 3584 2448 3432 
Q 2725 3281 2906 2969 
z
M 947 1747 
Q 947 1113 1208 752 
Q 1469 391 1925 391 
Q 2381 391 2643 752 
Q 2906 1113 2906 1747 
Q 2906 2381 2643 2742 
Q 2381 3103 1925 3103 
Q 1469 3103 1208 2742 
Q 947 2381 947 1747 
z
" transform="scale(0.015625)"/>
        <path id="DejaVuSans-61" d="M 2194 1759 
Q 1497 1759 1228 1600 
Q 959 1441 959 1056 
Q 959 750 1161 570 
Q 1363 391 1709 391 
Q 2188 391 2477 730 
Q 2766 1069 2766 1631 
L 2766 1759 
L 2194 1759 
z
M 3341 1997 
L 3341 0 
L 2766 0 
L 2766 531 
Q 2569 213 2275 61 
Q 1981 -91 1556 -91 
Q 1019 -91 701 211 
Q 384 513 384 1019 
Q 384 1609 779 1909 
Q 1175 2209 1959 2209 
L 2766 2209 
L 2766 2266 
Q 2766 2663 2505 2880 
Q 2244 3097 1772 3097 
Q 1472 3097 1187 3025 
Q 903 2953 641 2809 
L 641 3341 
Q 956 3463 1253 3523 
Q 1550 3584 1831 3584 
Q 2591 3584 2966 3190 
Q 3341 2797 3341 1997 
z
" transform="scale(0.015625)"/>
       </defs>
       <use xlink:href="#DejaVuSans-43"/>
       <use xlink:href="#DejaVuSans-6c" x="69.824219"/>
       <use xlink:href="#DejaVuSans-6f" x="97.607422"/>
       <use xlink:href="#DejaVuSans-73" x="158.789062"/>
       <use xlink:href="#DejaVuSans-74" x="210.888672"/>
       <use xlink:href="#DejaVuSans-72" x="250.097656"/>
       <use xlink:href="#DejaVuSans-69" x="291.210938"/>
       <use xlink:href="#DejaVuSans-64" x="318.994141"/>
       <use xlink:href="#DejaVuSans-69" x="382.470703"/>
       <use xlink:href="#DejaVuSans-61" x="410.253906"/>
      </g>
     </g>
    </g>
    <g id="xtick_2">
     <g id="line2d_2">
      <path d="M 139.1785 123.29 
L 139.1785 28.96 
" clip-path="url(#p9fe83e849d)" style="fill: none; stroke: #ffffff; stroke-linecap: round"/>
     </g>
     <g id="text_2">
      <!-- Bacteroidia -->
      <g style="fill: #262626" transform="translate(142.213812 195.048281)rotate(-90)scale(0.11 -0.11)">
       <defs>
        <path id="DejaVuSans-42" d="M 1259 2228 
L 1259 519 
L 2272 519 
Q 2781 519 3026 730 
Q 3272 941 3272 1375 
Q 3272 1813 3026 2020 
Q 2781 2228 2272 2228 
L 1259 2228 
z
M 1259 4147 
L 1259 2741 
L 2194 2741 
Q 2656 2741 2882 2914 
Q 3109 3088 3109 3444 
Q 3109 3797 2882 3972 
Q 2656 4147 2194 4147 
L 1259 4147 
z
M 628 4666 
L 2241 4666 
Q 2963 4666 3353 4366 
Q 3744 4066 3744 3513 
Q 3744 3084 3544 2831 
Q 3344 2578 2956 2516 
Q 3422 2416 3680 2098 
Q 3938 1781 3938 1306 
Q 3938 681 3513 340 
Q 3088 0 2303 0 
L 628 0 
L 628 4666 
z
" transform="scale(0.015625)"/>
        <path id="DejaVuSans-63" d="M 3122 3366 
L 3122 2828 
Q 2878 2963 2633 3030 
Q 2388 3097 2138 3097 
Q 1578 3097 1268 2742 
Q 959 2388 959 1747 
Q 959 1106 1268 751 
Q 1578 397 2138 397 
Q 2388 397 2633 464 
Q 2878 531 3122 666 
L 3122 134 
Q 2881 22 2623 -34 
Q 2366 -91 2075 -91 
Q 1284 -91 818 406 
Q 353 903 353 1747 
Q 353 2603 823 3093 
Q 1294 3584 2113 3584 
Q 2378 3584 2631 3529 
Q 2884 3475 3122 3366 
z
" transform="scale(0.015625)"/>
        <path id="DejaVuSans-65" d="M 3597 1894 
L 3597 1613 
L 953 1613 
Q 991 1019 1311 708 
Q 1631 397 2203 397 
Q 2534 397 2845 478 
Q 3156 559 3463 722 
L 3463 178 
Q 3153 47 2828 -22 
Q 2503 -91 2169 -91 
Q 1331 -91 842 396 
Q 353 884 353 1716 
Q 353 2575 817 3079 
Q 1281 3584 2069 3584 
Q 2775 3584 3186 3129 
Q 3597 2675 3597 1894 
z
M 3022 2063 
Q 3016 2534 2758 2815 
Q 2500 3097 2075 3097 
Q 1594 3097 1305 2825 
Q 1016 2553 972 2059 
L 3022 2063 
z
" transform="scale(0.015625)"/>
       </defs>
       <use xlink:href="#DejaVuSans-42"/>
       <use xlink:href="#DejaVuSans-61" x="68.603516"/>
       <use xlink:href="#DejaVuSans-63" x="129.882812"/>
       <use xlink:href="#DejaVuSans-74" x="184.863281"/>
       <use xlink:href="#DejaVuSans-65" x="224.072266"/>
       <use xlink:href="#DejaVuSans-72" x="285.595703"/>
       <use xlink:href="#DejaVuSans-6f" x="324.458984"/>
       <use xlink:href="#DejaVuSans-69" x="385.640625"/>
       <use xlink:href="#DejaVuSans-64" x="413.423828"/>
       <use xlink:href="#DejaVuSans-69" x="476.900391"/>
       <use xlink:href="#DejaVuSans-61" x="504.683594"/>
      </g>
     </g>
    </g>
    <g id="xtick_3">
     <g id="line2d_3">
      <path d="M 177.6575 123.29 
L 177.6575 28.96 
" clip-path="url(#p9fe83e849d)" style="fill: none; stroke: #ffffff; stroke-linecap: round"/>
     </g>
     <g id="text_3">
      <!-- Actinobacteria -->
      <g style="fill: #262626" transform="translate(180.692813 212.412812)rotate(-90)scale(0.11 -0.11)">
       <defs>
        <path id="DejaVuSans-41" d="M 2188 4044 
L 1331 1722 
L 3047 1722 
L 2188 4044 
z
M 1831 4666 
L 2547 4666 
L 4325 0 
L 3669 0 
L 3244 1197 
L 1141 1197 
L 716 0 
L 50 0 
L 1831 4666 
z
" transform="scale(0.015625)"/>
        <path id="DejaVuSans-6e" d="M 3513 2113 
L 3513 0 
L 2938 0 
L 2938 2094 
Q 2938 2591 2744 2837 
Q 2550 3084 2163 3084 
Q 1697 3084 1428 2787 
Q 1159 2491 1159 1978 
L 1159 0 
L 581 0 
L 581 3500 
L 1159 3500 
L 1159 2956 
Q 1366 3272 1645 3428 
Q 1925 3584 2291 3584 
Q 2894 3584 3203 3211 
Q 3513 2838 3513 2113 
z
" transform="scale(0.015625)"/>
        <path id="DejaVuSans-62" d="M 3116 1747 
Q 3116 2381 2855 2742 
Q 2594 3103 2138 3103 
Q 1681 3103 1420 2742 
Q 1159 2381 1159 1747 
Q 1159 1113 1420 752 
Q 1681 391 2138 391 
Q 2594 391 2855 752 
Q 3116 1113 3116 1747 
z
M 1159 2969 
Q 1341 3281 1617 3432 
Q 1894 3584 2278 3584 
Q 2916 3584 3314 3078 
Q 3713 2572 3713 1747 
Q 3713 922 3314 415 
Q 2916 -91 2278 -91 
Q 1894 -91 1617 61 
Q 1341 213 1159 525 
L 1159 0 
L 581 0 
L 581 4863 
L 1159 4863 
L 1159 2969 
z
" transform="scale(0.015625)"/>
       </defs>
       <use xlink:href="#DejaVuSans-41"/>
       <use xlink:href="#DejaVuSans-63" x="66.658203"/>
       <use xlink:href="#DejaVuSans-74" x="121.638672"/>
       <use xlink:href="#DejaVuSans-69" x="160.847656"/>
       <use xlink:href="#DejaVuSans-6e" x="188.630859"/>
       <use xlink:href="#DejaVuSans-6f" x="252.009766"/>
       <use xlink:href="#DejaVuSans-62" x="313.191406"/>
       <use xlink:href="#DejaVuSans-61" x="376.667969"/>
       <use xlink:href="#DejaVuSans-63" x="437.947266"/>
       <use xlink:href="#DejaVuSans-74" x="492.927734"/>
       <use xlink:href="#DejaVuSans-65" x="532.136719"/>
       <use xlink:href="#DejaVuSans-72" x="593.660156"/>
       <use xlink:href="#DejaVuSans-69" x="634.773438"/>
       <use xlink:href="#DejaVuSans-61" x="662.556641"/>
      </g>
     </g>
    </g>
    <g id="xtick_4">
     <g id="line2d_4">
      <path d="M 216.1365 123.29 
L 216.1365 28.96 
" clip-path="url(#p9fe83e849d)" style="fill: none; stroke: #ffffff; stroke-linecap: round"/>
     </g>
     <g id="text_4">
      <!-- Coriobacteriia -->
      <g style="fill: #262626" transform="translate(219.171813 209.738437)rotate(-90)scale(0.11 -0.11)">
       <use xlink:href="#DejaVuSans-43"/>
       <use xlink:href="#DejaVuSans-6f" x="69.824219"/>
       <use xlink:href="#DejaVuSans-72" x="131.005859"/>
       <use xlink:href="#DejaVuSans-69" x="172.119141"/>
       <use xlink:href="#DejaVuSans-6f" x="199.902344"/>
       <use xlink:href="#DejaVuSans-62" x="261.083984"/>
       <use xlink:href="#DejaVuSans-61" x="324.560547"/>
       <use xlink:href="#DejaVuSans-63" x="385.839844"/>
       <use xlink:href="#DejaVuSans-74" x="440.820312"/>
       <use xlink:href="#DejaVuSans-65" x="480.029297"/>
       <use xlink:href="#DejaVuSans-72" x="541.552734"/>
       <use xlink:href="#DejaVuSans-69" x="582.666016"/>
       <use xlink:href="#DejaVuSans-69" x="610.449219"/>
       <use xlink:href="#DejaVuSans-61" x="638.232422"/>
      </g>
     </g>
    </g>
    <g id="xtick_5">
     <g id="line2d_5">
      <path d="M 254.6155 123.29 
L 254.6155 28.96 
" clip-path="url(#p9fe83e849d)" style="fill: none; stroke: #ffffff; stroke-linecap: round"/>
     </g>
     <g id="text_5">
      <!-- Verrucomicrobiae -->
      <g style="fill: #262626" transform="translate(257.650812 229.205)rotate(-90)scale(0.11 -0.11)">
       <defs>
        <path id="DejaVuSans-56" d="M 1831 0 
L 50 4666 
L 709 4666 
L 2188 738 
L 3669 4666 
L 4325 4666 
L 2547 0 
L 1831 0 
z
" transform="scale(0.015625)"/>
        <path id="DejaVuSans-75" d="M 544 1381 
L 544 3500 
L 1119 3500 
L 1119 1403 
Q 1119 906 1312 657 
Q 1506 409 1894 409 
Q 2359 409 2629 706 
Q 2900 1003 2900 1516 
L 2900 3500 
L 3475 3500 
L 3475 0 
L 2900 0 
L 2900 538 
Q 2691 219 2414 64 
Q 2138 -91 1772 -91 
Q 1169 -91 856 284 
Q 544 659 544 1381 
z
M 1991 3584 
L 1991 3584 
z
" transform="scale(0.015625)"/>
        <path id="DejaVuSans-6d" d="M 3328 2828 
Q 3544 3216 3844 3400 
Q 4144 3584 4550 3584 
Q 5097 3584 5394 3201 
Q 5691 2819 5691 2113 
L 5691 0 
L 5113 0 
L 5113 2094 
Q 5113 2597 4934 2840 
Q 4756 3084 4391 3084 
Q 3944 3084 3684 2787 
Q 3425 2491 3425 1978 
L 3425 0 
L 2847 0 
L 2847 2094 
Q 2847 2600 2669 2842 
Q 2491 3084 2119 3084 
Q 1678 3084 1418 2786 
Q 1159 2488 1159 1978 
L 1159 0 
L 581 0 
L 581 3500 
L 1159 3500 
L 1159 2956 
Q 1356 3278 1631 3431 
Q 1906 3584 2284 3584 
Q 2666 3584 2933 3390 
Q 3200 3197 3328 2828 
z
" transform="scale(0.015625)"/>
       </defs>
       <use xlink:href="#DejaVuSans-56"/>
       <use xlink:href="#DejaVuSans-65" x="60.658203"/>
       <use xlink:href="#DejaVuSans-72" x="122.181641"/>
       <use xlink:href="#DejaVuSans-72" x="161.544922"/>
       <use xlink:href="#DejaVuSans-75" x="202.658203"/>
       <use xlink:href="#DejaVuSans-63" x="266.037109"/>
       <use xlink:href="#DejaVuSans-6f" x="321.017578"/>
       <use xlink:href="#DejaVuSans-6d" x="382.199219"/>
       <use xlink:href="#DejaVuSans-69" x="479.611328"/>
       <use xlink:href="#DejaVuSans-63" x="507.394531"/>
       <use xlink:href="#DejaVuSans-72" x="562.375"/>
       <use xlink:href="#DejaVuSans-6f" x="601.238281"/>
       <use xlink:href="#DejaVuSans-62" x="662.419922"/>
       <use xlink:href="#DejaVuSans-69" x="725.896484"/>
       <use xlink:href="#DejaVuSans-61" x="753.679688"/>
       <use xlink:href="#DejaVuSans-65" x="814.958984"/>
      </g>
     </g>
    </g>
    <g id="xtick_6">
     <g id="line2d_6">
      <path d="M 293.0945 123.29 
L 293.0945 28.96 
" clip-path="url(#p9fe83e849d)" style="fill: none; stroke: #ffffff; stroke-linecap: round"/>
     </g>
     <g id="text_6">
      <!-- Gammaproteobacteria -->
      <g style="fill: #262626" transform="translate(296.129812 257.196563)rotate(-90)scale(0.11 -0.11)">
       <defs>
        <path id="DejaVuSans-47" d="M 3809 666 
L 3809 1919 
L 2778 1919 
L 2778 2438 
L 4434 2438 
L 4434 434 
Q 4069 175 3628 42 
Q 3188 -91 2688 -91 
Q 1594 -91 976 548 
Q 359 1188 359 2328 
Q 359 3472 976 4111 
Q 1594 4750 2688 4750 
Q 3144 4750 3555 4637 
Q 3966 4525 4313 4306 
L 4313 3634 
Q 3963 3931 3569 4081 
Q 3175 4231 2741 4231 
Q 1884 4231 1454 3753 
Q 1025 3275 1025 2328 
Q 1025 1384 1454 906 
Q 1884 428 2741 428 
Q 3075 428 3337 486 
Q 3600 544 3809 666 
z
" transform="scale(0.015625)"/>
        <path id="DejaVuSans-70" d="M 1159 525 
L 1159 -1331 
L 581 -1331 
L 581 3500 
L 1159 3500 
L 1159 2969 
Q 1341 3281 1617 3432 
Q 1894 3584 2278 3584 
Q 2916 3584 3314 3078 
Q 3713 2572 3713 1747 
Q 3713 922 3314 415 
Q 2916 -91 2278 -91 
Q 1894 -91 1617 61 
Q 1341 213 1159 525 
z
M 3116 1747 
Q 3116 2381 2855 2742 
Q 2594 3103 2138 3103 
Q 1681 3103 1420 2742 
Q 1159 2381 1159 1747 
Q 1159 1113 1420 752 
Q 1681 391 2138 391 
Q 2594 391 2855 752 
Q 3116 1113 3116 1747 
z
" transform="scale(0.015625)"/>
       </defs>
       <use xlink:href="#DejaVuSans-47"/>
       <use xlink:href="#DejaVuSans-61" x="77.490234"/>
       <use xlink:href="#DejaVuSans-6d" x="138.769531"/>
       <use xlink:href="#DejaVuSans-6d" x="236.181641"/>
       <use xlink:href="#DejaVuSans-61" x="333.59375"/>
       <use xlink:href="#DejaVuSans-70" x="394.873047"/>
       <use xlink:href="#DejaVuSans-72" x="458.349609"/>
       <use xlink:href="#DejaVuSans-6f" x="497.212891"/>
       <use xlink:href="#DejaVuSans-74" x="558.394531"/>
       <use xlink:href="#DejaVuSans-65" x="597.603516"/>
       <use xlink:href="#DejaVuSans-6f" x="659.126953"/>
       <use xlink:href="#DejaVuSans-62" x="720.308594"/>
       <use xlink:href="#DejaVuSans-61" x="783.785156"/>
       <use xlink:href="#DejaVuSans-63" x="845.064453"/>
       <use xlink:href="#DejaVuSans-74" x="900.044922"/>
       <use xlink:href="#DejaVuSans-65" x="939.253906"/>
       <use xlink:href="#DejaVuSans-72" x="1000.777344"/>
       <use xlink:href="#DejaVuSans-69" x="1041.890625"/>
       <use xlink:href="#DejaVuSans-61" x="1069.673828"/>
      </g>
     </g>
    </g>
    <g id="xtick_7">
     <g id="line2d_7">
      <path d="M 331.5735 123.29 
L 331.5735 28.96 
" clip-path="url(#p9fe83e849d)" style="fill: none; stroke: #ffffff; stroke-linecap: round"/>
     </g>
     <g id="text_7">
      <!-- Bacilli -->
      <g style="fill: #262626" transform="translate(334.608812 165.35)rotate(-90)scale(0.11 -0.11)">
       <use xlink:href="#DejaVuSans-42"/>
       <use xlink:href="#DejaVuSans-61" x="68.603516"/>
       <use xlink:href="#DejaVuSans-63" x="129.882812"/>
       <use xlink:href="#DejaVuSans-69" x="184.863281"/>
       <use xlink:href="#DejaVuSans-6c" x="212.646484"/>
       <use xlink:href="#DejaVuSans-6c" x="240.429688"/>
       <use xlink:href="#DejaVuSans-69" x="268.212891"/>
      </g>
     </g>
    </g>
    <g id="xtick_8">
     <g id="line2d_8">
      <path d="M 370.0525 123.29 
L 370.0525 28.96 
" clip-path="url(#p9fe83e849d)" style="fill: none; stroke: #ffffff; stroke-linecap: round"/>
     </g>
     <g id="text_8">
      <!-- Vampirivibrionia -->
      <g style="fill: #262626" transform="translate(373.087812 222.161563)rotate(-90)scale(0.11 -0.11)">
       <defs>
        <path id="DejaVuSans-76" d="M 191 3500 
L 800 3500 
L 1894 563 
L 2988 3500 
L 3597 3500 
L 2284 0 
L 1503 0 
L 191 3500 
z
" transform="scale(0.015625)"/>
       </defs>
       <use xlink:href="#DejaVuSans-56"/>
       <use xlink:href="#DejaVuSans-61" x="60.658203"/>
       <use xlink:href="#DejaVuSans-6d" x="121.9375"/>
       <use xlink:href="#DejaVuSans-70" x="219.349609"/>
       <use xlink:href="#DejaVuSans-69" x="282.826172"/>
       <use xlink:href="#DejaVuSans-72" x="310.609375"/>
       <use xlink:href="#DejaVuSans-69" x="351.722656"/>
       <use xlink:href="#DejaVuSans-76" x="379.505859"/>
       <use xlink:href="#DejaVuSans-69" x="438.685547"/>
       <use xlink:href="#DejaVuSans-62" x="466.46875"/>
       <use xlink:href="#DejaVuSans-72" x="529.945312"/>
       <use xlink:href="#DejaVuSans-69" x="571.058594"/>
       <use xlink:href="#DejaVuSans-6f" x="598.841797"/>
       <use xlink:href="#DejaVuSans-6e" x="660.023438"/>
       <use xlink:href="#DejaVuSans-69" x="723.402344"/>
       <use xlink:href="#DejaVuSans-61" x="751.185547"/>
      </g>
     </g>
    </g>
    <g id="xtick_9">
     <g id="line2d_9">
      <path d="M 408.5315 123.29 
L 408.5315 28.96 
" clip-path="url(#p9fe83e849d)" style="fill: none; stroke: #ffffff; stroke-linecap: round"/>
     </g>
     <g id="text_9">
      <!-- Negativicutes -->
      <g style="fill: #262626" transform="translate(411.566812 208.2775)rotate(-90)scale(0.11 -0.11)">
       <defs>
        <path id="DejaVuSans-4e" d="M 628 4666 
L 1478 4666 
L 3547 763 
L 3547 4666 
L 4159 4666 
L 4159 0 
L 3309 0 
L 1241 3903 
L 1241 0 
L 628 0 
L 628 4666 
z
" transform="scale(0.015625)"/>
        <path id="DejaVuSans-67" d="M 2906 1791 
Q 2906 2416 2648 2759 
Q 2391 3103 1925 3103 
Q 1463 3103 1205 2759 
Q 947 2416 947 1791 
Q 947 1169 1205 825 
Q 1463 481 1925 481 
Q 2391 481 2648 825 
Q 2906 1169 2906 1791 
z
M 3481 434 
Q 3481 -459 3084 -895 
Q 2688 -1331 1869 -1331 
Q 1566 -1331 1297 -1286 
Q 1028 -1241 775 -1147 
L 775 -588 
Q 1028 -725 1275 -790 
Q 1522 -856 1778 -856 
Q 2344 -856 2625 -561 
Q 2906 -266 2906 331 
L 2906 616 
Q 2728 306 2450 153 
Q 2172 0 1784 0 
Q 1141 0 747 490 
Q 353 981 353 1791 
Q 353 2603 747 3093 
Q 1141 3584 1784 3584 
Q 2172 3584 2450 3431 
Q 2728 3278 2906 2969 
L 2906 3500 
L 3481 3500 
L 3481 434 
z
" transform="scale(0.015625)"/>
       </defs>
       <use xlink:href="#DejaVuSans-4e"/>
       <use xlink:href="#DejaVuSans-65" x="74.804688"/>
       <use xlink:href="#DejaVuSans-67" x="136.328125"/>
       <use xlink:href="#DejaVuSans-61" x="199.804688"/>
       <use xlink:href="#DejaVuSans-74" x="261.083984"/>
       <use xlink:href="#DejaVuSans-69" x="300.292969"/>
       <use xlink:href="#DejaVuSans-76" x="328.076172"/>
       <use xlink:href="#DejaVuSans-69" x="387.255859"/>
       <use xlink:href="#DejaVuSans-63" x="415.039062"/>
       <use xlink:href="#DejaVuSans-75" x="470.019531"/>
       <use xlink:href="#DejaVuSans-74" x="533.398438"/>
       <use xlink:href="#DejaVuSans-65" x="572.607422"/>
       <use xlink:href="#DejaVuSans-73" x="634.130859"/>
      </g>
     </g>
    </g>
    <g id="xtick_10">
     <g id="line2d_10">
      <path d="M 447.0105 123.29 
L 447.0105 28.96 
" clip-path="url(#p9fe83e849d)" style="fill: none; stroke: #ffffff; stroke-linecap: round"/>
     </g>
    </g>
    <g id="xtick_11">
     <g id="line2d_11">
      <path d="M 485.4895 123.29 
L 485.4895 28.96 
" clip-path="url(#p9fe83e849d)" style="fill: none; stroke: #ffffff; stroke-linecap: round"/>
     </g>
    </g>
    <g id="xtick_12">
     <g id="line2d_12">
      <path d="M 523.9685 123.29 
L 523.9685 28.96 
" clip-path="url(#p9fe83e849d)" style="fill: none; stroke: #ffffff; stroke-linecap: round"/>
     </g>
    </g>
    <g id="xtick_13">
     <g id="line2d_13">
      <path d="M 562.4475 123.29 
L 562.4475 28.96 
" clip-path="url(#p9fe83e849d)" style="fill: none; stroke: #ffffff; stroke-linecap: round"/>
     </g>
    </g>
    <g id="xtick_14">
     <g id="line2d_14">
      <path d="M 600.9265 123.29 
L 600.9265 28.96 
" clip-path="url(#p9fe83e849d)" style="fill: none; stroke: #ffffff; stroke-linecap: round"/>
     </g>
    </g>
    <g id="xtick_15">
     <g id="line2d_15">
      <path d="M 639.4055 123.29 
L 639.4055 28.96 
" clip-path="url(#p9fe83e849d)" style="fill: none; stroke: #ffffff; stroke-linecap: round"/>
     </g>
    </g>
    <g id="xtick_16">
     <g id="line2d_16">
      <path d="M 677.8845 123.29 
L 677.8845 28.96 
" clip-path="url(#p9fe83e849d)" style="fill: none; stroke: #ffffff; stroke-linecap: round"/>
     </g>
    </g>
    <g id="xtick_17">
     <g id="line2d_17">
      <path d="M 716.3635 123.29 
L 716.3635 28.96 
" clip-path="url(#p9fe83e849d)" style="fill: none; stroke: #ffffff; stroke-linecap: round"/>
     </g>
    </g>
    <g id="xtick_18">
     <g id="line2d_18">
      <path d="M 754.8425 123.29 
L 754.8425 28.96 
" clip-path="url(#p9fe83e849d)" style="fill: none; stroke: #ffffff; stroke-linecap: round"/>
     </g>
    </g>
    <g id="xtick_19">
     <g id="line2d_19">
      <path d="M 793.3215 123.29 
L 793.3215 28.96 
" clip-path="url(#p9fe83e849d)" style="fill: none; stroke: #ffffff; stroke-linecap: round"/>
     </g>
     <g id="text_10">
      <!-- Methanobacteria -->
      <g style="fill: #262626" transform="translate(796.356813 225.947969)rotate(-90)scale(0.11 -0.11)">
       <defs>
        <path id="DejaVuSans-4d" d="M 628 4666 
L 1569 4666 
L 2759 1491 
L 3956 4666 
L 4897 4666 
L 4897 0 
L 4281 0 
L 4281 4097 
L 3078 897 
L 2444 897 
L 1241 4097 
L 1241 0 
L 628 0 
L 628 4666 
z
" transform="scale(0.015625)"/>
        <path id="DejaVuSans-68" d="M 3513 2113 
L 3513 0 
L 2938 0 
L 2938 2094 
Q 2938 2591 2744 2837 
Q 2550 3084 2163 3084 
Q 1697 3084 1428 2787 
Q 1159 2491 1159 1978 
L 1159 0 
L 581 0 
L 581 4863 
L 1159 4863 
L 1159 2956 
Q 1366 3272 1645 3428 
Q 1925 3584 2291 3584 
Q 2894 3584 3203 3211 
Q 3513 2838 3513 2113 
z
" transform="scale(0.015625)"/>
       </defs>
       <use xlink:href="#DejaVuSans-4d"/>
       <use xlink:href="#DejaVuSans-65" x="86.279297"/>
       <use xlink:href="#DejaVuSans-74" x="147.802734"/>
       <use xlink:href="#DejaVuSans-68" x="187.011719"/>
       <use xlink:href="#DejaVuSans-61" x="250.390625"/>
       <use xlink:href="#DejaVuSans-6e" x="311.669922"/>
       <use xlink:href="#DejaVuSans-6f" x="375.048828"/>
       <use xlink:href="#DejaVuSans-62" x="436.230469"/>
       <use xlink:href="#DejaVuSans-61" x="499.707031"/>
       <use xlink:href="#DejaVuSans-63" x="560.986328"/>
       <use xlink:href="#DejaVuSans-74" x="615.966797"/>
       <use xlink:href="#DejaVuSans-65" x="655.175781"/>
       <use xlink:href="#DejaVuSans-72" x="716.699219"/>
       <use xlink:href="#DejaVuSans-69" x="757.8125"/>
       <use xlink:href="#DejaVuSans-61" x="785.595703"/>
      </g>
     </g>
    </g>
    <g id="xtick_20">
     <g id="line2d_20">
      <path d="M 831.8005 123.29 
L 831.8005 28.96 
" clip-path="url(#p9fe83e849d)" style="fill: none; stroke: #ffffff; stroke-linecap: round"/>
     </g>
     <g id="text_11">
      <!-- Fusobacteriia -->
      <g style="fill: #262626" transform="translate(834.835813 206.172031)rotate(-90)scale(0.11 -0.11)">
       <defs>
        <path id="DejaVuSans-46" d="M 628 4666 
L 3309 4666 
L 3309 4134 
L 1259 4134 
L 1259 2759 
L 3109 2759 
L 3109 2228 
L 1259 2228 
L 1259 0 
L 628 0 
L 628 4666 
z
" transform="scale(0.015625)"/>
       </defs>
       <use xlink:href="#DejaVuSans-46"/>
       <use xlink:href="#DejaVuSans-75" x="52.019531"/>
       <use xlink:href="#DejaVuSans-73" x="115.398438"/>
       <use xlink:href="#DejaVuSans-6f" x="167.498047"/>
       <use xlink:href="#DejaVuSans-62" x="228.679688"/>
       <use xlink:href="#DejaVuSans-61" x="292.15625"/>
       <use xlink:href="#DejaVuSans-63" x="353.435547"/>
       <use xlink:href="#DejaVuSans-74" x="408.416016"/>
       <use xlink:href="#DejaVuSans-65" x="447.625"/>
       <use xlink:href="#DejaVuSans-72" x="509.148438"/>
       <use xlink:href="#DejaVuSans-69" x="550.261719"/>
       <use xlink:href="#DejaVuSans-69" x="578.044922"/>
       <use xlink:href="#DejaVuSans-61" x="605.828125"/>
      </g>
     </g>
    </g>
    <g id="text_12">
     <!-- Class -->
     <g style="fill: #262626" transform="translate(450.465312 270.314687)scale(0.12 -0.12)">
      <use xlink:href="#DejaVuSans-43"/>
      <use xlink:href="#DejaVuSans-6c" x="69.824219"/>
      <use xlink:href="#DejaVuSans-61" x="97.607422"/>
      <use xlink:href="#DejaVuSans-73" x="158.886719"/>
      <use xlink:href="#DejaVuSans-73" x="210.986328"/>
     </g>
    </g>
   </g>
   <g id="matplotlib.axis_2">
    <g id="ytick_1">
     <g id="line2d_21">
      <path d="M 81.46 123.29 
L 851.04 123.29 
" clip-path="url(#p9fe83e849d)" style="fill: none; stroke: #ffffff; stroke-linecap: round"/>
     </g>
     <g id="text_13">
      <!-- 0 -->
      <g style="fill: #262626" transform="translate(64.96125 127.469141)scale(0.11 -0.11)">
       <defs>
        <path id="DejaVuSans-30" d="M 2034 4250 
Q 1547 4250 1301 3770 
Q 1056 3291 1056 2328 
Q 1056 1369 1301 889 
Q 1547 409 2034 409 
Q 2525 409 2770 889 
Q 3016 1369 3016 2328 
Q 3016 3291 2770 3770 
Q 2525 4250 2034 4250 
z
M 2034 4750 
Q 2819 4750 3233 4129 
Q 3647 3509 3647 2328 
Q 3647 1150 3233 529 
Q 2819 -91 2034 -91 
Q 1250 -91 836 529 
Q 422 1150 422 2328 
Q 422 3509 836 4129 
Q 1250 4750 2034 4750 
z
" transform="scale(0.015625)"/>
       </defs>
       <use xlink:href="#DejaVuSans-30"/>
      </g>
     </g>
    </g>
    <g id="ytick_2">
     <g id="line2d_22">
      <path d="M 81.46 98.068551 
L 851.04 98.068551 
" clip-path="url(#p9fe83e849d)" style="fill: none; stroke: #ffffff; stroke-linecap: round"/>
     </g>
     <g id="text_14">
      <!-- 250000 -->
      <g style="fill: #262626" transform="translate(29.9675 102.247692)scale(0.11 -0.11)">
       <defs>
        <path id="DejaVuSans-32" d="M 1228 531 
L 3431 531 
L 3431 0 
L 469 0 
L 469 531 
Q 828 903 1448 1529 
Q 2069 2156 2228 2338 
Q 2531 2678 2651 2914 
Q 2772 3150 2772 3378 
Q 2772 3750 2511 3984 
Q 2250 4219 1831 4219 
Q 1534 4219 1204 4116 
Q 875 4013 500 3803 
L 500 4441 
Q 881 4594 1212 4672 
Q 1544 4750 1819 4750 
Q 2544 4750 2975 4387 
Q 3406 4025 3406 3419 
Q 3406 3131 3298 2873 
Q 3191 2616 2906 2266 
Q 2828 2175 2409 1742 
Q 1991 1309 1228 531 
z
" transform="scale(0.015625)"/>
        <path id="DejaVuSans-35" d="M 691 4666 
L 3169 4666 
L 3169 4134 
L 1269 4134 
L 1269 2991 
Q 1406 3038 1543 3061 
Q 1681 3084 1819 3084 
Q 2600 3084 3056 2656 
Q 3513 2228 3513 1497 
Q 3513 744 3044 326 
Q 2575 -91 1722 -91 
Q 1428 -91 1123 -41 
Q 819 9 494 109 
L 494 744 
Q 775 591 1075 516 
Q 1375 441 1709 441 
Q 2250 441 2565 725 
Q 2881 1009 2881 1497 
Q 2881 1984 2565 2268 
Q 2250 2553 1709 2553 
Q 1456 2553 1204 2497 
Q 953 2441 691 2322 
L 691 4666 
z
" transform="scale(0.015625)"/>
       </defs>
       <use xlink:href="#DejaVuSans-32"/>
       <use xlink:href="#DejaVuSans-35" x="63.623047"/>
       <use xlink:href="#DejaVuSans-30" x="127.246094"/>
       <use xlink:href="#DejaVuSans-30" x="190.869141"/>
       <use xlink:href="#DejaVuSans-30" x="254.492188"/>
       <use xlink:href="#DejaVuSans-30" x="318.115234"/>
      </g>
     </g>
    </g>
    <g id="ytick_3">
     <g id="line2d_23">
      <path d="M 81.46 72.847102 
L 851.04 72.847102 
" clip-path="url(#p9fe83e849d)" style="fill: none; stroke: #ffffff; stroke-linecap: round"/>
     </g>
     <g id="text_15">
      <!-- 500000 -->
      <g style="fill: #262626" transform="translate(29.9675 77.026243)scale(0.11 -0.11)">
       <use xlink:href="#DejaVuSans-35"/>
       <use xlink:href="#DejaVuSans-30" x="63.623047"/>
       <use xlink:href="#DejaVuSans-30" x="127.246094"/>
       <use xlink:href="#DejaVuSans-30" x="190.869141"/>
       <use xlink:href="#DejaVuSans-30" x="254.492188"/>
       <use xlink:href="#DejaVuSans-30" x="318.115234"/>
      </g>
     </g>
    </g>
    <g id="ytick_4">
     <g id="line2d_24">
      <path d="M 81.46 47.625653 
L 851.04 47.625653 
" clip-path="url(#p9fe83e849d)" style="fill: none; stroke: #ffffff; stroke-linecap: round"/>
     </g>
     <g id="text_16">
      <!-- 750000 -->
      <g style="fill: #262626" transform="translate(29.9675 51.804794)scale(0.11 -0.11)">
       <defs>
        <path id="DejaVuSans-37" d="M 525 4666 
L 3525 4666 
L 3525 4397 
L 1831 0 
L 1172 0 
L 2766 4134 
L 525 4134 
L 525 4666 
z
" transform="scale(0.015625)"/>
       </defs>
       <use xlink:href="#DejaVuSans-37"/>
       <use xlink:href="#DejaVuSans-35" x="63.623047"/>
       <use xlink:href="#DejaVuSans-30" x="127.246094"/>
       <use xlink:href="#DejaVuSans-30" x="190.869141"/>
       <use xlink:href="#DejaVuSans-30" x="254.492188"/>
       <use xlink:href="#DejaVuSans-30" x="318.115234"/>
      </g>
     </g>
    </g>
    <g id="text_17">
     <!-- Abundances -->
     <g style="fill: #262626" transform="translate(23.471875 113.048438)rotate(-90)scale(0.12 -0.12)">
      <use xlink:href="#DejaVuSans-41"/>
      <use xlink:href="#DejaVuSans-62" x="68.408203"/>
      <use xlink:href="#DejaVuSans-75" x="131.884766"/>
      <use xlink:href="#DejaVuSans-6e" x="195.263672"/>
      <use xlink:href="#DejaVuSans-64" x="258.642578"/>
      <use xlink:href="#DejaVuSans-61" x="322.119141"/>
      <use xlink:href="#DejaVuSans-6e" x="383.398438"/>
      <use xlink:href="#DejaVuSans-63" x="446.777344"/>
      <use xlink:href="#DejaVuSans-65" x="501.757812"/>
      <use xlink:href="#DejaVuSans-73" x="563.28125"/>
     </g>
    </g>
   </g>
   <g id="patch_3">
    <path d="M 91.07975 123.29 
L 110.31925 123.29 
L 110.31925 50.919877 
L 91.07975 50.919877 
z
" clip-path="url(#p9fe83e849d)" style="fill: #4c72b0; stroke: #ffffff; stroke-linejoin: miter"/>
   </g>
   <g id="patch_4">
    <path d="M 129.55875 123.29 
L 148.79825 123.29 
L 148.79825 116.944687 
L 129.55875 116.944687 
z
" clip-path="url(#p9fe83e849d)" style="fill: #4c72b0; stroke: #ffffff; stroke-linejoin: miter"/>
   </g>
   <g id="patch_5">
    <path d="M 168.03775 123.29 
L 187.27725 123.29 
L 187.27725 122.437111 
L 168.03775 122.437111 
z
" clip-path="url(#p9fe83e849d)" style="fill: #4c72b0; stroke: #ffffff; stroke-linejoin: miter"/>
   </g>
   <g id="patch_6">
    <path d="M 206.51675 123.29 
L 225.75625 123.29 
L 225.75625 122.607407 
L 206.51675 122.607407 
z
" clip-path="url(#p9fe83e849d)" style="fill: #4c72b0; stroke: #ffffff; stroke-linejoin: miter"/>
   </g>
   <g id="patch_7">
    <path d="M 244.99575 123.29 
L 264.23525 123.29 
L 264.23525 122.045977 
L 244.99575 122.045977 
z
" clip-path="url(#p9fe83e849d)" style="fill: #4c72b0; stroke: #ffffff; stroke-linejoin: miter"/>
   </g>
   <g id="patch_8">
    <path d="M 283.47475 123.29 
L 302.71425 123.29 
L 302.71425 121.441873 
L 283.47475 121.441873 
z
" clip-path="url(#p9fe83e849d)" style="fill: #4c72b0; stroke: #ffffff; stroke-linejoin: miter"/>
   </g>
   <g id="patch_9">
    <path d="M 321.95375 123.29 
L 341.19325 123.29 
L 341.19325 121.762488 
L 321.95375 121.762488 
z
" clip-path="url(#p9fe83e849d)" style="fill: #4c72b0; stroke: #ffffff; stroke-linejoin: miter"/>
   </g>
   <g id="patch_10">
    <path d="M 360.43275 123.29 
L 379.67225 123.29 
L 379.67225 123.078342 
L 360.43275 123.078342 
z
" clip-path="url(#p9fe83e849d)" style="fill: #4c72b0; stroke: #ffffff; stroke-linejoin: miter"/>
   </g>
   <g id="patch_11">
    <path d="M 398.91175 123.29 
L 418.15125 123.29 
L 418.15125 122.724838 
L 398.91175 122.724838 
z
" clip-path="url(#p9fe83e849d)" style="fill: #4c72b0; stroke: #ffffff; stroke-linejoin: miter"/>
   </g>
   <g id="patch_12">
    <path d="M 437.39075 123.29 
L 456.63025 123.29 
L 456.63025 120.635089 
L 437.39075 120.635089 
z
" clip-path="url(#p9fe83e849d)" style="fill: #4c72b0; stroke: #ffffff; stroke-linejoin: miter"/>
   </g>
   <g id="patch_13">
    <path d="M 475.86975 123.29 
L 495.10925 123.29 
L 495.10925 123.102352 
L 475.86975 123.102352 
z
" clip-path="url(#p9fe83e849d)" style="fill: #4c72b0; stroke: #ffffff; stroke-linejoin: miter"/>
   </g>
   <g id="patch_14">
    <path d="M 514.34875 123.29 
L 533.58825 123.29 
L 533.58825 122.402003 
L 514.34875 122.402003 
z
" clip-path="url(#p9fe83e849d)" style="fill: #4c72b0; stroke: #ffffff; stroke-linejoin: miter"/>
   </g>
   <g id="patch_15">
    <path d="M 552.82775 123.29 
L 572.06725 123.29 
L 572.06725 120.635089 
L 552.82775 120.635089 
z
" clip-path="url(#p9fe83e849d)" style="fill: #4c72b0; stroke: #ffffff; stroke-linejoin: miter"/>
   </g>
   <g id="patch_16">
    <path d="M 591.30675 123.29 
L 610.54625 123.29 
L 610.54625 120.635089 
L 591.30675 120.635089 
z
" clip-path="url(#p9fe83e849d)" style="fill: #4c72b0; stroke: #ffffff; stroke-linejoin: miter"/>
   </g>
   <g id="patch_17">
    <path d="M 629.78575 123.29 
L 649.02525 123.29 
L 649.02525 122.402003 
L 629.78575 122.402003 
z
" clip-path="url(#p9fe83e849d)" style="fill: #4c72b0; stroke: #ffffff; stroke-linejoin: miter"/>
   </g>
   <g id="patch_18">
    <path d="M 668.26475 123.29 
L 687.50425 123.29 
L 687.50425 123.102352 
L 668.26475 123.102352 
z
" clip-path="url(#p9fe83e849d)" style="fill: #4c72b0; stroke: #ffffff; stroke-linejoin: miter"/>
   </g>
   <g id="patch_19">
    <path d="M 706.74375 123.29 
L 725.98325 123.29 
L 725.98325 122.402003 
L 706.74375 122.402003 
z
" clip-path="url(#p9fe83e849d)" style="fill: #4c72b0; stroke: #ffffff; stroke-linejoin: miter"/>
   </g>
   <g id="patch_20">
    <path d="M 745.22275 123.29 
L 764.46225 123.29 
L 764.46225 123.102352 
L 745.22275 123.102352 
z
" clip-path="url(#p9fe83e849d)" style="fill: #4c72b0; stroke: #ffffff; stroke-linejoin: miter"/>
   </g>
   <g id="patch_21">
    <path d="M 783.70175 123.29 
L 802.94125 123.29 
L 802.94125 123.166516 
L 783.70175 123.166516 
z
" clip-path="url(#p9fe83e849d)" style="fill: #4c72b0; stroke: #ffffff; stroke-linejoin: miter"/>
   </g>
   <g id="patch_22">
    <path d="M 822.18075 123.29 
L 841.42025 123.29 
L 841.42025 123.052616 
L 822.18075 123.052616 
z
" clip-path="url(#p9fe83e849d)" style="fill: #4c72b0; stroke: #ffffff; stroke-linejoin: miter"/>
   </g>
   <g id="patch_23">
    <path d="M 91.07975 50.919877 
L 110.31925 50.919877 
L 110.31925 33.451905 
L 91.07975 33.451905 
z
" clip-path="url(#p9fe83e849d)" style="fill: #dd8452; stroke: #ffffff; stroke-linejoin: miter"/>
   </g>
   <g id="patch_24">
    <path d="M 129.55875 116.944687 
L 148.79825 116.944687 
L 148.79825 115.180194 
L 129.55875 115.180194 
z
" clip-path="url(#p9fe83e849d)" style="fill: #dd8452; stroke: #ffffff; stroke-linejoin: miter"/>
   </g>
   <g id="patch_25">
    <path d="M 168.03775 122.437111 
L 187.27725 122.437111 
L 187.27725 122.13052 
L 168.03775 122.13052 
z
" clip-path="url(#p9fe83e849d)" style="fill: #dd8452; stroke: #ffffff; stroke-linejoin: miter"/>
   </g>
   <g id="patch_26">
    <path d="M 206.51675 122.607407 
L 225.75625 122.607407 
L 225.75625 122.314636 
L 206.51675 122.314636 
z
" clip-path="url(#p9fe83e849d)" style="fill: #dd8452; stroke: #ffffff; stroke-linejoin: miter"/>
   </g>
   <g id="patch_27">
    <path d="M 244.99575 122.045977 
L 264.23525 122.045977 
L 264.23525 121.756435 
L 244.99575 121.756435 
z
" clip-path="url(#p9fe83e849d)" style="fill: #dd8452; stroke: #ffffff; stroke-linejoin: miter"/>
   </g>
   <g id="patch_28">
    <path d="M 283.47475 121.441873 
L 302.71425 121.441873 
L 302.71425 121.214376 
L 283.47475 121.214376 
z
" clip-path="url(#p9fe83e849d)" style="fill: #dd8452; stroke: #ffffff; stroke-linejoin: miter"/>
   </g>
   <g id="patch_29">
    <path d="M 321.95375 121.762488 
L 341.19325 121.762488 
L 341.19325 121.573731 
L 321.95375 121.573731 
z
" clip-path="url(#p9fe83e849d)" style="fill: #dd8452; stroke: #ffffff; stroke-linejoin: miter"/>
   </g>
   <g id="patch_30">
    <path d="M 360.43275 123.078342 
L 379.67225 123.078342 
L 379.67225 122.934378 
L 360.43275 122.934378 
z
" clip-path="url(#p9fe83e849d)" style="fill: #dd8452; stroke: #ffffff; stroke-linejoin: miter"/>
   </g>
   <g id="patch_31">
    <path d="M 398.91175 122.724838 
L 418.15125 122.724838 
L 418.15125 122.598024 
L 398.91175 122.598024 
z
" clip-path="url(#p9fe83e849d)" style="fill: #dd8452; stroke: #ffffff; stroke-linejoin: miter"/>
   </g>
   <g id="patch_32">
    <path d="M 437.39075 120.635089 
L 456.63025 120.635089 
L 456.63025 120.521996 
L 437.39075 120.521996 
z
" clip-path="url(#p9fe83e849d)" style="fill: #dd8452; stroke: #ffffff; stroke-linejoin: miter"/>
   </g>
   <g id="patch_33">
    <path d="M 475.86975 123.102352 
L 495.10925 123.102352 
L 495.10925 122.989259 
L 475.86975 122.989259 
z
" clip-path="url(#p9fe83e849d)" style="fill: #dd8452; stroke: #ffffff; stroke-linejoin: miter"/>
   </g>
   <g id="patch_34">
    <path d="M 514.34875 122.402003 
L 533.58825 122.402003 
L 533.58825 122.28891 
L 514.34875 122.28891 
z
" clip-path="url(#p9fe83e849d)" style="fill: #dd8452; stroke: #ffffff; stroke-linejoin: miter"/>
   </g>
   <g id="patch_35">
    <path d="M 552.82775 120.635089 
L 572.06725 120.635089 
L 572.06725 120.521996 
L 552.82775 120.521996 
z
" clip-path="url(#p9fe83e849d)" style="fill: #dd8452; stroke: #ffffff; stroke-linejoin: miter"/>
   </g>
   <g id="patch_36">
    <path d="M 591.30675 120.635089 
L 610.54625 120.635089 
L 610.54625 120.521996 
L 591.30675 120.521996 
z
" clip-path="url(#p9fe83e849d)" style="fill: #dd8452; stroke: #ffffff; stroke-linejoin: miter"/>
   </g>
   <g id="patch_37">
    <path d="M 629.78575 122.402003 
L 649.02525 122.402003 
L 649.02525 122.28891 
L 629.78575 122.28891 
z
" clip-path="url(#p9fe83e849d)" style="fill: #dd8452; stroke: #ffffff; stroke-linejoin: miter"/>
   </g>
   <g id="patch_38">
    <path d="M 668.26475 123.102352 
L 687.50425 123.102352 
L 687.50425 122.989259 
L 668.26475 122.989259 
z
" clip-path="url(#p9fe83e849d)" style="fill: #dd8452; stroke: #ffffff; stroke-linejoin: miter"/>
   </g>
   <g id="patch_39">
    <path d="M 706.74375 122.402003 
L 725.98325 122.402003 
L 725.98325 122.28891 
L 706.74375 122.28891 
z
" clip-path="url(#p9fe83e849d)" style="fill: #dd8452; stroke: #ffffff; stroke-linejoin: miter"/>
   </g>
   <g id="patch_40">
    <path d="M 745.22275 123.102352 
L 764.46225 123.102352 
L 764.46225 122.989259 
L 745.22275 122.989259 
z
" clip-path="url(#p9fe83e849d)" style="fill: #dd8452; stroke: #ffffff; stroke-linejoin: miter"/>
   </g>
   <g id="patch_41">
    <path d="M 783.70175 123.166516 
L 802.94125 123.166516 
L 802.94125 123.064117 
L 783.70175 123.064117 
z
" clip-path="url(#p9fe83e849d)" style="fill: #dd8452; stroke: #ffffff; stroke-linejoin: miter"/>
   </g>
   <g id="patch_42">
    <path d="M 822.18075 123.052616 
L 841.42025 123.052616 
L 841.42025 123.038492 
L 822.18075 123.038492 
z
" clip-path="url(#p9fe83e849d)" style="fill: #dd8452; stroke: #ffffff; stroke-linejoin: miter"/>
   </g>
   <g id="patch_43">
    <path d="M 81.46 123.29 
L 81.46 28.96 
" style="fill: none; stroke: #ffffff; stroke-width: 1.25; stroke-linejoin: miter; stroke-linecap: square"/>
   </g>
   <g id="patch_44">
    <path d="M 851.04 123.29 
L 851.04 28.96 
" style="fill: none; stroke: #ffffff; stroke-width: 1.25; stroke-linejoin: miter; stroke-linecap: square"/>
   </g>
   <g id="patch_45">
    <path d="M 81.46 123.29 
L 851.04 123.29 
" style="fill: none; stroke: #ffffff; stroke-width: 1.25; stroke-linejoin: miter; stroke-linecap: square"/>
   </g>
   <g id="patch_46">
    <path d="M 81.46 28.96 
L 851.04 28.96 
" style="fill: none; stroke: #ffffff; stroke-width: 1.25; stroke-linejoin: miter; stroke-linecap: square"/>
   </g>
   <g id="text_18">
    <!-- Top 20 Class abundances rank for groups 0x1 - Sorted by 1 -->
    <g style="fill: #262626" transform="translate(288.685625 22.96)scale(0.12 -0.12)">
     <defs>
      <path id="DejaVuSans-54" d="M -19 4666 
L 3928 4666 
L 3928 4134 
L 2272 4134 
L 2272 0 
L 1638 0 
L 1638 4134 
L -19 4134 
L -19 4666 
z
" transform="scale(0.015625)"/>
      <path id="DejaVuSans-20" transform="scale(0.015625)"/>
      <path id="DejaVuSans-6b" d="M 581 4863 
L 1159 4863 
L 1159 1991 
L 2875 3500 
L 3609 3500 
L 1753 1863 
L 3688 0 
L 2938 0 
L 1159 1709 
L 1159 0 
L 581 0 
L 581 4863 
z
" transform="scale(0.015625)"/>
      <path id="DejaVuSans-66" d="M 2375 4863 
L 2375 4384 
L 1825 4384 
Q 1516 4384 1395 4259 
Q 1275 4134 1275 3809 
L 1275 3500 
L 2222 3500 
L 2222 3053 
L 1275 3053 
L 1275 0 
L 697 0 
L 697 3053 
L 147 3053 
L 147 3500 
L 697 3500 
L 697 3744 
Q 697 4328 969 4595 
Q 1241 4863 1831 4863 
L 2375 4863 
z
" transform="scale(0.015625)"/>
      <path id="DejaVuSans-78" d="M 3513 3500 
L 2247 1797 
L 3578 0 
L 2900 0 
L 1881 1375 
L 863 0 
L 184 0 
L 1544 1831 
L 300 3500 
L 978 3500 
L 1906 2253 
L 2834 3500 
L 3513 3500 
z
" transform="scale(0.015625)"/>
      <path id="DejaVuSans-31" d="M 794 531 
L 1825 531 
L 1825 4091 
L 703 3866 
L 703 4441 
L 1819 4666 
L 2450 4666 
L 2450 531 
L 3481 531 
L 3481 0 
L 794 0 
L 794 531 
z
" transform="scale(0.015625)"/>
      <path id="DejaVuSans-2d" d="M 313 2009 
L 1997 2009 
L 1997 1497 
L 313 1497 
L 313 2009 
z
" transform="scale(0.015625)"/>
      <path id="DejaVuSans-53" d="M 3425 4513 
L 3425 3897 
Q 3066 4069 2747 4153 
Q 2428 4238 2131 4238 
Q 1616 4238 1336 4038 
Q 1056 3838 1056 3469 
Q 1056 3159 1242 3001 
Q 1428 2844 1947 2747 
L 2328 2669 
Q 3034 2534 3370 2195 
Q 3706 1856 3706 1288 
Q 3706 609 3251 259 
Q 2797 -91 1919 -91 
Q 1588 -91 1214 -16 
Q 841 59 441 206 
L 441 856 
Q 825 641 1194 531 
Q 1563 422 1919 422 
Q 2459 422 2753 634 
Q 3047 847 3047 1241 
Q 3047 1584 2836 1778 
Q 2625 1972 2144 2069 
L 1759 2144 
Q 1053 2284 737 2584 
Q 422 2884 422 3419 
Q 422 4038 858 4394 
Q 1294 4750 2059 4750 
Q 2388 4750 2728 4690 
Q 3069 4631 3425 4513 
z
" transform="scale(0.015625)"/>
      <path id="DejaVuSans-79" d="M 2059 -325 
Q 1816 -950 1584 -1140 
Q 1353 -1331 966 -1331 
L 506 -1331 
L 506 -850 
L 844 -850 
Q 1081 -850 1212 -737 
Q 1344 -625 1503 -206 
L 1606 56 
L 191 3500 
L 800 3500 
L 1894 763 
L 2988 3500 
L 3597 3500 
L 2059 -325 
z
" transform="scale(0.015625)"/>
     </defs>
     <use xlink:href="#DejaVuSans-54"/>
     <use xlink:href="#DejaVuSans-6f" x="44.083984"/>
     <use xlink:href="#DejaVuSans-70" x="105.265625"/>
     <use xlink:href="#DejaVuSans-20" x="168.742188"/>
     <use xlink:href="#DejaVuSans-32" x="200.529297"/>
     <use xlink:href="#DejaVuSans-30" x="264.152344"/>
     <use xlink:href="#DejaVuSans-20" x="327.775391"/>
     <use xlink:href="#DejaVuSans-43" x="359.5625"/>
     <use xlink:href="#DejaVuSans-6c" x="429.386719"/>
     <use xlink:href="#DejaVuSans-61" x="457.169922"/>
     <use xlink:href="#DejaVuSans-73" x="518.449219"/>
     <use xlink:href="#DejaVuSans-73" x="570.548828"/>
     <use xlink:href="#DejaVuSans-20" x="622.648438"/>
     <use xlink:href="#DejaVuSans-61" x="654.435547"/>
     <use xlink:href="#DejaVuSans-62" x="715.714844"/>
     <use xlink:href="#DejaVuSans-75" x="779.191406"/>
     <use xlink:href="#DejaVuSans-6e" x="842.570312"/>
     <use xlink:href="#DejaVuSans-64" x="905.949219"/>
     <use xlink:href="#DejaVuSans-61" x="969.425781"/>
     <use xlink:href="#DejaVuSans-6e" x="1030.705078"/>
     <use xlink:href="#DejaVuSans-63" x="1094.083984"/>
     <use xlink:href="#DejaVuSans-65" x="1149.064453"/>
     <use xlink:href="#DejaVuSans-73" x="1210.587891"/>
     <use xlink:href="#DejaVuSans-20" x="1262.6875"/>
     <use xlink:href="#DejaVuSans-72" x="1294.474609"/>
     <use xlink:href="#DejaVuSans-61" x="1335.587891"/>
     <use xlink:href="#DejaVuSans-6e" x="1396.867188"/>
     <use xlink:href="#DejaVuSans-6b" x="1460.246094"/>
     <use xlink:href="#DejaVuSans-20" x="1518.15625"/>
     <use xlink:href="#DejaVuSans-66" x="1549.943359"/>
     <use xlink:href="#DejaVuSans-6f" x="1585.148438"/>
     <use xlink:href="#DejaVuSans-72" x="1646.330078"/>
     <use xlink:href="#DejaVuSans-20" x="1687.443359"/>
     <use xlink:href="#DejaVuSans-67" x="1719.230469"/>
     <use xlink:href="#DejaVuSans-72" x="1782.707031"/>
     <use xlink:href="#DejaVuSans-6f" x="1821.570312"/>
     <use xlink:href="#DejaVuSans-75" x="1882.751953"/>
     <use xlink:href="#DejaVuSans-70" x="1946.130859"/>
     <use xlink:href="#DejaVuSans-73" x="2009.607422"/>
     <use xlink:href="#DejaVuSans-20" x="2061.707031"/>
     <use xlink:href="#DejaVuSans-30" x="2093.494141"/>
     <use xlink:href="#DejaVuSans-78" x="2157.117188"/>
     <use xlink:href="#DejaVuSans-31" x="2216.296875"/>
     <use xlink:href="#DejaVuSans-20" x="2279.919922"/>
     <use xlink:href="#DejaVuSans-2d" x="2311.707031"/>
     <use xlink:href="#DejaVuSans-20" x="2347.791016"/>
     <use xlink:href="#DejaVuSans-53" x="2379.578125"/>
     <use xlink:href="#DejaVuSans-6f" x="2443.054688"/>
     <use xlink:href="#DejaVuSans-72" x="2504.236328"/>
     <use xlink:href="#DejaVuSans-74" x="2545.349609"/>
     <use xlink:href="#DejaVuSans-65" x="2584.558594"/>
     <use xlink:href="#DejaVuSans-64" x="2646.082031"/>
     <use xlink:href="#DejaVuSans-20" x="2709.558594"/>
     <use xlink:href="#DejaVuSans-62" x="2741.345703"/>
     <use xlink:href="#DejaVuSans-79" x="2804.822266"/>
     <use xlink:href="#DejaVuSans-20" x="2864.001953"/>
     <use xlink:href="#DejaVuSans-31" x="2895.789062"/>
    </g>
   </g>
   <g id="legend_1">
    <g id="patch_47">
     <path d="M 801.14125 70.051875 
L 843.34 70.051875 
Q 845.54 70.051875 845.54 67.851875 
L 845.54 36.66 
Q 845.54 34.46 843.34 34.46 
L 801.14125 34.46 
Q 798.94125 34.46 798.94125 36.66 
L 798.94125 67.851875 
Q 798.94125 70.051875 801.14125 70.051875 
z
" style="fill: #eaeaf2; opacity: 0.8; stroke: #cccccc; stroke-linejoin: miter"/>
    </g>
    <g id="patch_48">
     <path d="M 803.34125 47.218281 
L 825.34125 47.218281 
L 825.34125 39.518281 
L 803.34125 39.518281 
z
" style="fill: #4c72b0; stroke: #ffffff; stroke-linejoin: miter"/>
    </g>
    <g id="text_19">
     <!-- 0 -->
     <g style="fill: #262626" transform="translate(834.14125 47.218281)scale(0.11 -0.11)">
      <use xlink:href="#DejaVuSans-30"/>
     </g>
    </g>
    <g id="patch_49">
     <path d="M 803.34125 63.364219 
L 825.34125 63.364219 
L 825.34125 55.664219 
L 803.34125 55.664219 
z
" style="fill: #dd8452; stroke: #ffffff; stroke-linejoin: miter"/>
    </g>
    <g id="text_20">
     <!-- 1 -->
     <g style="fill: #262626" transform="translate(834.14125 63.364219)scale(0.11 -0.11)">
      <use xlink:href="#DejaVuSans-31"/>
     </g>
    </g>
   </g>
  </g>
 </g>
 <defs>
  <clipPath id="p9fe83e849d">
   <rect x="81.46" y="28.96" width="769.58" height="94.33"/>
  </clipPath>
 </defs>
</svg>
