<?xml version="1.0" encoding="utf-8" standalone="no"?>
<!DOCTYPE svg PUBLIC "-//W3C//DTD SVG 1.1//EN"
  "http://www.w3.org/Graphics/SVG/1.1/DTD/svg11.dtd">
<svg xmlns:xlink="http://www.w3.org/1999/xlink" width="864pt" height="288pt" viewBox="0 0 864 288" xmlns="http://www.w3.org/2000/svg" version="1.1">
 <metadata>
  <rdf:RDF xmlns:dc="http://purl.org/dc/elements/1.1/" xmlns:cc="http://creativecommons.org/ns#" xmlns:rdf="http://www.w3.org/1999/02/22-rdf-syntax-ns#">
   <cc:Work>
    <dc:type rdf:resource="http://purl.org/dc/dcmitype/StillImage"/>
    <dc:date>2023-03-16T22:03:13.031619</dc:date>
    <dc:format>image/svg+xml</dc:format>
    <dc:creator>
     <cc:Agent>
      <dc:title>Matplotlib v3.5.1, https://matplotlib.org/</dc:title>
     </cc:Agent>
    </dc:creator>
   </cc:Work>
  </rdf:RDF>
 </metadata>
 <defs>
  <style type="text/css">*{stroke-linejoin: round; stroke-linecap: butt}</style>
 </defs>
 <g id="figure_1">
  <g id="patch_1">
   <path d="M 0 288 
L 864 288 
L 864 0 
L 0 0 
z
" style="fill: #ffffff"/>
  </g>
  <g id="axes_1">
   <g id="patch_2">
    <path d="M 74.46 248.54 
L 851.04 248.54 
L 851.04 28.96 
L 74.46 28.96 
z
" style="fill: #eaeaf2"/>
   </g>
   <g id="matplotlib.axis_1">
    <g id="xtick_1">
     <g id="line2d_1">
      <path d="M 93.8745 248.54 
L 93.8745 28.96 
" clip-path="url(#pe1fb64c396)" style="fill: none; stroke: #ffffff; stroke-linecap: round"/>
     </g>
    </g>
    <g id="xtick_2">
     <g id="line2d_2">
      <path d="M 132.7035 248.54 
L 132.7035 28.96 
" clip-path="url(#pe1fb64c396)" style="fill: none; stroke: #ffffff; stroke-linecap: round"/>
     </g>
    </g>
    <g id="xtick_3">
     <g id="line2d_3">
      <path d="M 171.5325 248.54 
L 171.5325 28.96 
" clip-path="url(#pe1fb64c396)" style="fill: none; stroke: #ffffff; stroke-linecap: round"/>
     </g>
    </g>
    <g id="xtick_4">
     <g id="line2d_4">
      <path d="M 210.3615 248.54 
L 210.3615 28.96 
" clip-path="url(#pe1fb64c396)" style="fill: none; stroke: #ffffff; stroke-linecap: round"/>
     </g>
    </g>
    <g id="xtick_5">
     <g id="line2d_5">
      <path d="M 249.1905 248.54 
L 249.1905 28.96 
" clip-path="url(#pe1fb64c396)" style="fill: none; stroke: #ffffff; stroke-linecap: round"/>
     </g>
    </g>
    <g id="xtick_6">
     <g id="line2d_6">
      <path d="M 288.0195 248.54 
L 288.0195 28.96 
" clip-path="url(#pe1fb64c396)" style="fill: none; stroke: #ffffff; stroke-linecap: round"/>
     </g>
    </g>
    <g id="xtick_7">
     <g id="line2d_7">
      <path d="M 326.8485 248.54 
L 326.8485 28.96 
" clip-path="url(#pe1fb64c396)" style="fill: none; stroke: #ffffff; stroke-linecap: round"/>
     </g>
    </g>
    <g id="xtick_8">
     <g id="line2d_8">
      <path d="M 365.6775 248.54 
L 365.6775 28.96 
" clip-path="url(#pe1fb64c396)" style="fill: none; stroke: #ffffff; stroke-linecap: round"/>
     </g>
    </g>
    <g id="xtick_9">
     <g id="line2d_9">
      <path d="M 404.5065 248.54 
L 404.5065 28.96 
" clip-path="url(#pe1fb64c396)" style="fill: none; stroke: #ffffff; stroke-linecap: round"/>
     </g>
    </g>
    <g id="xtick_10">
     <g id="line2d_10">
      <path d="M 443.3355 248.54 
L 443.3355 28.96 
" clip-path="url(#pe1fb64c396)" style="fill: none; stroke: #ffffff; stroke-linecap: round"/>
     </g>
    </g>
    <g id="xtick_11">
     <g id="line2d_11">
      <path d="M 482.1645 248.54 
L 482.1645 28.96 
" clip-path="url(#pe1fb64c396)" style="fill: none; stroke: #ffffff; stroke-linecap: round"/>
     </g>
    </g>
    <g id="xtick_12">
     <g id="line2d_12">
      <path d="M 520.9935 248.54 
L 520.9935 28.96 
" clip-path="url(#pe1fb64c396)" style="fill: none; stroke: #ffffff; stroke-linecap: round"/>
     </g>
    </g>
    <g id="xtick_13">
     <g id="line2d_13">
      <path d="M 559.8225 248.54 
L 559.8225 28.96 
" clip-path="url(#pe1fb64c396)" style="fill: none; stroke: #ffffff; stroke-linecap: round"/>
     </g>
    </g>
    <g id="xtick_14">
     <g id="line2d_14">
      <path d="M 598.6515 248.54 
L 598.6515 28.96 
" clip-path="url(#pe1fb64c396)" style="fill: none; stroke: #ffffff; stroke-linecap: round"/>
     </g>
    </g>
    <g id="xtick_15">
     <g id="line2d_15">
      <path d="M 637.4805 248.54 
L 637.4805 28.96 
" clip-path="url(#pe1fb64c396)" style="fill: none; stroke: #ffffff; stroke-linecap: round"/>
     </g>
    </g>
    <g id="xtick_16">
     <g id="line2d_16">
      <path d="M 676.3095 248.54 
L 676.3095 28.96 
" clip-path="url(#pe1fb64c396)" style="fill: none; stroke: #ffffff; stroke-linecap: round"/>
     </g>
    </g>
    <g id="xtick_17">
     <g id="line2d_17">
      <path d="M 715.1385 248.54 
L 715.1385 28.96 
" clip-path="url(#pe1fb64c396)" style="fill: none; stroke: #ffffff; stroke-linecap: round"/>
     </g>
    </g>
    <g id="xtick_18">
     <g id="line2d_18">
      <path d="M 753.9675 248.54 
L 753.9675 28.96 
" clip-path="url(#pe1fb64c396)" style="fill: none; stroke: #ffffff; stroke-linecap: round"/>
     </g>
    </g>
    <g id="xtick_19">
     <g id="line2d_19">
      <path d="M 792.7965 248.54 
L 792.7965 28.96 
" clip-path="url(#pe1fb64c396)" style="fill: none; stroke: #ffffff; stroke-linecap: round"/>
     </g>
    </g>
    <g id="xtick_20">
     <g id="line2d_20">
      <path d="M 831.6255 248.54 
L 831.6255 28.96 
" clip-path="url(#pe1fb64c396)" style="fill: none; stroke: #ffffff; stroke-linecap: round"/>
     </g>
    </g>
    <g id="text_1">
     <!-- Order -->
     <g style="fill: #262626" transform="translate(445.697812 271.158125)scale(0.12 -0.12)">
      <defs>
       <path id="DejaVuSans-4f" d="M 2522 4238 
Q 1834 4238 1429 3725 
Q 1025 3213 1025 2328 
Q 1025 1447 1429 934 
Q 1834 422 2522 422 
Q 3209 422 3611 934 
Q 4013 1447 4013 2328 
Q 4013 3213 3611 3725 
Q 3209 4238 2522 4238 
z
M 2522 4750 
Q 3503 4750 4090 4092 
Q 4678 3434 4678 2328 
Q 4678 1225 4090 567 
Q 3503 -91 2522 -91 
Q 1538 -91 948 565 
Q 359 1222 359 2328 
Q 359 3434 948 4092 
Q 1538 4750 2522 4750 
z
" transform="scale(0.015625)"/>
       <path id="DejaVuSans-72" d="M 2631 2963 
Q 2534 3019 2420 3045 
Q 2306 3072 2169 3072 
Q 1681 3072 1420 2755 
Q 1159 2438 1159 1844 
L 1159 0 
L 581 0 
L 581 3500 
L 1159 3500 
L 1159 2956 
Q 1341 3275 1631 3429 
Q 1922 3584 2338 3584 
Q 2397 3584 2469 3576 
Q 2541 3569 2628 3553 
L 2631 2963 
z
" transform="scale(0.015625)"/>
       <path id="DejaVuSans-64" d="M 2906 2969 
L 2906 4863 
L 3481 4863 
L 3481 0 
L 2906 0 
L 2906 525 
Q 2725 213 2448 61 
Q 2172 -91 1784 -91 
Q 1150 -91 751 415 
Q 353 922 353 1747 
Q 353 2572 751 3078 
Q 1150 3584 1784 3584 
Q 2172 3584 2448 3432 
Q 2725 3281 2906 2969 
z
M 947 1747 
Q 947 1113 1208 752 
Q 1469 391 1925 391 
Q 2381 391 2643 752 
Q 2906 1113 2906 1747 
Q 2906 2381 2643 2742 
Q 2381 3103 1925 3103 
Q 1469 3103 1208 2742 
Q 947 2381 947 1747 
z
" transform="scale(0.015625)"/>
       <path id="DejaVuSans-65" d="M 3597 1894 
L 3597 1613 
L 953 1613 
Q 991 1019 1311 708 
Q 1631 397 2203 397 
Q 2534 397 2845 478 
Q 3156 559 3463 722 
L 3463 178 
Q 3153 47 2828 -22 
Q 2503 -91 2169 -91 
Q 1331 -91 842 396 
Q 353 884 353 1716 
Q 353 2575 817 3079 
Q 1281 3584 2069 3584 
Q 2775 3584 3186 3129 
Q 3597 2675 3597 1894 
z
M 3022 2063 
Q 3016 2534 2758 2815 
Q 2500 3097 2075 3097 
Q 1594 3097 1305 2825 
Q 1016 2553 972 2059 
L 3022 2063 
z
" transform="scale(0.015625)"/>
      </defs>
      <use xlink:href="#DejaVuSans-4f"/>
      <use xlink:href="#DejaVuSans-72" x="78.710938"/>
      <use xlink:href="#DejaVuSans-64" x="118.074219"/>
      <use xlink:href="#DejaVuSans-65" x="181.550781"/>
      <use xlink:href="#DejaVuSans-72" x="243.074219"/>
     </g>
    </g>
   </g>
   <g id="matplotlib.axis_2">
    <g id="ytick_1">
     <g id="line2d_21">
      <path d="M 74.46 248.54 
L 851.04 248.54 
" clip-path="url(#pe1fb64c396)" style="fill: none; stroke: #ffffff; stroke-linecap: round"/>
     </g>
     <g id="text_2">
      <!-- 0 -->
      <g style="fill: #262626" transform="translate(57.96125 252.719141)scale(0.11 -0.11)">
       <defs>
        <path id="DejaVuSans-30" d="M 2034 4250 
Q 1547 4250 1301 3770 
Q 1056 3291 1056 2328 
Q 1056 1369 1301 889 
Q 1547 409 2034 409 
Q 2525 409 2770 889 
Q 3016 1369 3016 2328 
Q 3016 3291 2770 3770 
Q 2525 4250 2034 4250 
z
M 2034 4750 
Q 2819 4750 3233 4129 
Q 3647 3509 3647 2328 
Q 3647 1150 3233 529 
Q 2819 -91 2034 -91 
Q 1250 -91 836 529 
Q 422 1150 422 2328 
Q 422 3509 836 4129 
Q 1250 4750 2034 4750 
z
" transform="scale(0.015625)"/>
       </defs>
       <use xlink:href="#DejaVuSans-30"/>
      </g>
     </g>
    </g>
    <g id="ytick_2">
     <g id="line2d_22">
      <path d="M 74.46 219.632338 
L 851.04 219.632338 
" clip-path="url(#pe1fb64c396)" style="fill: none; stroke: #ffffff; stroke-linecap: round"/>
     </g>
     <g id="text_3">
      <!-- 10000 -->
      <g style="fill: #262626" transform="translate(29.96625 223.811478)scale(0.11 -0.11)">
       <defs>
        <path id="DejaVuSans-31" d="M 794 531 
L 1825 531 
L 1825 4091 
L 703 3866 
L 703 4441 
L 1819 4666 
L 2450 4666 
L 2450 531 
L 3481 531 
L 3481 0 
L 794 0 
L 794 531 
z
" transform="scale(0.015625)"/>
       </defs>
       <use xlink:href="#DejaVuSans-31"/>
       <use xlink:href="#DejaVuSans-30" x="63.623047"/>
       <use xlink:href="#DejaVuSans-30" x="127.246094"/>
       <use xlink:href="#DejaVuSans-30" x="190.869141"/>
       <use xlink:href="#DejaVuSans-30" x="254.492188"/>
      </g>
     </g>
    </g>
    <g id="ytick_3">
     <g id="line2d_23">
      <path d="M 74.46 190.724676 
L 851.04 190.724676 
" clip-path="url(#pe1fb64c396)" style="fill: none; stroke: #ffffff; stroke-linecap: round"/>
     </g>
     <g id="text_4">
      <!-- 20000 -->
      <g style="fill: #262626" transform="translate(29.96625 194.903816)scale(0.11 -0.11)">
       <defs>
        <path id="DejaVuSans-32" d="M 1228 531 
L 3431 531 
L 3431 0 
L 469 0 
L 469 531 
Q 828 903 1448 1529 
Q 2069 2156 2228 2338 
Q 2531 2678 2651 2914 
Q 2772 3150 2772 3378 
Q 2772 3750 2511 3984 
Q 2250 4219 1831 4219 
Q 1534 4219 1204 4116 
Q 875 4013 500 3803 
L 500 4441 
Q 881 4594 1212 4672 
Q 1544 4750 1819 4750 
Q 2544 4750 2975 4387 
Q 3406 4025 3406 3419 
Q 3406 3131 3298 2873 
Q 3191 2616 2906 2266 
Q 2828 2175 2409 1742 
Q 1991 1309 1228 531 
z
" transform="scale(0.015625)"/>
       </defs>
       <use xlink:href="#DejaVuSans-32"/>
       <use xlink:href="#DejaVuSans-30" x="63.623047"/>
       <use xlink:href="#DejaVuSans-30" x="127.246094"/>
       <use xlink:href="#DejaVuSans-30" x="190.869141"/>
       <use xlink:href="#DejaVuSans-30" x="254.492188"/>
      </g>
     </g>
    </g>
    <g id="ytick_4">
     <g id="line2d_24">
      <path d="M 74.46 161.817014 
L 851.04 161.817014 
" clip-path="url(#pe1fb64c396)" style="fill: none; stroke: #ffffff; stroke-linecap: round"/>
     </g>
     <g id="text_5">
      <!-- 30000 -->
      <g style="fill: #262626" transform="translate(29.96625 165.996154)scale(0.11 -0.11)">
       <defs>
        <path id="DejaVuSans-33" d="M 2597 2516 
Q 3050 2419 3304 2112 
Q 3559 1806 3559 1356 
Q 3559 666 3084 287 
Q 2609 -91 1734 -91 
Q 1441 -91 1130 -33 
Q 819 25 488 141 
L 488 750 
Q 750 597 1062 519 
Q 1375 441 1716 441 
Q 2309 441 2620 675 
Q 2931 909 2931 1356 
Q 2931 1769 2642 2001 
Q 2353 2234 1838 2234 
L 1294 2234 
L 1294 2753 
L 1863 2753 
Q 2328 2753 2575 2939 
Q 2822 3125 2822 3475 
Q 2822 3834 2567 4026 
Q 2313 4219 1838 4219 
Q 1578 4219 1281 4162 
Q 984 4106 628 3988 
L 628 4550 
Q 988 4650 1302 4700 
Q 1616 4750 1894 4750 
Q 2613 4750 3031 4423 
Q 3450 4097 3450 3541 
Q 3450 3153 3228 2886 
Q 3006 2619 2597 2516 
z
" transform="scale(0.015625)"/>
       </defs>
       <use xlink:href="#DejaVuSans-33"/>
       <use xlink:href="#DejaVuSans-30" x="63.623047"/>
       <use xlink:href="#DejaVuSans-30" x="127.246094"/>
       <use xlink:href="#DejaVuSans-30" x="190.869141"/>
       <use xlink:href="#DejaVuSans-30" x="254.492188"/>
      </g>
     </g>
    </g>
    <g id="ytick_5">
     <g id="line2d_25">
      <path d="M 74.46 132.909351 
L 851.04 132.909351 
" clip-path="url(#pe1fb64c396)" style="fill: none; stroke: #ffffff; stroke-linecap: round"/>
     </g>
     <g id="text_6">
      <!-- 40000 -->
      <g style="fill: #262626" transform="translate(29.96625 137.088492)scale(0.11 -0.11)">
       <defs>
        <path id="DejaVuSans-34" d="M 2419 4116 
L 825 1625 
L 2419 1625 
L 2419 4116 
z
M 2253 4666 
L 3047 4666 
L 3047 1625 
L 3713 1625 
L 3713 1100 
L 3047 1100 
L 3047 0 
L 2419 0 
L 2419 1100 
L 313 1100 
L 313 1709 
L 2253 4666 
z
" transform="scale(0.015625)"/>
       </defs>
       <use xlink:href="#DejaVuSans-34"/>
       <use xlink:href="#DejaVuSans-30" x="63.623047"/>
       <use xlink:href="#DejaVuSans-30" x="127.246094"/>
       <use xlink:href="#DejaVuSans-30" x="190.869141"/>
       <use xlink:href="#DejaVuSans-30" x="254.492188"/>
      </g>
     </g>
    </g>
    <g id="ytick_6">
     <g id="line2d_26">
      <path d="M 74.46 104.001689 
L 851.04 104.001689 
" clip-path="url(#pe1fb64c396)" style="fill: none; stroke: #ffffff; stroke-linecap: round"/>
     </g>
     <g id="text_7">
      <!-- 50000 -->
      <g style="fill: #262626" transform="translate(29.96625 108.18083)scale(0.11 -0.11)">
       <defs>
        <path id="DejaVuSans-35" d="M 691 4666 
L 3169 4666 
L 3169 4134 
L 1269 4134 
L 1269 2991 
Q 1406 3038 1543 3061 
Q 1681 3084 1819 3084 
Q 2600 3084 3056 2656 
Q 3513 2228 3513 1497 
Q 3513 744 3044 326 
Q 2575 -91 1722 -91 
Q 1428 -91 1123 -41 
Q 819 9 494 109 
L 494 744 
Q 775 591 1075 516 
Q 1375 441 1709 441 
Q 2250 441 2565 725 
Q 2881 1009 2881 1497 
Q 2881 1984 2565 2268 
Q 2250 2553 1709 2553 
Q 1456 2553 1204 2497 
Q 953 2441 691 2322 
L 691 4666 
z
" transform="scale(0.015625)"/>
       </defs>
       <use xlink:href="#DejaVuSans-35"/>
       <use xlink:href="#DejaVuSans-30" x="63.623047"/>
       <use xlink:href="#DejaVuSans-30" x="127.246094"/>
       <use xlink:href="#DejaVuSans-30" x="190.869141"/>
       <use xlink:href="#DejaVuSans-30" x="254.492188"/>
      </g>
     </g>
    </g>
    <g id="ytick_7">
     <g id="line2d_27">
      <path d="M 74.46 75.094027 
L 851.04 75.094027 
" clip-path="url(#pe1fb64c396)" style="fill: none; stroke: #ffffff; stroke-linecap: round"/>
     </g>
     <g id="text_8">
      <!-- 60000 -->
      <g style="fill: #262626" transform="translate(29.96625 79.273168)scale(0.11 -0.11)">
       <defs>
        <path id="DejaVuSans-36" d="M 2113 2584 
Q 1688 2584 1439 2293 
Q 1191 2003 1191 1497 
Q 1191 994 1439 701 
Q 1688 409 2113 409 
Q 2538 409 2786 701 
Q 3034 994 3034 1497 
Q 3034 2003 2786 2293 
Q 2538 2584 2113 2584 
z
M 3366 4563 
L 3366 3988 
Q 3128 4100 2886 4159 
Q 2644 4219 2406 4219 
Q 1781 4219 1451 3797 
Q 1122 3375 1075 2522 
Q 1259 2794 1537 2939 
Q 1816 3084 2150 3084 
Q 2853 3084 3261 2657 
Q 3669 2231 3669 1497 
Q 3669 778 3244 343 
Q 2819 -91 2113 -91 
Q 1303 -91 875 529 
Q 447 1150 447 2328 
Q 447 3434 972 4092 
Q 1497 4750 2381 4750 
Q 2619 4750 2861 4703 
Q 3103 4656 3366 4563 
z
" transform="scale(0.015625)"/>
       </defs>
       <use xlink:href="#DejaVuSans-36"/>
       <use xlink:href="#DejaVuSans-30" x="63.623047"/>
       <use xlink:href="#DejaVuSans-30" x="127.246094"/>
       <use xlink:href="#DejaVuSans-30" x="190.869141"/>
       <use xlink:href="#DejaVuSans-30" x="254.492188"/>
      </g>
     </g>
    </g>
    <g id="ytick_8">
     <g id="line2d_28">
      <path d="M 74.46 46.186365 
L 851.04 46.186365 
" clip-path="url(#pe1fb64c396)" style="fill: none; stroke: #ffffff; stroke-linecap: round"/>
     </g>
     <g id="text_9">
      <!-- 70000 -->
      <g style="fill: #262626" transform="translate(29.96625 50.365506)scale(0.11 -0.11)">
       <defs>
        <path id="DejaVuSans-37" d="M 525 4666 
L 3525 4666 
L 3525 4397 
L 1831 0 
L 1172 0 
L 2766 4134 
L 525 4134 
L 525 4666 
z
" transform="scale(0.015625)"/>
       </defs>
       <use xlink:href="#DejaVuSans-37"/>
       <use xlink:href="#DejaVuSans-30" x="63.623047"/>
       <use xlink:href="#DejaVuSans-30" x="127.246094"/>
       <use xlink:href="#DejaVuSans-30" x="190.869141"/>
       <use xlink:href="#DejaVuSans-30" x="254.492188"/>
      </g>
     </g>
    </g>
    <g id="text_10">
     <!-- Abundances -->
     <g style="fill: #262626" transform="translate(23.470625 175.673438)rotate(-90)scale(0.12 -0.12)">
      <defs>
       <path id="DejaVuSans-41" d="M 2188 4044 
L 1331 1722 
L 3047 1722 
L 2188 4044 
z
M 1831 4666 
L 2547 4666 
L 4325 0 
L 3669 0 
L 3244 1197 
L 1141 1197 
L 716 0 
L 50 0 
L 1831 4666 
z
" transform="scale(0.015625)"/>
       <path id="DejaVuSans-62" d="M 3116 1747 
Q 3116 2381 2855 2742 
Q 2594 3103 2138 3103 
Q 1681 3103 1420 2742 
Q 1159 2381 1159 1747 
Q 1159 1113 1420 752 
Q 1681 391 2138 391 
Q 2594 391 2855 752 
Q 3116 1113 3116 1747 
z
M 1159 2969 
Q 1341 3281 1617 3432 
Q 1894 3584 2278 3584 
Q 2916 3584 3314 3078 
Q 3713 2572 3713 1747 
Q 3713 922 3314 415 
Q 2916 -91 2278 -91 
Q 1894 -91 1617 61 
Q 1341 213 1159 525 
L 1159 0 
L 581 0 
L 581 4863 
L 1159 4863 
L 1159 2969 
z
" transform="scale(0.015625)"/>
       <path id="DejaVuSans-75" d="M 544 1381 
L 544 3500 
L 1119 3500 
L 1119 1403 
Q 1119 906 1312 657 
Q 1506 409 1894 409 
Q 2359 409 2629 706 
Q 2900 1003 2900 1516 
L 2900 3500 
L 3475 3500 
L 3475 0 
L 2900 0 
L 2900 538 
Q 2691 219 2414 64 
Q 2138 -91 1772 -91 
Q 1169 -91 856 284 
Q 544 659 544 1381 
z
M 1991 3584 
L 1991 3584 
z
" transform="scale(0.015625)"/>
       <path id="DejaVuSans-6e" d="M 3513 2113 
L 3513 0 
L 2938 0 
L 2938 2094 
Q 2938 2591 2744 2837 
Q 2550 3084 2163 3084 
Q 1697 3084 1428 2787 
Q 1159 2491 1159 1978 
L 1159 0 
L 581 0 
L 581 3500 
L 1159 3500 
L 1159 2956 
Q 1366 3272 1645 3428 
Q 1925 3584 2291 3584 
Q 2894 3584 3203 3211 
Q 3513 2838 3513 2113 
z
" transform="scale(0.015625)"/>
       <path id="DejaVuSans-61" d="M 2194 1759 
Q 1497 1759 1228 1600 
Q 959 1441 959 1056 
Q 959 750 1161 570 
Q 1363 391 1709 391 
Q 2188 391 2477 730 
Q 2766 1069 2766 1631 
L 2766 1759 
L 2194 1759 
z
M 3341 1997 
L 3341 0 
L 2766 0 
L 2766 531 
Q 2569 213 2275 61 
Q 1981 -91 1556 -91 
Q 1019 -91 701 211 
Q 384 513 384 1019 
Q 384 1609 779 1909 
Q 1175 2209 1959 2209 
L 2766 2209 
L 2766 2266 
Q 2766 2663 2505 2880 
Q 2244 3097 1772 3097 
Q 1472 3097 1187 3025 
Q 903 2953 641 2809 
L 641 3341 
Q 956 3463 1253 3523 
Q 1550 3584 1831 3584 
Q 2591 3584 2966 3190 
Q 3341 2797 3341 1997 
z
" transform="scale(0.015625)"/>
       <path id="DejaVuSans-63" d="M 3122 3366 
L 3122 2828 
Q 2878 2963 2633 3030 
Q 2388 3097 2138 3097 
Q 1578 3097 1268 2742 
Q 959 2388 959 1747 
Q 959 1106 1268 751 
Q 1578 397 2138 397 
Q 2388 397 2633 464 
Q 2878 531 3122 666 
L 3122 134 
Q 2881 22 2623 -34 
Q 2366 -91 2075 -91 
Q 1284 -91 818 406 
Q 353 903 353 1747 
Q 353 2603 823 3093 
Q 1294 3584 2113 3584 
Q 2378 3584 2631 3529 
Q 2884 3475 3122 3366 
z
" transform="scale(0.015625)"/>
       <path id="DejaVuSans-73" d="M 2834 3397 
L 2834 2853 
Q 2591 2978 2328 3040 
Q 2066 3103 1784 3103 
Q 1356 3103 1142 2972 
Q 928 2841 928 2578 
Q 928 2378 1081 2264 
Q 1234 2150 1697 2047 
L 1894 2003 
Q 2506 1872 2764 1633 
Q 3022 1394 3022 966 
Q 3022 478 2636 193 
Q 2250 -91 1575 -91 
Q 1294 -91 989 -36 
Q 684 19 347 128 
L 347 722 
Q 666 556 975 473 
Q 1284 391 1588 391 
Q 1994 391 2212 530 
Q 2431 669 2431 922 
Q 2431 1156 2273 1281 
Q 2116 1406 1581 1522 
L 1381 1569 
Q 847 1681 609 1914 
Q 372 2147 372 2553 
Q 372 3047 722 3315 
Q 1072 3584 1716 3584 
Q 2034 3584 2315 3537 
Q 2597 3491 2834 3397 
z
" transform="scale(0.015625)"/>
      </defs>
      <use xlink:href="#DejaVuSans-41"/>
      <use xlink:href="#DejaVuSans-62" x="68.408203"/>
      <use xlink:href="#DejaVuSans-75" x="131.884766"/>
      <use xlink:href="#DejaVuSans-6e" x="195.263672"/>
      <use xlink:href="#DejaVuSans-64" x="258.642578"/>
      <use xlink:href="#DejaVuSans-61" x="322.119141"/>
      <use xlink:href="#DejaVuSans-6e" x="383.398438"/>
      <use xlink:href="#DejaVuSans-63" x="446.777344"/>
      <use xlink:href="#DejaVuSans-65" x="501.757812"/>
      <use xlink:href="#DejaVuSans-73" x="563.28125"/>
     </g>
    </g>
   </g>
   <g id="patch_3">
    <path d="M 84.16725 248.54 
L 103.58175 248.54 
L 103.58175 112.182558 
L 84.16725 112.182558 
z
" clip-path="url(#pe1fb64c396)" style="fill: #4c72b0; stroke: #ffffff; stroke-linejoin: miter"/>
   </g>
   <g id="patch_4">
    <path d="M 122.99625 248.54 
L 142.41075 248.54 
L 142.41075 112.182558 
L 122.99625 112.182558 
z
" clip-path="url(#pe1fb64c396)" style="fill: #4c72b0; stroke: #ffffff; stroke-linejoin: miter"/>
   </g>
   <g id="patch_5">
    <path d="M 161.82525 248.54 
L 181.23975 248.54 
L 181.23975 112.182558 
L 161.82525 112.182558 
z
" clip-path="url(#pe1fb64c396)" style="fill: #4c72b0; stroke: #ffffff; stroke-linejoin: miter"/>
   </g>
   <g id="patch_6">
    <path d="M 200.65425 248.54 
L 220.06875 248.54 
L 220.06875 172.466596 
L 200.65425 172.466596 
z
" clip-path="url(#pe1fb64c396)" style="fill: #4c72b0; stroke: #ffffff; stroke-linejoin: miter"/>
   </g>
   <g id="patch_7">
    <path d="M 239.48325 248.54 
L 258.89775 248.54 
L 258.89775 172.466596 
L 239.48325 172.466596 
z
" clip-path="url(#pe1fb64c396)" style="fill: #4c72b0; stroke: #ffffff; stroke-linejoin: miter"/>
   </g>
   <g id="patch_8">
    <path d="M 278.31225 248.54 
L 297.72675 248.54 
L 297.72675 172.466596 
L 278.31225 172.466596 
z
" clip-path="url(#pe1fb64c396)" style="fill: #4c72b0; stroke: #ffffff; stroke-linejoin: miter"/>
   </g>
   <g id="patch_9">
    <path d="M 317.14125 248.54 
L 336.55575 248.54 
L 336.55575 223.095476 
L 317.14125 223.095476 
z
" clip-path="url(#pe1fb64c396)" style="fill: #4c72b0; stroke: #ffffff; stroke-linejoin: miter"/>
   </g>
   <g id="patch_10">
    <path d="M 355.97025 248.54 
L 375.38475 248.54 
L 375.38475 223.095476 
L 355.97025 223.095476 
z
" clip-path="url(#pe1fb64c396)" style="fill: #4c72b0; stroke: #ffffff; stroke-linejoin: miter"/>
   </g>
   <g id="patch_11">
    <path d="M 394.79925 248.54 
L 414.21375 248.54 
L 414.21375 223.095476 
L 394.79925 223.095476 
z
" clip-path="url(#pe1fb64c396)" style="fill: #4c72b0; stroke: #ffffff; stroke-linejoin: miter"/>
   </g>
   <g id="patch_12">
    <path d="M 433.62825 248.54 
L 453.04275 248.54 
L 453.04275 243.163175 
L 433.62825 243.163175 
z
" clip-path="url(#pe1fb64c396)" style="fill: #4c72b0; stroke: #ffffff; stroke-linejoin: miter"/>
   </g>
   <g id="patch_13">
    <path d="M 472.45725 248.54 
L 491.87175 248.54 
L 491.87175 243.163175 
L 472.45725 243.163175 
z
" clip-path="url(#pe1fb64c396)" style="fill: #4c72b0; stroke: #ffffff; stroke-linejoin: miter"/>
   </g>
   <g id="patch_14">
    <path d="M 511.28625 248.54 
L 530.70075 248.54 
L 530.70075 243.163175 
L 511.28625 243.163175 
z
" clip-path="url(#pe1fb64c396)" style="fill: #4c72b0; stroke: #ffffff; stroke-linejoin: miter"/>
   </g>
   <g id="patch_15">
    <path d="M 550.11525 248.54 
L 569.52975 248.54 
L 569.52975 112.182558 
L 550.11525 112.182558 
z
" clip-path="url(#pe1fb64c396)" style="fill: #4c72b0; stroke: #ffffff; stroke-linejoin: miter"/>
   </g>
   <g id="patch_16">
    <path d="M 588.94425 248.54 
L 608.35875 248.54 
L 608.35875 112.182558 
L 588.94425 112.182558 
z
" clip-path="url(#pe1fb64c396)" style="fill: #4c72b0; stroke: #ffffff; stroke-linejoin: miter"/>
   </g>
   <g id="patch_17">
    <path d="M 627.77325 248.54 
L 647.18775 248.54 
L 647.18775 112.182558 
L 627.77325 112.182558 
z
" clip-path="url(#pe1fb64c396)" style="fill: #4c72b0; stroke: #ffffff; stroke-linejoin: miter"/>
   </g>
   <g id="patch_18">
    <path d="M 666.60225 248.54 
L 686.01675 248.54 
L 686.01675 172.466596 
L 666.60225 172.466596 
z
" clip-path="url(#pe1fb64c396)" style="fill: #4c72b0; stroke: #ffffff; stroke-linejoin: miter"/>
   </g>
   <g id="patch_19">
    <path d="M 705.43125 248.54 
L 724.84575 248.54 
L 724.84575 172.466596 
L 705.43125 172.466596 
z
" clip-path="url(#pe1fb64c396)" style="fill: #4c72b0; stroke: #ffffff; stroke-linejoin: miter"/>
   </g>
   <g id="patch_20">
    <path d="M 744.26025 248.54 
L 763.67475 248.54 
L 763.67475 172.466596 
L 744.26025 172.466596 
z
" clip-path="url(#pe1fb64c396)" style="fill: #4c72b0; stroke: #ffffff; stroke-linejoin: miter"/>
   </g>
   <g id="patch_21">
    <path d="M 783.08925 248.54 
L 802.50375 248.54 
L 802.50375 223.095476 
L 783.08925 223.095476 
z
" clip-path="url(#pe1fb64c396)" style="fill: #4c72b0; stroke: #ffffff; stroke-linejoin: miter"/>
   </g>
   <g id="patch_22">
    <path d="M 821.91825 248.54 
L 841.33275 248.54 
L 841.33275 223.095476 
L 821.91825 223.095476 
z
" clip-path="url(#pe1fb64c396)" style="fill: #4c72b0; stroke: #ffffff; stroke-linejoin: miter"/>
   </g>
   <g id="patch_23">
    <path d="M 84.16725 112.182558 
L 103.58175 112.182558 
L 103.58175 39.41619 
L 84.16725 39.41619 
z
" clip-path="url(#pe1fb64c396)" style="fill: #dd8452; stroke: #ffffff; stroke-linejoin: miter"/>
   </g>
   <g id="patch_24">
    <path d="M 122.99625 112.182558 
L 142.41075 112.182558 
L 142.41075 108.942009 
L 122.99625 108.942009 
z
" clip-path="url(#pe1fb64c396)" style="fill: #dd8452; stroke: #ffffff; stroke-linejoin: miter"/>
   </g>
   <g id="patch_25">
    <path d="M 161.82525 112.182558 
L 181.23975 112.182558 
L 181.23975 112.113179 
L 161.82525 112.113179 
z
" clip-path="url(#pe1fb64c396)" style="fill: #dd8452; stroke: #ffffff; stroke-linejoin: miter"/>
   </g>
   <g id="patch_26">
    <path d="M 200.65425 172.466596 
L 220.06875 172.466596 
L 220.06875 99.700229 
L 200.65425 99.700229 
z
" clip-path="url(#pe1fb64c396)" style="fill: #dd8452; stroke: #ffffff; stroke-linejoin: miter"/>
   </g>
   <g id="patch_27">
    <path d="M 239.48325 172.466596 
L 258.89775 172.466596 
L 258.89775 169.226047 
L 239.48325 169.226047 
z
" clip-path="url(#pe1fb64c396)" style="fill: #dd8452; stroke: #ffffff; stroke-linejoin: miter"/>
   </g>
   <g id="patch_28">
    <path d="M 278.31225 172.466596 
L 297.72675 172.466596 
L 297.72675 172.397218 
L 278.31225 172.397218 
z
" clip-path="url(#pe1fb64c396)" style="fill: #dd8452; stroke: #ffffff; stroke-linejoin: miter"/>
   </g>
   <g id="patch_29">
    <path d="M 317.14125 223.095476 
L 336.55575 223.095476 
L 336.55575 150.329109 
L 317.14125 150.329109 
z
" clip-path="url(#pe1fb64c396)" style="fill: #dd8452; stroke: #ffffff; stroke-linejoin: miter"/>
   </g>
   <g id="patch_30">
    <path d="M 355.97025 223.095476 
L 375.38475 223.095476 
L 375.38475 219.854927 
L 355.97025 219.854927 
z
" clip-path="url(#pe1fb64c396)" style="fill: #dd8452; stroke: #ffffff; stroke-linejoin: miter"/>
   </g>
   <g id="patch_31">
    <path d="M 394.79925 223.095476 
L 414.21375 223.095476 
L 414.21375 223.026097 
L 394.79925 223.026097 
z
" clip-path="url(#pe1fb64c396)" style="fill: #dd8452; stroke: #ffffff; stroke-linejoin: miter"/>
   </g>
   <g id="patch_32">
    <path d="M 433.62825 243.163175 
L 453.04275 243.163175 
L 453.04275 170.396808 
L 433.62825 170.396808 
z
" clip-path="url(#pe1fb64c396)" style="fill: #dd8452; stroke: #ffffff; stroke-linejoin: miter"/>
   </g>
   <g id="patch_33">
    <path d="M 472.45725 243.163175 
L 491.87175 243.163175 
L 491.87175 239.922626 
L 472.45725 239.922626 
z
" clip-path="url(#pe1fb64c396)" style="fill: #dd8452; stroke: #ffffff; stroke-linejoin: miter"/>
   </g>
   <g id="patch_34">
    <path d="M 511.28625 243.163175 
L 530.70075 243.163175 
L 530.70075 243.093796 
L 511.28625 243.093796 
z
" clip-path="url(#pe1fb64c396)" style="fill: #dd8452; stroke: #ffffff; stroke-linejoin: miter"/>
   </g>
   <g id="patch_35">
    <path d="M 550.11525 112.182558 
L 569.52975 112.182558 
L 569.52975 39.41619 
L 550.11525 39.41619 
z
" clip-path="url(#pe1fb64c396)" style="fill: #dd8452; stroke: #ffffff; stroke-linejoin: miter"/>
   </g>
   <g id="patch_36">
    <path d="M 588.94425 112.182558 
L 608.35875 112.182558 
L 608.35875 108.942009 
L 588.94425 108.942009 
z
" clip-path="url(#pe1fb64c396)" style="fill: #dd8452; stroke: #ffffff; stroke-linejoin: miter"/>
   </g>
   <g id="patch_37">
    <path d="M 627.77325 112.182558 
L 647.18775 112.182558 
L 647.18775 112.113179 
L 627.77325 112.113179 
z
" clip-path="url(#pe1fb64c396)" style="fill: #dd8452; stroke: #ffffff; stroke-linejoin: miter"/>
   </g>
   <g id="patch_38">
    <path d="M 666.60225 172.466596 
L 686.01675 172.466596 
L 686.01675 99.700229 
L 666.60225 99.700229 
z
" clip-path="url(#pe1fb64c396)" style="fill: #dd8452; stroke: #ffffff; stroke-linejoin: miter"/>
   </g>
   <g id="patch_39">
    <path d="M 705.43125 172.466596 
L 724.84575 172.466596 
L 724.84575 169.226047 
L 705.43125 169.226047 
z
" clip-path="url(#pe1fb64c396)" style="fill: #dd8452; stroke: #ffffff; stroke-linejoin: miter"/>
   </g>
   <g id="patch_40">
    <path d="M 744.26025 172.466596 
L 763.67475 172.466596 
L 763.67475 172.397218 
L 744.26025 172.397218 
z
" clip-path="url(#pe1fb64c396)" style="fill: #dd8452; stroke: #ffffff; stroke-linejoin: miter"/>
   </g>
   <g id="patch_41">
    <path d="M 783.08925 223.095476 
L 802.50375 223.095476 
L 802.50375 150.329109 
L 783.08925 150.329109 
z
" clip-path="url(#pe1fb64c396)" style="fill: #dd8452; stroke: #ffffff; stroke-linejoin: miter"/>
   </g>
   <g id="patch_42">
    <path d="M 821.91825 223.095476 
L 841.33275 223.095476 
L 841.33275 219.854927 
L 821.91825 219.854927 
z
" clip-path="url(#pe1fb64c396)" style="fill: #dd8452; stroke: #ffffff; stroke-linejoin: miter"/>
   </g>
   <g id="patch_43">
    <path d="M 74.46 248.54 
L 74.46 28.96 
" style="fill: none; stroke: #ffffff; stroke-width: 1.25; stroke-linejoin: miter; stroke-linecap: square"/>
   </g>
   <g id="patch_44">
    <path d="M 851.04 248.54 
L 851.04 28.96 
" style="fill: none; stroke: #ffffff; stroke-width: 1.25; stroke-linejoin: miter; stroke-linecap: square"/>
   </g>
   <g id="patch_45">
    <path d="M 74.46 248.54 
L 851.04 248.54 
" style="fill: none; stroke: #ffffff; stroke-width: 1.25; stroke-linejoin: miter; stroke-linecap: square"/>
   </g>
   <g id="patch_46">
    <path d="M 74.46 28.96 
L 851.04 28.96 
" style="fill: none; stroke: #ffffff; stroke-width: 1.25; stroke-linejoin: miter; stroke-linecap: square"/>
   </g>
   <g id="text_11">
    <!-- Top 20 Order abundances rank for groups 0x1 - Sorted by total -->
    <g style="fill: #262626" transform="translate(274.01625 22.96)scale(0.12 -0.12)">
     <defs>
      <path id="DejaVuSans-54" d="M -19 4666 
L 3928 4666 
L 3928 4134 
L 2272 4134 
L 2272 0 
L 1638 0 
L 1638 4134 
L -19 4134 
L -19 4666 
z
" transform="scale(0.015625)"/>
      <path id="DejaVuSans-6f" d="M 1959 3097 
Q 1497 3097 1228 2736 
Q 959 2375 959 1747 
Q 959 1119 1226 758 
Q 1494 397 1959 397 
Q 2419 397 2687 759 
Q 2956 1122 2956 1747 
Q 2956 2369 2687 2733 
Q 2419 3097 1959 3097 
z
M 1959 3584 
Q 2709 3584 3137 3096 
Q 3566 2609 3566 1747 
Q 3566 888 3137 398 
Q 2709 -91 1959 -91 
Q 1206 -91 779 398 
Q 353 888 353 1747 
Q 353 2609 779 3096 
Q 1206 3584 1959 3584 
z
" transform="scale(0.015625)"/>
      <path id="DejaVuSans-70" d="M 1159 525 
L 1159 -1331 
L 581 -1331 
L 581 3500 
L 1159 3500 
L 1159 2969 
Q 1341 3281 1617 3432 
Q 1894 3584 2278 3584 
Q 2916 3584 3314 3078 
Q 3713 2572 3713 1747 
Q 3713 922 3314 415 
Q 2916 -91 2278 -91 
Q 1894 -91 1617 61 
Q 1341 213 1159 525 
z
M 3116 1747 
Q 3116 2381 2855 2742 
Q 2594 3103 2138 3103 
Q 1681 3103 1420 2742 
Q 1159 2381 1159 1747 
Q 1159 1113 1420 752 
Q 1681 391 2138 391 
Q 2594 391 2855 752 
Q 3116 1113 3116 1747 
z
" transform="scale(0.015625)"/>
      <path id="DejaVuSans-20" transform="scale(0.015625)"/>
      <path id="DejaVuSans-6b" d="M 581 4863 
L 1159 4863 
L 1159 1991 
L 2875 3500 
L 3609 3500 
L 1753 1863 
L 3688 0 
L 2938 0 
L 1159 1709 
L 1159 0 
L 581 0 
L 581 4863 
z
" transform="scale(0.015625)"/>
      <path id="DejaVuSans-66" d="M 2375 4863 
L 2375 4384 
L 1825 4384 
Q 1516 4384 1395 4259 
Q 1275 4134 1275 3809 
L 1275 3500 
L 2222 3500 
L 2222 3053 
L 1275 3053 
L 1275 0 
L 697 0 
L 697 3053 
L 147 3053 
L 147 3500 
L 697 3500 
L 697 3744 
Q 697 4328 969 4595 
Q 1241 4863 1831 4863 
L 2375 4863 
z
" transform="scale(0.015625)"/>
      <path id="DejaVuSans-67" d="M 2906 1791 
Q 2906 2416 2648 2759 
Q 2391 3103 1925 3103 
Q 1463 3103 1205 2759 
Q 947 2416 947 1791 
Q 947 1169 1205 825 
Q 1463 481 1925 481 
Q 2391 481 2648 825 
Q 2906 1169 2906 1791 
z
M 3481 434 
Q 3481 -459 3084 -895 
Q 2688 -1331 1869 -1331 
Q 1566 -1331 1297 -1286 
Q 1028 -1241 775 -1147 
L 775 -588 
Q 1028 -725 1275 -790 
Q 1522 -856 1778 -856 
Q 2344 -856 2625 -561 
Q 2906 -266 2906 331 
L 2906 616 
Q 2728 306 2450 153 
Q 2172 0 1784 0 
Q 1141 0 747 490 
Q 353 981 353 1791 
Q 353 2603 747 3093 
Q 1141 3584 1784 3584 
Q 2172 3584 2450 3431 
Q 2728 3278 2906 2969 
L 2906 3500 
L 3481 3500 
L 3481 434 
z
" transform="scale(0.015625)"/>
      <path id="DejaVuSans-78" d="M 3513 3500 
L 2247 1797 
L 3578 0 
L 2900 0 
L 1881 1375 
L 863 0 
L 184 0 
L 1544 1831 
L 300 3500 
L 978 3500 
L 1906 2253 
L 2834 3500 
L 3513 3500 
z
" transform="scale(0.015625)"/>
      <path id="DejaVuSans-2d" d="M 313 2009 
L 1997 2009 
L 1997 1497 
L 313 1497 
L 313 2009 
z
" transform="scale(0.015625)"/>
      <path id="DejaVuSans-53" d="M 3425 4513 
L 3425 3897 
Q 3066 4069 2747 4153 
Q 2428 4238 2131 4238 
Q 1616 4238 1336 4038 
Q 1056 3838 1056 3469 
Q 1056 3159 1242 3001 
Q 1428 2844 1947 2747 
L 2328 2669 
Q 3034 2534 3370 2195 
Q 3706 1856 3706 1288 
Q 3706 609 3251 259 
Q 2797 -91 1919 -91 
Q 1588 -91 1214 -16 
Q 841 59 441 206 
L 441 856 
Q 825 641 1194 531 
Q 1563 422 1919 422 
Q 2459 422 2753 634 
Q 3047 847 3047 1241 
Q 3047 1584 2836 1778 
Q 2625 1972 2144 2069 
L 1759 2144 
Q 1053 2284 737 2584 
Q 422 2884 422 3419 
Q 422 4038 858 4394 
Q 1294 4750 2059 4750 
Q 2388 4750 2728 4690 
Q 3069 4631 3425 4513 
z
" transform="scale(0.015625)"/>
      <path id="DejaVuSans-74" d="M 1172 4494 
L 1172 3500 
L 2356 3500 
L 2356 3053 
L 1172 3053 
L 1172 1153 
Q 1172 725 1289 603 
Q 1406 481 1766 481 
L 2356 481 
L 2356 0 
L 1766 0 
Q 1100 0 847 248 
Q 594 497 594 1153 
L 594 3053 
L 172 3053 
L 172 3500 
L 594 3500 
L 594 4494 
L 1172 4494 
z
" transform="scale(0.015625)"/>
      <path id="DejaVuSans-79" d="M 2059 -325 
Q 1816 -950 1584 -1140 
Q 1353 -1331 966 -1331 
L 506 -1331 
L 506 -850 
L 844 -850 
Q 1081 -850 1212 -737 
Q 1344 -625 1503 -206 
L 1606 56 
L 191 3500 
L 800 3500 
L 1894 763 
L 2988 3500 
L 3597 3500 
L 2059 -325 
z
" transform="scale(0.015625)"/>
      <path id="DejaVuSans-6c" d="M 603 4863 
L 1178 4863 
L 1178 0 
L 603 0 
L 603 4863 
z
" transform="scale(0.015625)"/>
     </defs>
     <use xlink:href="#DejaVuSans-54"/>
     <use xlink:href="#DejaVuSans-6f" x="44.083984"/>
     <use xlink:href="#DejaVuSans-70" x="105.265625"/>
     <use xlink:href="#DejaVuSans-20" x="168.742188"/>
     <use xlink:href="#DejaVuSans-32" x="200.529297"/>
     <use xlink:href="#DejaVuSans-30" x="264.152344"/>
     <use xlink:href="#DejaVuSans-20" x="327.775391"/>
     <use xlink:href="#DejaVuSans-4f" x="359.5625"/>
     <use xlink:href="#DejaVuSans-72" x="438.273438"/>
     <use xlink:href="#DejaVuSans-64" x="477.636719"/>
     <use xlink:href="#DejaVuSans-65" x="541.113281"/>
     <use xlink:href="#DejaVuSans-72" x="602.636719"/>
     <use xlink:href="#DejaVuSans-20" x="643.75"/>
     <use xlink:href="#DejaVuSans-61" x="675.537109"/>
     <use xlink:href="#DejaVuSans-62" x="736.816406"/>
     <use xlink:href="#DejaVuSans-75" x="800.292969"/>
     <use xlink:href="#DejaVuSans-6e" x="863.671875"/>
     <use xlink:href="#DejaVuSans-64" x="927.050781"/>
     <use xlink:href="#DejaVuSans-61" x="990.527344"/>
     <use xlink:href="#DejaVuSans-6e" x="1051.806641"/>
     <use xlink:href="#DejaVuSans-63" x="1115.185547"/>
     <use xlink:href="#DejaVuSans-65" x="1170.166016"/>
     <use xlink:href="#DejaVuSans-73" x="1231.689453"/>
     <use xlink:href="#DejaVuSans-20" x="1283.789062"/>
     <use xlink:href="#DejaVuSans-72" x="1315.576172"/>
     <use xlink:href="#DejaVuSans-61" x="1356.689453"/>
     <use xlink:href="#DejaVuSans-6e" x="1417.96875"/>
     <use xlink:href="#DejaVuSans-6b" x="1481.347656"/>
     <use xlink:href="#DejaVuSans-20" x="1539.257812"/>
     <use xlink:href="#DejaVuSans-66" x="1571.044922"/>
     <use xlink:href="#DejaVuSans-6f" x="1606.25"/>
     <use xlink:href="#DejaVuSans-72" x="1667.431641"/>
     <use xlink:href="#DejaVuSans-20" x="1708.544922"/>
     <use xlink:href="#DejaVuSans-67" x="1740.332031"/>
     <use xlink:href="#DejaVuSans-72" x="1803.808594"/>
     <use xlink:href="#DejaVuSans-6f" x="1842.671875"/>
     <use xlink:href="#DejaVuSans-75" x="1903.853516"/>
     <use xlink:href="#DejaVuSans-70" x="1967.232422"/>
     <use xlink:href="#DejaVuSans-73" x="2030.708984"/>
     <use xlink:href="#DejaVuSans-20" x="2082.808594"/>
     <use xlink:href="#DejaVuSans-30" x="2114.595703"/>
     <use xlink:href="#DejaVuSans-78" x="2178.21875"/>
     <use xlink:href="#DejaVuSans-31" x="2237.398438"/>
     <use xlink:href="#DejaVuSans-20" x="2301.021484"/>
     <use xlink:href="#DejaVuSans-2d" x="2332.808594"/>
     <use xlink:href="#DejaVuSans-20" x="2368.892578"/>
     <use xlink:href="#DejaVuSans-53" x="2400.679688"/>
     <use xlink:href="#DejaVuSans-6f" x="2464.15625"/>
     <use xlink:href="#DejaVuSans-72" x="2525.337891"/>
     <use xlink:href="#DejaVuSans-74" x="2566.451172"/>
     <use xlink:href="#DejaVuSans-65" x="2605.660156"/>
     <use xlink:href="#DejaVuSans-64" x="2667.183594"/>
     <use xlink:href="#DejaVuSans-20" x="2730.660156"/>
     <use xlink:href="#DejaVuSans-62" x="2762.447266"/>
     <use xlink:href="#DejaVuSans-79" x="2825.923828"/>
     <use xlink:href="#DejaVuSans-20" x="2885.103516"/>
     <use xlink:href="#DejaVuSans-74" x="2916.890625"/>
     <use xlink:href="#DejaVuSans-6f" x="2956.099609"/>
     <use xlink:href="#DejaVuSans-74" x="3017.28125"/>
     <use xlink:href="#DejaVuSans-61" x="3056.490234"/>
     <use xlink:href="#DejaVuSans-6c" x="3117.769531"/>
    </g>
   </g>
   <g id="legend_1">
    <g id="patch_47">
     <path d="M 801.14125 70.051875 
L 843.34 70.051875 
Q 845.54 70.051875 845.54 67.851875 
L 845.54 36.66 
Q 845.54 34.46 843.34 34.46 
L 801.14125 34.46 
Q 798.94125 34.46 798.94125 36.66 
L 798.94125 67.851875 
Q 798.94125 70.051875 801.14125 70.051875 
z
" style="fill: #eaeaf2; opacity: 0.8; stroke: #cccccc; stroke-linejoin: miter"/>
    </g>
    <g id="patch_48">
     <path d="M 803.34125 47.218281 
L 825.34125 47.218281 
L 825.34125 39.518281 
L 803.34125 39.518281 
z
" style="fill: #4c72b0; stroke: #ffffff; stroke-linejoin: miter"/>
    </g>
    <g id="text_12">
     <!-- 0 -->
     <g style="fill: #262626" transform="translate(834.14125 47.218281)scale(0.11 -0.11)">
      <use xlink:href="#DejaVuSans-30"/>
     </g>
    </g>
    <g id="patch_49">
     <path d="M 803.34125 63.364219 
L 825.34125 63.364219 
L 825.34125 55.664219 
L 803.34125 55.664219 
z
" style="fill: #dd8452; stroke: #ffffff; stroke-linejoin: miter"/>
    </g>
    <g id="text_13">
     <!-- 1 -->
     <g style="fill: #262626" transform="translate(834.14125 63.364219)scale(0.11 -0.11)">
      <use xlink:href="#DejaVuSans-31"/>
     </g>
    </g>
   </g>
  </g>
 </g>
 <defs>
  <clipPath id="pe1fb64c396">
   <rect x="74.46" y="28.96" width="776.58" height="219.58"/>
  </clipPath>
 </defs>
</svg>
