<svg xmlns="http://www.w3.org/2000/svg" xmlns:xlink="http://www.w3.org/1999/xlink" version="1.1" class="marks" width="2013.0839169575888" height="1454.8247421762965" viewBox="0 0 1006.5419584787944 727.4123710881482"><rect width="1006.5419584787944" height="727.4123710881482" fill="#ffffff"/><g fill="none" stroke-miterlimit="10" transform="translate(47,27)"><g class="mark-group role-frame root" role="graphics-object" aria-roledescription="group mark container"><g transform="translate(0,0)"><path class="background" aria-hidden="true" d="M0,0h949.5419584787944v663.4123710881482h-949.5419584787944Z"/><g><g class="mark-group role-axis" role="graphics-symbol" aria-roledescription="axis" aria-label="X-axis titled 'PC3 (3.345 %)' for a linear scale with values from −0.5 to 0.7"><g transform="translate(0.5,663.9123710881482)"><path class="background" aria-hidden="true" d="M0,0h0v0h0Z" pointer-events="none"/><g><g class="mark-rule role-axis-tick" pointer-events="none"><line transform="translate(74,0)" x2="0" y2="5" stroke="#888" stroke-width="1" opacity="1"/><line transform="translate(154,0)" x2="0" y2="5" stroke="#888" stroke-width="1" opacity="1"/><line transform="translate(234,0)" x2="0" y2="5" stroke="#888" stroke-width="1" opacity="1"/><line transform="translate(314,0)" x2="0" y2="5" stroke="#888" stroke-width="1" opacity="1"/><line transform="translate(394,0)" x2="0" y2="5" stroke="#888" stroke-width="1" opacity="1"/><line transform="translate(474,0)" x2="0" y2="5" stroke="#888" stroke-width="1" opacity="1"/><line transform="translate(554,0)" x2="0" y2="5" stroke="#888" stroke-width="1" opacity="1"/><line transform="translate(634,0)" x2="0" y2="5" stroke="#888" stroke-width="1" opacity="1"/><line transform="translate(714,0)" x2="0" y2="5" stroke="#888" stroke-width="1" opacity="1"/><line transform="translate(794,0)" x2="0" y2="5" stroke="#888" stroke-width="1" opacity="1"/><line transform="translate(874,0)" x2="0" y2="5" stroke="#888" stroke-width="1" opacity="1"/></g><g class="mark-text role-axis-label" pointer-events="none"><text text-anchor="middle" transform="translate(74.17543397859559,15)" font-family="sans-serif" font-size="10px" fill="#000000" opacity="1">−0.4</text><text text-anchor="middle" transform="translate(154.17543397859563,15)" font-family="sans-serif" font-size="10px" fill="#000000" opacity="1">−0.3</text><text text-anchor="middle" transform="translate(234.1754339785956,15)" font-family="sans-serif" font-size="10px" fill="#000000" opacity="1">−0.2</text><text text-anchor="middle" transform="translate(314.1754339785956,15)" font-family="sans-serif" font-size="10px" fill="#000000" opacity="1">−0.1</text><text text-anchor="middle" transform="translate(394.1754339785956,15)" font-family="sans-serif" font-size="10px" fill="#000000" opacity="1">0.0</text><text text-anchor="middle" transform="translate(474.1754339785956,15)" font-family="sans-serif" font-size="10px" fill="#000000" opacity="1">0.1</text><text text-anchor="middle" transform="translate(554.1754339785956,15)" font-family="sans-serif" font-size="10px" fill="#000000" opacity="1">0.2</text><text text-anchor="middle" transform="translate(634.1754339785956,15)" font-family="sans-serif" font-size="10px" fill="#000000" opacity="1">0.3</text><text text-anchor="middle" transform="translate(714.1754339785956,15)" font-family="sans-serif" font-size="10px" fill="#000000" opacity="1">0.4</text><text text-anchor="middle" transform="translate(794.1754339785956,15)" font-family="sans-serif" font-size="10px" fill="#000000" opacity="1">0.5</text><text text-anchor="middle" transform="translate(874.1754339785956,15)" font-family="sans-serif" font-size="10px" fill="#000000" opacity="1">0.6</text></g><g class="mark-rule role-axis-domain" pointer-events="none"><line transform="translate(0,0)" x2="949.5419584787944" y2="0" stroke="#888" stroke-width="1" opacity="1"/></g><g class="mark-text role-axis-title" pointer-events="none"><text text-anchor="middle" transform="translate(474.7709792393972,30)" font-family="sans-serif" font-size="11px" font-weight="bold" fill="#000000" opacity="1">PC3 (3.345 %)</text></g></g><path class="foreground" aria-hidden="true" d="" pointer-events="none" display="none"/></g></g><g class="mark-group role-axis" role="graphics-symbol" aria-roledescription="axis" aria-label="Y-axis titled 'PC2 (3.764 %)' for a linear scale with values from −0.6 to 0.3"><g transform="translate(0.5,0.5)"><path class="background" aria-hidden="true" d="M0,0h0v0h0Z" pointer-events="none"/><g><g class="mark-rule role-axis-tick" pointer-events="none"><line transform="translate(0,616)" x2="-5" y2="0" stroke="#888" stroke-width="1" opacity="1"/><line transform="translate(0,536)" x2="-5" y2="0" stroke="#888" stroke-width="1" opacity="1"/><line transform="translate(0,456)" x2="-5" y2="0" stroke="#888" stroke-width="1" opacity="1"/><line transform="translate(0,376)" x2="-5" y2="0" stroke="#888" stroke-width="1" opacity="1"/><line transform="translate(0,296)" x2="-5" y2="0" stroke="#888" stroke-width="1" opacity="1"/><line transform="translate(0,216)" x2="-5" y2="0" stroke="#888" stroke-width="1" opacity="1"/><line transform="translate(0,136)" x2="-5" y2="0" stroke="#888" stroke-width="1" opacity="1"/><line transform="translate(0,56)" x2="-5" y2="0" stroke="#888" stroke-width="1" opacity="1"/></g><g class="mark-text role-axis-label" pointer-events="none"><text text-anchor="end" transform="translate(-7,619.2384865089939)" font-family="sans-serif" font-size="10px" fill="#000000" opacity="1">−0.5</text><text text-anchor="end" transform="translate(-7,539.2384865089939)" font-family="sans-serif" font-size="10px" fill="#000000" opacity="1">−0.4</text><text text-anchor="end" transform="translate(-7,459.2384865089939)" font-family="sans-serif" font-size="10px" fill="#000000" opacity="1">−0.3</text><text text-anchor="end" transform="translate(-7,379.23848650899384)" font-family="sans-serif" font-size="10px" fill="#000000" opacity="1">−0.2</text><text text-anchor="end" transform="translate(-7,299.23848650899384)" font-family="sans-serif" font-size="10px" fill="#000000" opacity="1">−0.1</text><text text-anchor="end" transform="translate(-7,219.23848650899387)" font-family="sans-serif" font-size="10px" fill="#000000" opacity="1">0.0</text><text text-anchor="end" transform="translate(-7,139.2384865089939)" font-family="sans-serif" font-size="10px" fill="#000000" opacity="1">0.1</text><text text-anchor="end" transform="translate(-7,59.23848650899393)" font-family="sans-serif" font-size="10px" fill="#000000" opacity="1">0.2</text></g><g class="mark-rule role-axis-domain" pointer-events="none"><line transform="translate(0,663.4123710881482)" x2="0" y2="-663.4123710881482" stroke="#888" stroke-width="1" opacity="1"/></g><g class="mark-text role-axis-title" pointer-events="none"><text text-anchor="middle" transform="translate(-30.7412109375,331.7061855440741) rotate(-90) translate(0,-2)" font-family="sans-serif" font-size="11px" font-weight="bold" fill="#000000" opacity="1">PC2 (3.764 %)</text></g></g><path class="foreground" aria-hidden="true" d="" pointer-events="none" display="none"/></g></g><g class="mark-symbol role-mark" role="graphics-symbol" aria-roledescription="symbol mark container"><path transform="translate(372.7389304796563,264.980576089203)" d="M5,0A5,5,0,1,1,-5,0A5,5,0,1,1,5,0" fill="rgb(255,0,0)" opacity="0.5"/><path transform="translate(429.8670543584079,161.72808529748124)" d="M5,0A5,5,0,1,1,-5,0A5,5,0,1,1,5,0" fill="rgb(255,0,0)" opacity="0.5"/><path transform="translate(373.6024221000047,268.3710033341458)" d="M5,0A5,5,0,1,1,-5,0A5,5,0,1,1,5,0" fill="rgb(0,0,255)" opacity="0.5"/><path transform="translate(372.4033017865542,270.60206801386227)" d="M5,0A5,5,0,1,1,-5,0A5,5,0,1,1,5,0" fill="rgb(255,0,0)" opacity="0.5"/><path transform="translate(374.85759579415895,264.46278399879856)" d="M5,0A5,5,0,1,1,-5,0A5,5,0,1,1,5,0" fill="rgb(255,0,0)" opacity="0.5"/><path transform="translate(411.47865071740284,192.66498845092798)" d="M5,0A5,5,0,1,1,-5,0A5,5,0,1,1,5,0" fill="rgb(255,0,0)" opacity="0.5"/><path transform="translate(455.8415404884476,115.28407828915326)" d="M5,0A5,5,0,1,1,-5,0A5,5,0,1,1,5,0" fill="rgb(255,0,0)" opacity="0.5"/><path transform="translate(455.8415404884475,115.28407828915326)" d="M5,0A5,5,0,1,1,-5,0A5,5,0,1,1,5,0" fill="rgb(255,0,0)" opacity="0.5"/><path transform="translate(459.4592013367273,200.1652294506201)" d="M5,0A5,5,0,1,1,-5,0A5,5,0,1,1,5,0" fill="rgb(0,0,255)" opacity="0.5"/><path transform="translate(485.0193200336051,491.28962525036104)" d="M5,0A5,5,0,1,1,-5,0A5,5,0,1,1,5,0" fill="rgb(0,0,255)" opacity="0.5"/><path transform="translate(944.3269857731249,0)" d="M5,0A5,5,0,1,1,-5,0A5,5,0,1,1,5,0" fill="rgb(255,0,0)" opacity="0.5"/><path transform="translate(181.238053748534,109.7673257847603)" d="M5,0A5,5,0,1,1,-5,0A5,5,0,1,1,5,0" fill="rgb(255,0,0)" opacity="0.5"/><path transform="translate(490.9269137587804,112.93275916062191)" d="M5,0A5,5,0,1,1,-5,0A5,5,0,1,1,5,0" fill="rgb(0,0,255)" opacity="0.5"/><path transform="translate(317.0106828578878,566.7636566247818)" d="M5,0A5,5,0,1,1,-5,0A5,5,0,1,1,5,0" fill="rgb(255,0,0)" opacity="0.5"/><path transform="translate(488.1618951501511,255.5804488358855)" d="M5,0A5,5,0,1,1,-5,0A5,5,0,1,1,5,0" fill="rgb(0,0,255)" opacity="0.5"/><path transform="translate(448.580106384643,107.88616673325838)" d="M5,0A5,5,0,1,1,-5,0A5,5,0,1,1,5,0" fill="rgb(255,0,0)" opacity="0.5"/><path transform="translate(302.0450530948249,34.35986427893829)" d="M5,0A5,5,0,1,1,-5,0A5,5,0,1,1,5,0" fill="rgb(255,0,0)" opacity="0.5"/><path transform="translate(465.65556907427134,203.44239597682358)" d="M5,0A5,5,0,1,1,-5,0A5,5,0,1,1,5,0" fill="rgb(255,0,0)" opacity="0.5"/><path transform="translate(406.64224253327166,663.4123710881482)" d="M5,0A5,5,0,1,1,-5,0A5,5,0,1,1,5,0" fill="rgb(0,0,255)" opacity="0.5"/><path transform="translate(949.5419584787944,19.948835615976016)" d="M5,0A5,5,0,1,1,-5,0A5,5,0,1,1,5,0" fill="rgb(255,0,0)" opacity="0.5"/><path transform="translate(399.1276498384742,107.43939978696224)" d="M5,0A5,5,0,1,1,-5,0A5,5,0,1,1,5,0" fill="rgb(0,0,255)" opacity="0.5"/><path transform="translate(468.04712906582097,136.79354155053483)" d="M5,0A5,5,0,1,1,-5,0A5,5,0,1,1,5,0" fill="rgb(255,0,0)" opacity="0.5"/><path transform="translate(0,87.13263732414198)" d="M5,0A5,5,0,1,1,-5,0A5,5,0,1,1,5,0" fill="rgb(255,0,0)" opacity="0.5"/><path transform="translate(393.73514336379003,279.92735989642904)" d="M5,0A5,5,0,1,1,-5,0A5,5,0,1,1,5,0" fill="rgb(255,0,0)" opacity="0.5"/><path transform="translate(477.3702497508137,98.11545752173281)" d="M5,0A5,5,0,1,1,-5,0A5,5,0,1,1,5,0" fill="rgb(255,0,0)" opacity="0.5"/><path transform="translate(446.94381740186685,107.39982022100864)" d="M5,0A5,5,0,1,1,-5,0A5,5,0,1,1,5,0" fill="rgb(0,0,255)" opacity="0.5"/><path transform="translate(32.43016918066264,35.48272655801679)" d="M5,0A5,5,0,1,1,-5,0A5,5,0,1,1,5,0" fill="rgb(0,0,255)" opacity="0.5"/><path transform="translate(269.2682584393461,22.056219372289473)" d="M5,0A5,5,0,1,1,-5,0A5,5,0,1,1,5,0" fill="rgb(255,0,0)" opacity="0.5"/><path transform="translate(358.27214649598574,261.6033600749165)" d="M5,0A5,5,0,1,1,-5,0A5,5,0,1,1,5,0" fill="rgb(255,0,0)" opacity="0.5"/><path transform="translate(476.62807548970005,362.4670532151684)" d="M5,0A5,5,0,1,1,-5,0A5,5,0,1,1,5,0" fill="rgb(255,0,0)" opacity="0.5"/><path transform="translate(129.89593187312437,12.338305306542914)" d="M5,0A5,5,0,1,1,-5,0A5,5,0,1,1,5,0" fill="rgb(255,0,0)" opacity="0.5"/><path transform="translate(314.8726202132615,142.67973337083066)" d="M5,0A5,5,0,1,1,-5,0A5,5,0,1,1,5,0" fill="rgb(255,0,0)" opacity="0.5"/><path transform="translate(430.0665004748879,91.6372673284453)" d="M5,0A5,5,0,1,1,-5,0A5,5,0,1,1,5,0" fill="rgb(255,0,0)" opacity="0.5"/><path transform="translate(404.0806197895348,160.97928970539306)" d="M5,0A5,5,0,1,1,-5,0A5,5,0,1,1,5,0" fill="rgb(255,0,0)" opacity="0.5"/><path transform="translate(429.282988195769,543.4362080550934)" d="M5,0A5,5,0,1,1,-5,0A5,5,0,1,1,5,0" fill="rgb(255,0,0)" opacity="0.5"/><path transform="translate(463.8857453838379,393.56383587687156)" d="M5,0A5,5,0,1,1,-5,0A5,5,0,1,1,5,0" fill="rgb(255,0,0)" opacity="0.5"/><path transform="translate(455.8415404884475,115.28407828915326)" d="M5,0A5,5,0,1,1,-5,0A5,5,0,1,1,5,0" fill="rgb(255,0,0)" opacity="0.5"/><path transform="translate(289.40370164098647,603.1900416877772)" d="M5,0A5,5,0,1,1,-5,0A5,5,0,1,1,5,0" fill="rgb(255,0,0)" opacity="0.5"/><path transform="translate(71.02281914148985,46.34921174678286)" d="M5,0A5,5,0,1,1,-5,0A5,5,0,1,1,5,0" fill="rgb(255,0,0)" opacity="0.5"/><path transform="translate(386.84369141107067,614.6114583084322)" d="M5,0A5,5,0,1,1,-5,0A5,5,0,1,1,5,0" fill="rgb(255,0,0)" opacity="0.5"/><path transform="translate(368.73444092892856,555.8654151069303)" d="M5,0A5,5,0,1,1,-5,0A5,5,0,1,1,5,0" fill="rgb(255,0,0)" opacity="0.5"/><path transform="translate(319.50501008894213,86.99889559971365)" d="M5,0A5,5,0,1,1,-5,0A5,5,0,1,1,5,0" fill="rgb(255,0,0)" opacity="0.5"/><path transform="translate(313.7628861392571,88.4689642774059)" d="M5,0A5,5,0,1,1,-5,0A5,5,0,1,1,5,0" fill="rgb(0,0,255)" opacity="0.5"/><path transform="translate(459.4589418245129,141.74678565225466)" d="M5,0A5,5,0,1,1,-5,0A5,5,0,1,1,5,0" fill="rgb(255,0,0)" opacity="0.5"/></g><g class="mark-group role-title"><g transform="translate(456.4003737706472,-22)"><path class="background" aria-hidden="true" d="M0,0h0v0h0Z" pointer-events="none"/><g><g class="mark-text role-title-text" role="graphics-symbol" aria-roledescription="title" aria-label="Title text 'Emperor PCoA'" pointer-events="none"><text text-anchor="middle" transform="translate(0,10)" font-family="sans-serif" font-size="13px" font-weight="bold" fill="#000000" opacity="1">Emperor PCoA</text></g></g><path class="foreground" aria-hidden="true" d="" pointer-events="none" display="none"/></g></g></g><path class="foreground" aria-hidden="true" d="" display="none"/></g></g></g></svg>