<svg xmlns="http://www.w3.org/2000/svg" xmlns:xlink="http://www.w3.org/1999/xlink" version="1.1" class="marks" width="1996.9073393031467" height="1454.8247421762965" viewBox="0 0 998.4536696515734 727.4123710881482"><rect width="998.4536696515734" height="727.4123710881482" fill="#ffffff"/><g fill="none" stroke-miterlimit="10" transform="translate(47,27)"><g class="mark-group role-frame root" role="graphics-object" aria-roledescription="group mark container"><g transform="translate(0,0)"><path class="background" aria-hidden="true" d="M0,0h941.4536696515734v663.4123710881482h-941.4536696515734Z"/><g><g class="mark-group role-axis" role="graphics-symbol" aria-roledescription="axis" aria-label="X-axis titled 'PC1 (6.886 %)' for a linear scale with values from −1.0 to 0.2"><g transform="translate(0.5,663.9123710881482)"><path class="background" aria-hidden="true" d="M0,0h0v0h0Z" pointer-events="none"/><g><g class="mark-rule role-axis-tick" pointer-events="none"><line transform="translate(80,0)" x2="0" y2="5" stroke="#888" stroke-width="1" opacity="1"/><line transform="translate(160,0)" x2="0" y2="5" stroke="#888" stroke-width="1" opacity="1"/><line transform="translate(240,0)" x2="0" y2="5" stroke="#888" stroke-width="1" opacity="1"/><line transform="translate(320,0)" x2="0" y2="5" stroke="#888" stroke-width="1" opacity="1"/><line transform="translate(400,0)" x2="0" y2="5" stroke="#888" stroke-width="1" opacity="1"/><line transform="translate(480,0)" x2="0" y2="5" stroke="#888" stroke-width="1" opacity="1"/><line transform="translate(560,0)" x2="0" y2="5" stroke="#888" stroke-width="1" opacity="1"/><line transform="translate(640,0)" x2="0" y2="5" stroke="#888" stroke-width="1" opacity="1"/><line transform="translate(720,0)" x2="0" y2="5" stroke="#888" stroke-width="1" opacity="1"/><line transform="translate(800,0)" x2="0" y2="5" stroke="#888" stroke-width="1" opacity="1"/><line transform="translate(880,0)" x2="0" y2="5" stroke="#888" stroke-width="1" opacity="1"/></g><g class="mark-text role-axis-label" pointer-events="none"><text text-anchor="middle" transform="translate(79.85957512367543,15)" font-family="sans-serif" font-size="10px" fill="#000000" opacity="1">−0.9</text><text text-anchor="middle" transform="translate(159.85957512367543,15)" font-family="sans-serif" font-size="10px" fill="#000000" opacity="1">−0.8</text><text text-anchor="middle" transform="translate(239.85957512367548,15)" font-family="sans-serif" font-size="10px" fill="#000000" opacity="1">−0.7</text><text text-anchor="middle" transform="translate(319.8595751236755,15)" font-family="sans-serif" font-size="10px" fill="#000000" opacity="1">−0.6</text><text text-anchor="middle" transform="translate(399.8595751236754,15)" font-family="sans-serif" font-size="10px" fill="#000000" opacity="1">−0.5</text><text text-anchor="middle" transform="translate(479.8595751236754,15)" font-family="sans-serif" font-size="10px" fill="#000000" opacity="1">−0.4</text><text text-anchor="middle" transform="translate(559.8595751236754,15)" font-family="sans-serif" font-size="10px" fill="#000000" opacity="1">−0.3</text><text text-anchor="middle" transform="translate(639.8595751236754,15)" font-family="sans-serif" font-size="10px" fill="#000000" opacity="1">−0.2</text><text text-anchor="middle" transform="translate(719.8595751236755,15)" font-family="sans-serif" font-size="10px" fill="#000000" opacity="1">−0.1</text><text text-anchor="middle" transform="translate(799.8595751236754,15)" font-family="sans-serif" font-size="10px" fill="#000000" opacity="1">0.0</text><text text-anchor="middle" transform="translate(879.8595751236755,15)" font-family="sans-serif" font-size="10px" fill="#000000" opacity="1">0.1</text></g><g class="mark-rule role-axis-domain" pointer-events="none"><line transform="translate(0,0)" x2="941.4536696515734" y2="0" stroke="#888" stroke-width="1" opacity="1"/></g><g class="mark-text role-axis-title" pointer-events="none"><text text-anchor="middle" transform="translate(470.7268348257867,30)" font-family="sans-serif" font-size="11px" font-weight="bold" fill="#000000" opacity="1">PC1 (6.886 %)</text></g></g><path class="foreground" aria-hidden="true" d="" pointer-events="none" display="none"/></g></g><g class="mark-group role-axis" role="graphics-symbol" aria-roledescription="axis" aria-label="Y-axis titled 'PC2 (3.764 %)' for a linear scale with values from −0.6 to 0.3"><g transform="translate(0.5,0.5)"><path class="background" aria-hidden="true" d="M0,0h0v0h0Z" pointer-events="none"/><g><g class="mark-rule role-axis-tick" pointer-events="none"><line transform="translate(0,616)" x2="-5" y2="0" stroke="#888" stroke-width="1" opacity="1"/><line transform="translate(0,536)" x2="-5" y2="0" stroke="#888" stroke-width="1" opacity="1"/><line transform="translate(0,456)" x2="-5" y2="0" stroke="#888" stroke-width="1" opacity="1"/><line transform="translate(0,376)" x2="-5" y2="0" stroke="#888" stroke-width="1" opacity="1"/><line transform="translate(0,296)" x2="-5" y2="0" stroke="#888" stroke-width="1" opacity="1"/><line transform="translate(0,216)" x2="-5" y2="0" stroke="#888" stroke-width="1" opacity="1"/><line transform="translate(0,136)" x2="-5" y2="0" stroke="#888" stroke-width="1" opacity="1"/><line transform="translate(0,56)" x2="-5" y2="0" stroke="#888" stroke-width="1" opacity="1"/></g><g class="mark-text role-axis-label" pointer-events="none"><text text-anchor="end" transform="translate(-7,619.2384865089939)" font-family="sans-serif" font-size="10px" fill="#000000" opacity="1">−0.5</text><text text-anchor="end" transform="translate(-7,539.2384865089939)" font-family="sans-serif" font-size="10px" fill="#000000" opacity="1">−0.4</text><text text-anchor="end" transform="translate(-7,459.2384865089939)" font-family="sans-serif" font-size="10px" fill="#000000" opacity="1">−0.3</text><text text-anchor="end" transform="translate(-7,379.23848650899384)" font-family="sans-serif" font-size="10px" fill="#000000" opacity="1">−0.2</text><text text-anchor="end" transform="translate(-7,299.23848650899384)" font-family="sans-serif" font-size="10px" fill="#000000" opacity="1">−0.1</text><text text-anchor="end" transform="translate(-7,219.23848650899387)" font-family="sans-serif" font-size="10px" fill="#000000" opacity="1">0.0</text><text text-anchor="end" transform="translate(-7,139.2384865089939)" font-family="sans-serif" font-size="10px" fill="#000000" opacity="1">0.1</text><text text-anchor="end" transform="translate(-7,59.23848650899393)" font-family="sans-serif" font-size="10px" fill="#000000" opacity="1">0.2</text></g><g class="mark-rule role-axis-domain" pointer-events="none"><line transform="translate(0,663.4123710881482)" x2="0" y2="-663.4123710881482" stroke="#888" stroke-width="1" opacity="1"/></g><g class="mark-text role-axis-title" pointer-events="none"><text text-anchor="middle" transform="translate(-30.7412109375,331.7061855440741) rotate(-90) translate(0,-2)" font-family="sans-serif" font-size="11px" font-weight="bold" fill="#000000" opacity="1">PC2 (3.764 %)</text></g></g><path class="foreground" aria-hidden="true" d="" pointer-events="none" display="none"/></g></g><g class="mark-symbol role-mark" role="graphics-symbol" aria-roledescription="symbol mark container"><path transform="translate(108.75099251612524,264.980576089203)" d="M5,0A5,5,0,1,1,-5,0A5,5,0,1,1,5,0" fill="rgb(255,0,0)" opacity="0.5"/><path transform="translate(639.0310802782866,161.72808529748124)" d="M5,0A5,5,0,1,1,-5,0A5,5,0,1,1,5,0" fill="rgb(255,0,0)" opacity="0.5"/><path transform="translate(10.735725464760115,268.3710033341458)" d="M5,0A5,5,0,1,1,-5,0A5,5,0,1,1,5,0" fill="rgb(0,0,255)" opacity="0.5"/><path transform="translate(0,270.60206801386227)" d="M5,0A5,5,0,1,1,-5,0A5,5,0,1,1,5,0" fill="rgb(255,0,0)" opacity="0.5"/><path transform="translate(59.77696537959387,264.46278399879856)" d="M5,0A5,5,0,1,1,-5,0A5,5,0,1,1,5,0" fill="rgb(255,0,0)" opacity="0.5"/><path transform="translate(493.689140682528,192.66498845092798)" d="M5,0A5,5,0,1,1,-5,0A5,5,0,1,1,5,0" fill="rgb(255,0,0)" opacity="0.5"/><path transform="translate(859.9113407172892,115.28407828915326)" d="M5,0A5,5,0,1,1,-5,0A5,5,0,1,1,5,0" fill="rgb(255,0,0)" opacity="0.5"/><path transform="translate(859.9113407172892,115.28407828915326)" d="M5,0A5,5,0,1,1,-5,0A5,5,0,1,1,5,0" fill="rgb(255,0,0)" opacity="0.5"/><path transform="translate(871.4512224193588,200.1652294506201)" d="M5,0A5,5,0,1,1,-5,0A5,5,0,1,1,5,0" fill="rgb(0,0,255)" opacity="0.5"/><path transform="translate(917.5522509704047,491.28962525036104)" d="M5,0A5,5,0,1,1,-5,0A5,5,0,1,1,5,0" fill="rgb(0,0,255)" opacity="0.5"/><path transform="translate(875.0258699456152,0)" d="M5,0A5,5,0,1,1,-5,0A5,5,0,1,1,5,0" fill="rgb(255,0,0)" opacity="0.5"/><path transform="translate(894.2285784864163,109.7673257847603)" d="M5,0A5,5,0,1,1,-5,0A5,5,0,1,1,5,0" fill="rgb(255,0,0)" opacity="0.5"/><path transform="translate(881.5280990034331,112.93275916062191)" d="M5,0A5,5,0,1,1,-5,0A5,5,0,1,1,5,0" fill="rgb(0,0,255)" opacity="0.5"/><path transform="translate(935.0302370538641,566.7636566247818)" d="M5,0A5,5,0,1,1,-5,0A5,5,0,1,1,5,0" fill="rgb(255,0,0)" opacity="0.5"/><path transform="translate(889.9525978989086,255.5804488358855)" d="M5,0A5,5,0,1,1,-5,0A5,5,0,1,1,5,0" fill="rgb(0,0,255)" opacity="0.5"/><path transform="translate(861.4469640393553,107.88616673325838)" d="M5,0A5,5,0,1,1,-5,0A5,5,0,1,1,5,0" fill="rgb(255,0,0)" opacity="0.5"/><path transform="translate(878.0132723833627,34.35986427893829)" d="M5,0A5,5,0,1,1,-5,0A5,5,0,1,1,5,0" fill="rgb(255,0,0)" opacity="0.5"/><path transform="translate(873.8631822351564,203.44239597682358)" d="M5,0A5,5,0,1,1,-5,0A5,5,0,1,1,5,0" fill="rgb(255,0,0)" opacity="0.5"/><path transform="translate(940.4380187451846,663.4123710881482)" d="M5,0A5,5,0,1,1,-5,0A5,5,0,1,1,5,0" fill="rgb(0,0,255)" opacity="0.5"/><path transform="translate(880.6162570046495,19.948835615976016)" d="M5,0A5,5,0,1,1,-5,0A5,5,0,1,1,5,0" fill="rgb(255,0,0)" opacity="0.5"/><path transform="translate(870.5484021638875,107.43939978696224)" d="M5,0A5,5,0,1,1,-5,0A5,5,0,1,1,5,0" fill="rgb(0,0,255)" opacity="0.5"/><path transform="translate(868.4355991219828,136.79354155053483)" d="M5,0A5,5,0,1,1,-5,0A5,5,0,1,1,5,0" fill="rgb(255,0,0)" opacity="0.5"/><path transform="translate(915.5326212149628,87.13263732414198)" d="M5,0A5,5,0,1,1,-5,0A5,5,0,1,1,5,0" fill="rgb(255,0,0)" opacity="0.5"/><path transform="translate(919.8429667386685,279.92735989642904)" d="M5,0A5,5,0,1,1,-5,0A5,5,0,1,1,5,0" fill="rgb(255,0,0)" opacity="0.5"/><path transform="translate(865.5912199579543,98.11545752173281)" d="M5,0A5,5,0,1,1,-5,0A5,5,0,1,1,5,0" fill="rgb(255,0,0)" opacity="0.5"/><path transform="translate(861.5915502365576,107.39982022100864)" d="M5,0A5,5,0,1,1,-5,0A5,5,0,1,1,5,0" fill="rgb(0,0,255)" opacity="0.5"/><path transform="translate(909.5343537240904,35.48272655801679)" d="M5,0A5,5,0,1,1,-5,0A5,5,0,1,1,5,0" fill="rgb(0,0,255)" opacity="0.5"/><path transform="translate(880.7731847586074,22.056219372289473)" d="M5,0A5,5,0,1,1,-5,0A5,5,0,1,1,5,0" fill="rgb(255,0,0)" opacity="0.5"/><path transform="translate(911.2808560824002,261.6033600749165)" d="M5,0A5,5,0,1,1,-5,0A5,5,0,1,1,5,0" fill="rgb(255,0,0)" opacity="0.5"/><path transform="translate(909.8577534873133,362.4670532151684)" d="M5,0A5,5,0,1,1,-5,0A5,5,0,1,1,5,0" fill="rgb(255,0,0)" opacity="0.5"/><path transform="translate(888.9318004784246,12.338305306542914)" d="M5,0A5,5,0,1,1,-5,0A5,5,0,1,1,5,0" fill="rgb(255,0,0)" opacity="0.5"/><path transform="translate(881.8463597834866,142.67973337083066)" d="M5,0A5,5,0,1,1,-5,0A5,5,0,1,1,5,0" fill="rgb(255,0,0)" opacity="0.5"/><path transform="translate(864.3821977515958,91.6372673284453)" d="M5,0A5,5,0,1,1,-5,0A5,5,0,1,1,5,0" fill="rgb(255,0,0)" opacity="0.5"/><path transform="translate(892.0562745236701,160.97928970539306)" d="M5,0A5,5,0,1,1,-5,0A5,5,0,1,1,5,0" fill="rgb(255,0,0)" opacity="0.5"/><path transform="translate(930.6954917154378,543.4362080550934)" d="M5,0A5,5,0,1,1,-5,0A5,5,0,1,1,5,0" fill="rgb(255,0,0)" opacity="0.5"/><path transform="translate(894.4858175792135,393.56383587687156)" d="M5,0A5,5,0,1,1,-5,0A5,5,0,1,1,5,0" fill="rgb(255,0,0)" opacity="0.5"/><path transform="translate(859.9113407172892,115.28407828915326)" d="M5,0A5,5,0,1,1,-5,0A5,5,0,1,1,5,0" fill="rgb(255,0,0)" opacity="0.5"/><path transform="translate(941.4536696515734,603.1900416877772)" d="M5,0A5,5,0,1,1,-5,0A5,5,0,1,1,5,0" fill="rgb(255,0,0)" opacity="0.5"/><path transform="translate(903.957386075146,46.34921174678286)" d="M5,0A5,5,0,1,1,-5,0A5,5,0,1,1,5,0" fill="rgb(255,0,0)" opacity="0.5"/><path transform="translate(933.3661001154231,614.6114583084322)" d="M5,0A5,5,0,1,1,-5,0A5,5,0,1,1,5,0" fill="rgb(255,0,0)" opacity="0.5"/><path transform="translate(931.7749356710935,555.8654151069303)" d="M5,0A5,5,0,1,1,-5,0A5,5,0,1,1,5,0" fill="rgb(255,0,0)" opacity="0.5"/><path transform="translate(880.1571174533826,86.99889559971365)" d="M5,0A5,5,0,1,1,-5,0A5,5,0,1,1,5,0" fill="rgb(255,0,0)" opacity="0.5"/><path transform="translate(882.012981827195,88.4689642774059)" d="M5,0A5,5,0,1,1,-5,0A5,5,0,1,1,5,0" fill="rgb(0,0,255)" opacity="0.5"/><path transform="translate(864.848188670779,141.74678565225466)" d="M5,0A5,5,0,1,1,-5,0A5,5,0,1,1,5,0" fill="rgb(255,0,0)" opacity="0.5"/></g><g class="mark-group role-title"><g transform="translate(452.3562293570367,-22)"><path class="background" aria-hidden="true" d="M0,0h0v0h0Z" pointer-events="none"/><g><g class="mark-text role-title-text" role="graphics-symbol" aria-roledescription="title" aria-label="Title text 'Emperor PCoA'" pointer-events="none"><text text-anchor="middle" transform="translate(0,10)" font-family="sans-serif" font-size="13px" font-weight="bold" fill="#000000" opacity="1">Emperor PCoA</text></g></g><path class="foreground" aria-hidden="true" d="" pointer-events="none" display="none"/></g></g></g><path class="foreground" aria-hidden="true" d="" display="none"/></g></g></g></svg>