<?xml version="1.0" encoding="utf-8" standalone="no"?>
<!DOCTYPE svg PUBLIC "-//W3C//DTD SVG 1.1//EN"
  "http://www.w3.org/Graphics/SVG/1.1/DTD/svg11.dtd">
<svg xmlns:xlink="http://www.w3.org/1999/xlink" width="1512pt" height="648pt" viewBox="0 0 1512 648" xmlns="http://www.w3.org/2000/svg" version="1.1">
 <metadata>
  <rdf:RDF xmlns:dc="http://purl.org/dc/elements/1.1/" xmlns:cc="http://creativecommons.org/ns#" xmlns:rdf="http://www.w3.org/1999/02/22-rdf-syntax-ns#">
   <cc:Work>
    <dc:type rdf:resource="http://purl.org/dc/dcmitype/StillImage"/>
    <dc:date>2024-02-23T21:16:58.117634</dc:date>
    <dc:format>image/svg+xml</dc:format>
    <dc:creator>
     <cc:Agent>
      <dc:title>Matplotlib v3.6.0, https://matplotlib.org/</dc:title>
     </cc:Agent>
    </dc:creator>
   </cc:Work>
  </rdf:RDF>
 </metadata>
 <defs>
  <style type="text/css">*{stroke-linejoin: round; stroke-linecap: butt}</style>
 </defs>
 <g id="figure_1">
  <g id="patch_1">
   <path d="M 0 648 
L 1512 648 
L 1512 0 
L 0 0 
z
" style="fill: #ffffff"/>
  </g>
  <g id="axes_1">
   <g id="patch_2">
    <path d="M 52.61625 552.87 
L 1499.04 552.87 
L 1499.04 27.65625 
L 52.61625 27.65625 
z
" style="fill: #ffffff"/>
   </g>
   <g id="matplotlib.axis_1">
    <g id="xtick_1">
     <g id="line2d_1">
      <defs>
       <path id="medba48c417" d="M 0 0 
L 0 6 
" style="stroke: #262626; stroke-width: 1.25"/>
      </defs>
      <g>
       <use xlink:href="#medba48c417" x="297.232031" y="552.87" style="fill: #262626; stroke: #262626; stroke-width: 1.25"/>
      </g>
     </g>
     <g id="text_1">
      <!-- Bacteria -->
      <g style="fill: #262626" transform="translate(300.075703 602.721094) rotate(-90) scale(0.11 -0.11)">
       <defs>
        <path id="ArialMT-42" d="M 469 0 
L 469 4581 
L 2188 4581 
Q 2713 4581 3030 4442 
Q 3347 4303 3526 4014 
Q 3706 3725 3706 3409 
Q 3706 3116 3547 2856 
Q 3388 2597 3066 2438 
Q 3481 2316 3704 2022 
Q 3928 1728 3928 1328 
Q 3928 1006 3792 729 
Q 3656 453 3456 303 
Q 3256 153 2954 76 
Q 2653 0 2216 0 
L 469 0 
z
M 1075 2656 
L 2066 2656 
Q 2469 2656 2644 2709 
Q 2875 2778 2992 2937 
Q 3109 3097 3109 3338 
Q 3109 3566 3000 3739 
Q 2891 3913 2687 3977 
Q 2484 4041 1991 4041 
L 1075 4041 
L 1075 2656 
z
M 1075 541 
L 2216 541 
Q 2509 541 2628 563 
Q 2838 600 2978 687 
Q 3119 775 3209 942 
Q 3300 1109 3300 1328 
Q 3300 1584 3169 1773 
Q 3038 1963 2805 2039 
Q 2572 2116 2134 2116 
L 1075 2116 
L 1075 541 
z
" transform="scale(0.015625)"/>
        <path id="ArialMT-61" d="M 2588 409 
Q 2275 144 1986 34 
Q 1697 -75 1366 -75 
Q 819 -75 525 192 
Q 231 459 231 875 
Q 231 1119 342 1320 
Q 453 1522 633 1644 
Q 813 1766 1038 1828 
Q 1203 1872 1538 1913 
Q 2219 1994 2541 2106 
Q 2544 2222 2544 2253 
Q 2544 2597 2384 2738 
Q 2169 2928 1744 2928 
Q 1347 2928 1158 2789 
Q 969 2650 878 2297 
L 328 2372 
Q 403 2725 575 2942 
Q 747 3159 1072 3276 
Q 1397 3394 1825 3394 
Q 2250 3394 2515 3294 
Q 2781 3194 2906 3042 
Q 3031 2891 3081 2659 
Q 3109 2516 3109 2141 
L 3109 1391 
Q 3109 606 3145 398 
Q 3181 191 3288 0 
L 2700 0 
Q 2613 175 2588 409 
z
M 2541 1666 
Q 2234 1541 1622 1453 
Q 1275 1403 1131 1340 
Q 988 1278 909 1158 
Q 831 1038 831 891 
Q 831 666 1001 516 
Q 1172 366 1500 366 
Q 1825 366 2078 508 
Q 2331 650 2450 897 
Q 2541 1088 2541 1459 
L 2541 1666 
z
" transform="scale(0.015625)"/>
        <path id="ArialMT-63" d="M 2588 1216 
L 3141 1144 
Q 3050 572 2676 248 
Q 2303 -75 1759 -75 
Q 1078 -75 664 370 
Q 250 816 250 1647 
Q 250 2184 428 2587 
Q 606 2991 970 3192 
Q 1334 3394 1763 3394 
Q 2303 3394 2647 3120 
Q 2991 2847 3088 2344 
L 2541 2259 
Q 2463 2594 2264 2762 
Q 2066 2931 1784 2931 
Q 1359 2931 1093 2626 
Q 828 2322 828 1663 
Q 828 994 1084 691 
Q 1341 388 1753 388 
Q 2084 388 2306 591 
Q 2528 794 2588 1216 
z
" transform="scale(0.015625)"/>
        <path id="ArialMT-74" d="M 1650 503 
L 1731 6 
Q 1494 -44 1306 -44 
Q 1000 -44 831 53 
Q 663 150 594 308 
Q 525 466 525 972 
L 525 2881 
L 113 2881 
L 113 3319 
L 525 3319 
L 525 4141 
L 1084 4478 
L 1084 3319 
L 1650 3319 
L 1650 2881 
L 1084 2881 
L 1084 941 
Q 1084 700 1114 631 
Q 1144 563 1211 522 
Q 1278 481 1403 481 
Q 1497 481 1650 503 
z
" transform="scale(0.015625)"/>
        <path id="ArialMT-65" d="M 2694 1069 
L 3275 997 
Q 3138 488 2766 206 
Q 2394 -75 1816 -75 
Q 1088 -75 661 373 
Q 234 822 234 1631 
Q 234 2469 665 2931 
Q 1097 3394 1784 3394 
Q 2450 3394 2872 2941 
Q 3294 2488 3294 1666 
Q 3294 1616 3291 1516 
L 816 1516 
Q 847 969 1125 678 
Q 1403 388 1819 388 
Q 2128 388 2347 550 
Q 2566 713 2694 1069 
z
M 847 1978 
L 2700 1978 
Q 2663 2397 2488 2606 
Q 2219 2931 1791 2931 
Q 1403 2931 1139 2672 
Q 875 2413 847 1978 
z
" transform="scale(0.015625)"/>
        <path id="ArialMT-72" d="M 416 0 
L 416 3319 
L 922 3319 
L 922 2816 
Q 1116 3169 1280 3281 
Q 1444 3394 1641 3394 
Q 1925 3394 2219 3213 
L 2025 2691 
Q 1819 2813 1613 2813 
Q 1428 2813 1281 2702 
Q 1134 2591 1072 2394 
Q 978 2094 978 1738 
L 978 0 
L 416 0 
z
" transform="scale(0.015625)"/>
        <path id="ArialMT-69" d="M 425 3934 
L 425 4581 
L 988 4581 
L 988 3934 
L 425 3934 
z
M 425 0 
L 425 3319 
L 988 3319 
L 988 0 
L 425 0 
z
" transform="scale(0.015625)"/>
       </defs>
       <use xlink:href="#ArialMT-42"/>
       <use xlink:href="#ArialMT-61" x="66.699219"/>
       <use xlink:href="#ArialMT-63" x="122.314453"/>
       <use xlink:href="#ArialMT-74" x="172.314453"/>
       <use xlink:href="#ArialMT-65" x="200.097656"/>
       <use xlink:href="#ArialMT-72" x="255.712891"/>
       <use xlink:href="#ArialMT-69" x="289.013672"/>
       <use xlink:href="#ArialMT-61" x="311.230469"/>
      </g>
     </g>
    </g>
    <g id="xtick_2">
     <g id="line2d_2">
      <g>
       <use xlink:href="#medba48c417" x="616.296094" y="552.87" style="fill: #262626; stroke: #262626; stroke-width: 1.25"/>
      </g>
     </g>
     <g id="text_2">
      <!-- Archaea -->
      <g style="fill: #262626" transform="translate(619.139766 603.338125) rotate(-90) scale(0.11 -0.11)">
       <defs>
        <path id="ArialMT-41" d="M -9 0 
L 1750 4581 
L 2403 4581 
L 4278 0 
L 3588 0 
L 3053 1388 
L 1138 1388 
L 634 0 
L -9 0 
z
M 1313 1881 
L 2866 1881 
L 2388 3150 
Q 2169 3728 2063 4100 
Q 1975 3659 1816 3225 
L 1313 1881 
z
" transform="scale(0.015625)"/>
        <path id="ArialMT-68" d="M 422 0 
L 422 4581 
L 984 4581 
L 984 2938 
Q 1378 3394 1978 3394 
Q 2347 3394 2619 3248 
Q 2891 3103 3008 2847 
Q 3125 2591 3125 2103 
L 3125 0 
L 2563 0 
L 2563 2103 
Q 2563 2525 2380 2717 
Q 2197 2909 1863 2909 
Q 1613 2909 1392 2779 
Q 1172 2650 1078 2428 
Q 984 2206 984 1816 
L 984 0 
L 422 0 
z
" transform="scale(0.015625)"/>
       </defs>
       <use xlink:href="#ArialMT-41"/>
       <use xlink:href="#ArialMT-72" x="66.699219"/>
       <use xlink:href="#ArialMT-63" x="100"/>
       <use xlink:href="#ArialMT-68" x="150"/>
       <use xlink:href="#ArialMT-61" x="205.615234"/>
       <use xlink:href="#ArialMT-65" x="261.230469"/>
       <use xlink:href="#ArialMT-61" x="316.845703"/>
      </g>
     </g>
    </g>
    <g id="xtick_3">
     <g id="line2d_3">
      <g>
       <use xlink:href="#medba48c417" x="935.360156" y="552.87" style="fill: #262626; stroke: #262626; stroke-width: 1.25"/>
      </g>
     </g>
     <g id="text_3">
      <!-- unclassified -->
      <g style="fill: #262626" transform="translate(938.203828 619.843281) rotate(-90) scale(0.11 -0.11)">
       <defs>
        <path id="ArialMT-75" d="M 2597 0 
L 2597 488 
Q 2209 -75 1544 -75 
Q 1250 -75 995 37 
Q 741 150 617 320 
Q 494 491 444 738 
Q 409 903 409 1263 
L 409 3319 
L 972 3319 
L 972 1478 
Q 972 1038 1006 884 
Q 1059 663 1231 536 
Q 1403 409 1656 409 
Q 1909 409 2131 539 
Q 2353 669 2445 892 
Q 2538 1116 2538 1541 
L 2538 3319 
L 3100 3319 
L 3100 0 
L 2597 0 
z
" transform="scale(0.015625)"/>
        <path id="ArialMT-6e" d="M 422 0 
L 422 3319 
L 928 3319 
L 928 2847 
Q 1294 3394 1984 3394 
Q 2284 3394 2536 3286 
Q 2788 3178 2913 3003 
Q 3038 2828 3088 2588 
Q 3119 2431 3119 2041 
L 3119 0 
L 2556 0 
L 2556 2019 
Q 2556 2363 2490 2533 
Q 2425 2703 2258 2804 
Q 2091 2906 1866 2906 
Q 1506 2906 1245 2678 
Q 984 2450 984 1813 
L 984 0 
L 422 0 
z
" transform="scale(0.015625)"/>
        <path id="ArialMT-6c" d="M 409 0 
L 409 4581 
L 972 4581 
L 972 0 
L 409 0 
z
" transform="scale(0.015625)"/>
        <path id="ArialMT-73" d="M 197 991 
L 753 1078 
Q 800 744 1014 566 
Q 1228 388 1613 388 
Q 2000 388 2187 545 
Q 2375 703 2375 916 
Q 2375 1106 2209 1216 
Q 2094 1291 1634 1406 
Q 1016 1563 777 1677 
Q 538 1791 414 1992 
Q 291 2194 291 2438 
Q 291 2659 392 2848 
Q 494 3038 669 3163 
Q 800 3259 1026 3326 
Q 1253 3394 1513 3394 
Q 1903 3394 2198 3281 
Q 2494 3169 2634 2976 
Q 2775 2784 2828 2463 
L 2278 2388 
Q 2241 2644 2061 2787 
Q 1881 2931 1553 2931 
Q 1166 2931 1000 2803 
Q 834 2675 834 2503 
Q 834 2394 903 2306 
Q 972 2216 1119 2156 
Q 1203 2125 1616 2013 
Q 2213 1853 2448 1751 
Q 2684 1650 2818 1456 
Q 2953 1263 2953 975 
Q 2953 694 2789 445 
Q 2625 197 2315 61 
Q 2006 -75 1616 -75 
Q 969 -75 630 194 
Q 291 463 197 991 
z
" transform="scale(0.015625)"/>
        <path id="ArialMT-66" d="M 556 0 
L 556 2881 
L 59 2881 
L 59 3319 
L 556 3319 
L 556 3672 
Q 556 4006 616 4169 
Q 697 4388 901 4523 
Q 1106 4659 1475 4659 
Q 1713 4659 2000 4603 
L 1916 4113 
Q 1741 4144 1584 4144 
Q 1328 4144 1222 4034 
Q 1116 3925 1116 3625 
L 1116 3319 
L 1763 3319 
L 1763 2881 
L 1116 2881 
L 1116 0 
L 556 0 
z
" transform="scale(0.015625)"/>
        <path id="ArialMT-64" d="M 2575 0 
L 2575 419 
Q 2259 -75 1647 -75 
Q 1250 -75 917 144 
Q 584 363 401 755 
Q 219 1147 219 1656 
Q 219 2153 384 2558 
Q 550 2963 881 3178 
Q 1213 3394 1622 3394 
Q 1922 3394 2156 3267 
Q 2391 3141 2538 2938 
L 2538 4581 
L 3097 4581 
L 3097 0 
L 2575 0 
z
M 797 1656 
Q 797 1019 1065 703 
Q 1334 388 1700 388 
Q 2069 388 2326 689 
Q 2584 991 2584 1609 
Q 2584 2291 2321 2609 
Q 2059 2928 1675 2928 
Q 1300 2928 1048 2622 
Q 797 2316 797 1656 
z
" transform="scale(0.015625)"/>
       </defs>
       <use xlink:href="#ArialMT-75"/>
       <use xlink:href="#ArialMT-6e" x="55.615234"/>
       <use xlink:href="#ArialMT-63" x="111.230469"/>
       <use xlink:href="#ArialMT-6c" x="161.230469"/>
       <use xlink:href="#ArialMT-61" x="183.447266"/>
       <use xlink:href="#ArialMT-73" x="239.0625"/>
       <use xlink:href="#ArialMT-73" x="289.0625"/>
       <use xlink:href="#ArialMT-69" x="339.0625"/>
       <use xlink:href="#ArialMT-66" x="361.279297"/>
       <use xlink:href="#ArialMT-69" x="389.0625"/>
       <use xlink:href="#ArialMT-65" x="411.279297"/>
       <use xlink:href="#ArialMT-64" x="466.894531"/>
      </g>
     </g>
    </g>
    <g id="xtick_4">
     <g id="line2d_4">
      <g>
       <use xlink:href="#medba48c417" x="1254.424219" y="552.87" style="fill: #262626; stroke: #262626; stroke-width: 1.25"/>
      </g>
     </g>
     <g id="text_4">
      <!-- Eukaryota -->
      <g style="fill: #262626" transform="translate(1257.203437 611.894063) rotate(-90) scale(0.11 -0.11)">
       <defs>
        <path id="ArialMT-45" d="M 506 0 
L 506 4581 
L 3819 4581 
L 3819 4041 
L 1113 4041 
L 1113 2638 
L 3647 2638 
L 3647 2100 
L 1113 2100 
L 1113 541 
L 3925 541 
L 3925 0 
L 506 0 
z
" transform="scale(0.015625)"/>
        <path id="ArialMT-6b" d="M 425 0 
L 425 4581 
L 988 4581 
L 988 1969 
L 2319 3319 
L 3047 3319 
L 1778 2088 
L 3175 0 
L 2481 0 
L 1384 1697 
L 988 1316 
L 988 0 
L 425 0 
z
" transform="scale(0.015625)"/>
        <path id="ArialMT-79" d="M 397 -1278 
L 334 -750 
Q 519 -800 656 -800 
Q 844 -800 956 -737 
Q 1069 -675 1141 -563 
Q 1194 -478 1313 -144 
Q 1328 -97 1363 -6 
L 103 3319 
L 709 3319 
L 1400 1397 
Q 1534 1031 1641 628 
Q 1738 1016 1872 1384 
L 2581 3319 
L 3144 3319 
L 1881 -56 
Q 1678 -603 1566 -809 
Q 1416 -1088 1222 -1217 
Q 1028 -1347 759 -1347 
Q 597 -1347 397 -1278 
z
" transform="scale(0.015625)"/>
        <path id="ArialMT-6f" d="M 213 1659 
Q 213 2581 725 3025 
Q 1153 3394 1769 3394 
Q 2453 3394 2887 2945 
Q 3322 2497 3322 1706 
Q 3322 1066 3130 698 
Q 2938 331 2570 128 
Q 2203 -75 1769 -75 
Q 1072 -75 642 372 
Q 213 819 213 1659 
z
M 791 1659 
Q 791 1022 1069 705 
Q 1347 388 1769 388 
Q 2188 388 2466 706 
Q 2744 1025 2744 1678 
Q 2744 2294 2464 2611 
Q 2184 2928 1769 2928 
Q 1347 2928 1069 2612 
Q 791 2297 791 1659 
z
" transform="scale(0.015625)"/>
       </defs>
       <use xlink:href="#ArialMT-45"/>
       <use xlink:href="#ArialMT-75" x="66.699219"/>
       <use xlink:href="#ArialMT-6b" x="122.314453"/>
       <use xlink:href="#ArialMT-61" x="172.314453"/>
       <use xlink:href="#ArialMT-72" x="227.929688"/>
       <use xlink:href="#ArialMT-79" x="261.230469"/>
       <use xlink:href="#ArialMT-6f" x="311.230469"/>
       <use xlink:href="#ArialMT-74" x="366.845703"/>
       <use xlink:href="#ArialMT-61" x="394.628906"/>
      </g>
     </g>
    </g>
    <g id="text_5">
     <!-- Taxonomy -->
     <g style="fill: #262626" transform="translate(748.486875 632.432656) scale(0.12 -0.12)">
      <defs>
       <path id="ArialMT-54" d="M 1659 0 
L 1659 4041 
L 150 4041 
L 150 4581 
L 3781 4581 
L 3781 4041 
L 2266 4041 
L 2266 0 
L 1659 0 
z
" transform="scale(0.015625)"/>
       <path id="ArialMT-78" d="M 47 0 
L 1259 1725 
L 138 3319 
L 841 3319 
L 1350 2541 
Q 1494 2319 1581 2169 
Q 1719 2375 1834 2534 
L 2394 3319 
L 3066 3319 
L 1919 1756 
L 3153 0 
L 2463 0 
L 1781 1031 
L 1600 1309 
L 728 0 
L 47 0 
z
" transform="scale(0.015625)"/>
       <path id="ArialMT-6d" d="M 422 0 
L 422 3319 
L 925 3319 
L 925 2853 
Q 1081 3097 1340 3245 
Q 1600 3394 1931 3394 
Q 2300 3394 2536 3241 
Q 2772 3088 2869 2813 
Q 3263 3394 3894 3394 
Q 4388 3394 4653 3120 
Q 4919 2847 4919 2278 
L 4919 0 
L 4359 0 
L 4359 2091 
Q 4359 2428 4304 2576 
Q 4250 2725 4106 2815 
Q 3963 2906 3769 2906 
Q 3419 2906 3187 2673 
Q 2956 2441 2956 1928 
L 2956 0 
L 2394 0 
L 2394 2156 
Q 2394 2531 2256 2718 
Q 2119 2906 1806 2906 
Q 1569 2906 1367 2781 
Q 1166 2656 1075 2415 
Q 984 2175 984 1722 
L 984 0 
L 422 0 
z
" transform="scale(0.015625)"/>
      </defs>
      <use xlink:href="#ArialMT-54"/>
      <use xlink:href="#ArialMT-61" x="49.958984"/>
      <use xlink:href="#ArialMT-78" x="105.574219"/>
      <use xlink:href="#ArialMT-6f" x="155.574219"/>
      <use xlink:href="#ArialMT-6e" x="211.189453"/>
      <use xlink:href="#ArialMT-6f" x="266.804688"/>
      <use xlink:href="#ArialMT-6d" x="322.419922"/>
      <use xlink:href="#ArialMT-79" x="405.720703"/>
     </g>
    </g>
   </g>
   <g id="matplotlib.axis_2">
    <g id="ytick_1">
     <g id="line2d_5">
      <defs>
       <path id="me3d4cc915f" d="M 0 0 
L -6 0 
" style="stroke: #262626; stroke-width: 1.25"/>
      </defs>
      <g>
       <use xlink:href="#me3d4cc915f" x="52.61625" y="534.44475" style="fill: #262626; stroke: #262626; stroke-width: 1.25"/>
      </g>
     </g>
     <g id="text_6">
      <!-- 0.0 -->
      <g style="fill: #262626" transform="translate(27.82625 538.381547) scale(0.11 -0.11)">
       <defs>
        <path id="ArialMT-30" d="M 266 2259 
Q 266 3072 433 3567 
Q 600 4063 929 4331 
Q 1259 4600 1759 4600 
Q 2128 4600 2406 4451 
Q 2684 4303 2865 4023 
Q 3047 3744 3150 3342 
Q 3253 2941 3253 2259 
Q 3253 1453 3087 958 
Q 2922 463 2592 192 
Q 2263 -78 1759 -78 
Q 1097 -78 719 397 
Q 266 969 266 2259 
z
M 844 2259 
Q 844 1131 1108 757 
Q 1372 384 1759 384 
Q 2147 384 2411 759 
Q 2675 1134 2675 2259 
Q 2675 3391 2411 3762 
Q 2147 4134 1753 4134 
Q 1366 4134 1134 3806 
Q 844 3388 844 2259 
z
" transform="scale(0.015625)"/>
        <path id="ArialMT-2e" d="M 581 0 
L 581 641 
L 1222 641 
L 1222 0 
L 581 0 
z
" transform="scale(0.015625)"/>
       </defs>
       <use xlink:href="#ArialMT-30"/>
       <use xlink:href="#ArialMT-2e" x="55.615234"/>
       <use xlink:href="#ArialMT-30" x="83.398438"/>
      </g>
     </g>
    </g>
    <g id="ytick_2">
     <g id="line2d_6">
      <g>
       <use xlink:href="#me3d4cc915f" x="52.61625" y="460.74375" style="fill: #262626; stroke: #262626; stroke-width: 1.25"/>
      </g>
     </g>
     <g id="text_7">
      <!-- 0.2 -->
      <g style="fill: #262626" transform="translate(27.82625 464.680546) scale(0.11 -0.11)">
       <defs>
        <path id="ArialMT-32" d="M 3222 541 
L 3222 0 
L 194 0 
Q 188 203 259 391 
Q 375 700 629 1000 
Q 884 1300 1366 1694 
Q 2113 2306 2375 2664 
Q 2638 3022 2638 3341 
Q 2638 3675 2398 3904 
Q 2159 4134 1775 4134 
Q 1369 4134 1125 3890 
Q 881 3647 878 3216 
L 300 3275 
Q 359 3922 746 4261 
Q 1134 4600 1788 4600 
Q 2447 4600 2831 4234 
Q 3216 3869 3216 3328 
Q 3216 3053 3103 2787 
Q 2991 2522 2730 2228 
Q 2469 1934 1863 1422 
Q 1356 997 1212 845 
Q 1069 694 975 541 
L 3222 541 
z
" transform="scale(0.015625)"/>
       </defs>
       <use xlink:href="#ArialMT-30"/>
       <use xlink:href="#ArialMT-2e" x="55.615234"/>
       <use xlink:href="#ArialMT-32" x="83.398438"/>
      </g>
     </g>
    </g>
    <g id="ytick_3">
     <g id="line2d_7">
      <g>
       <use xlink:href="#me3d4cc915f" x="52.61625" y="387.042749" style="fill: #262626; stroke: #262626; stroke-width: 1.25"/>
      </g>
     </g>
     <g id="text_8">
      <!-- 0.4 -->
      <g style="fill: #262626" transform="translate(27.82625 390.979546) scale(0.11 -0.11)">
       <defs>
        <path id="ArialMT-34" d="M 2069 0 
L 2069 1097 
L 81 1097 
L 81 1613 
L 2172 4581 
L 2631 4581 
L 2631 1613 
L 3250 1613 
L 3250 1097 
L 2631 1097 
L 2631 0 
L 2069 0 
z
M 2069 1613 
L 2069 3678 
L 634 1613 
L 2069 1613 
z
" transform="scale(0.015625)"/>
       </defs>
       <use xlink:href="#ArialMT-30"/>
       <use xlink:href="#ArialMT-2e" x="55.615234"/>
       <use xlink:href="#ArialMT-34" x="83.398438"/>
      </g>
     </g>
    </g>
    <g id="ytick_4">
     <g id="line2d_8">
      <g>
       <use xlink:href="#me3d4cc915f" x="52.61625" y="313.341749" style="fill: #262626; stroke: #262626; stroke-width: 1.25"/>
      </g>
     </g>
     <g id="text_9">
      <!-- 0.6 -->
      <g style="fill: #262626" transform="translate(27.82625 317.278546) scale(0.11 -0.11)">
       <defs>
        <path id="ArialMT-36" d="M 3184 3459 
L 2625 3416 
Q 2550 3747 2413 3897 
Q 2184 4138 1850 4138 
Q 1581 4138 1378 3988 
Q 1113 3794 959 3422 
Q 806 3050 800 2363 
Q 1003 2672 1297 2822 
Q 1591 2972 1913 2972 
Q 2475 2972 2870 2558 
Q 3266 2144 3266 1488 
Q 3266 1056 3080 686 
Q 2894 316 2569 119 
Q 2244 -78 1831 -78 
Q 1128 -78 684 439 
Q 241 956 241 2144 
Q 241 3472 731 4075 
Q 1159 4600 1884 4600 
Q 2425 4600 2770 4297 
Q 3116 3994 3184 3459 
z
M 888 1484 
Q 888 1194 1011 928 
Q 1134 663 1356 523 
Q 1578 384 1822 384 
Q 2178 384 2434 671 
Q 2691 959 2691 1453 
Q 2691 1928 2437 2201 
Q 2184 2475 1800 2475 
Q 1419 2475 1153 2201 
Q 888 1928 888 1484 
z
" transform="scale(0.015625)"/>
       </defs>
       <use xlink:href="#ArialMT-30"/>
       <use xlink:href="#ArialMT-2e" x="55.615234"/>
       <use xlink:href="#ArialMT-36" x="83.398438"/>
      </g>
     </g>
    </g>
    <g id="ytick_5">
     <g id="line2d_9">
      <g>
       <use xlink:href="#me3d4cc915f" x="52.61625" y="239.640748" style="fill: #262626; stroke: #262626; stroke-width: 1.25"/>
      </g>
     </g>
     <g id="text_10">
      <!-- 0.8 -->
      <g style="fill: #262626" transform="translate(27.82625 243.577545) scale(0.11 -0.11)">
       <defs>
        <path id="ArialMT-38" d="M 1131 2484 
Q 781 2613 612 2850 
Q 444 3088 444 3419 
Q 444 3919 803 4259 
Q 1163 4600 1759 4600 
Q 2359 4600 2725 4251 
Q 3091 3903 3091 3403 
Q 3091 3084 2923 2848 
Q 2756 2613 2416 2484 
Q 2838 2347 3058 2040 
Q 3278 1734 3278 1309 
Q 3278 722 2862 322 
Q 2447 -78 1769 -78 
Q 1091 -78 675 323 
Q 259 725 259 1325 
Q 259 1772 486 2073 
Q 713 2375 1131 2484 
z
M 1019 3438 
Q 1019 3113 1228 2906 
Q 1438 2700 1772 2700 
Q 2097 2700 2305 2904 
Q 2513 3109 2513 3406 
Q 2513 3716 2298 3927 
Q 2084 4138 1766 4138 
Q 1444 4138 1231 3931 
Q 1019 3725 1019 3438 
z
M 838 1322 
Q 838 1081 952 856 
Q 1066 631 1291 507 
Q 1516 384 1775 384 
Q 2178 384 2440 643 
Q 2703 903 2703 1303 
Q 2703 1709 2433 1975 
Q 2163 2241 1756 2241 
Q 1359 2241 1098 1978 
Q 838 1716 838 1322 
z
" transform="scale(0.015625)"/>
       </defs>
       <use xlink:href="#ArialMT-30"/>
       <use xlink:href="#ArialMT-2e" x="55.615234"/>
       <use xlink:href="#ArialMT-38" x="83.398438"/>
      </g>
     </g>
    </g>
    <g id="ytick_6">
     <g id="line2d_10">
      <g>
       <use xlink:href="#me3d4cc915f" x="52.61625" y="165.939748" style="fill: #262626; stroke: #262626; stroke-width: 1.25"/>
      </g>
     </g>
     <g id="text_11">
      <!-- 1.0 -->
      <g style="fill: #262626" transform="translate(27.82625 169.876545) scale(0.11 -0.11)">
       <defs>
        <path id="ArialMT-31" d="M 2384 0 
L 1822 0 
L 1822 3584 
Q 1619 3391 1289 3197 
Q 959 3003 697 2906 
L 697 3450 
Q 1169 3672 1522 3987 
Q 1875 4303 2022 4600 
L 2384 4600 
L 2384 0 
z
" transform="scale(0.015625)"/>
       </defs>
       <use xlink:href="#ArialMT-31"/>
       <use xlink:href="#ArialMT-2e" x="55.615234"/>
       <use xlink:href="#ArialMT-30" x="83.398438"/>
      </g>
     </g>
    </g>
    <g id="ytick_7">
     <g id="line2d_11">
      <g>
       <use xlink:href="#me3d4cc915f" x="52.61625" y="92.238748" style="fill: #262626; stroke: #262626; stroke-width: 1.25"/>
      </g>
     </g>
     <g id="text_12">
      <!-- 1.2 -->
      <g style="fill: #262626" transform="translate(27.82625 96.175545) scale(0.11 -0.11)">
       <use xlink:href="#ArialMT-31"/>
       <use xlink:href="#ArialMT-2e" x="55.615234"/>
       <use xlink:href="#ArialMT-32" x="83.398438"/>
      </g>
     </g>
    </g>
    <g id="text_13">
     <!-- relative frequency -->
     <g style="fill: #262626" transform="translate(21.300625 337.618125) rotate(-90) scale(0.12 -0.12)">
      <defs>
       <path id="ArialMT-76" d="M 1344 0 
L 81 3319 
L 675 3319 
L 1388 1331 
Q 1503 1009 1600 663 
Q 1675 925 1809 1294 
L 2547 3319 
L 3125 3319 
L 1869 0 
L 1344 0 
z
" transform="scale(0.015625)"/>
       <path id="ArialMT-20" transform="scale(0.015625)"/>
       <path id="ArialMT-71" d="M 2538 -1272 
L 2538 353 
Q 2406 169 2170 47 
Q 1934 -75 1669 -75 
Q 1078 -75 651 397 
Q 225 869 225 1691 
Q 225 2191 398 2587 
Q 572 2984 901 3189 
Q 1231 3394 1625 3394 
Q 2241 3394 2594 2875 
L 2594 3319 
L 3100 3319 
L 3100 -1272 
L 2538 -1272 
z
M 803 1669 
Q 803 1028 1072 708 
Q 1341 388 1716 388 
Q 2075 388 2334 692 
Q 2594 997 2594 1619 
Q 2594 2281 2320 2615 
Q 2047 2950 1678 2950 
Q 1313 2950 1058 2639 
Q 803 2328 803 1669 
z
" transform="scale(0.015625)"/>
      </defs>
      <use xlink:href="#ArialMT-72"/>
      <use xlink:href="#ArialMT-65" x="33.300781"/>
      <use xlink:href="#ArialMT-6c" x="88.916016"/>
      <use xlink:href="#ArialMT-61" x="111.132812"/>
      <use xlink:href="#ArialMT-74" x="166.748047"/>
      <use xlink:href="#ArialMT-69" x="194.53125"/>
      <use xlink:href="#ArialMT-76" x="216.748047"/>
      <use xlink:href="#ArialMT-65" x="266.748047"/>
      <use xlink:href="#ArialMT-20" x="322.363281"/>
      <use xlink:href="#ArialMT-66" x="350.146484"/>
      <use xlink:href="#ArialMT-72" x="377.929688"/>
      <use xlink:href="#ArialMT-65" x="411.230469"/>
      <use xlink:href="#ArialMT-71" x="466.845703"/>
      <use xlink:href="#ArialMT-75" x="522.460938"/>
      <use xlink:href="#ArialMT-65" x="578.076172"/>
      <use xlink:href="#ArialMT-6e" x="633.691406"/>
      <use xlink:href="#ArialMT-63" x="689.306641"/>
      <use xlink:href="#ArialMT-79" x="739.306641"/>
     </g>
    </g>
   </g>
   <g id="patch_3">
    <path d="M 170.457244 166.452891 
L 253.839319 166.452891 
L 253.839319 165.939748 
L 170.457244 165.939748 
L 170.457244 166.452891 
z
" clip-path="url(#p635f965321)" style="fill: #abc9ea; stroke: #6f6f6f; stroke-width: 1.5; stroke-linejoin: miter"/>
   </g>
   <g id="patch_4">
    <path d="M 255.540994 166.319308 
L 338.923069 166.319308 
L 338.923069 165.939748 
L 255.540994 165.939748 
L 255.540994 166.319308 
z
" clip-path="url(#p635f965321)" style="fill: #efb792; stroke: #6f6f6f; stroke-width: 1.5; stroke-linejoin: miter"/>
   </g>
   <g id="patch_5">
    <path d="M 340.624744 166.486978 
L 424.006819 166.486978 
L 424.006819 165.939748 
L 340.624744 165.939748 
L 340.624744 166.486978 
z
" clip-path="url(#p635f965321)" style="fill: #98daa7; stroke: #6f6f6f; stroke-width: 1.5; stroke-linejoin: miter"/>
   </g>
   <g id="patch_6">
    <path d="M 489.521306 534.44475 
L 572.903381 534.44475 
L 572.903381 533.931607 
L 489.521306 533.931607 
L 489.521306 534.44475 
z
" clip-path="url(#p635f965321)" style="fill: #abc9ea; stroke: #6f6f6f; stroke-width: 1.5; stroke-linejoin: miter"/>
   </g>
   <g id="patch_7">
    <path d="M 574.605056 534.44475 
L 657.987131 534.44475 
L 657.987131 534.06519 
L 574.605056 534.06519 
L 574.605056 534.44475 
z
" clip-path="url(#p635f965321)" style="fill: #efb792; stroke: #6f6f6f; stroke-width: 1.5; stroke-linejoin: miter"/>
   </g>
   <g id="patch_8">
    <path d="M 659.688806 534.44475 
L 743.070881 534.44475 
L 743.070881 534.164686 
L 659.688806 534.164686 
L 659.688806 534.44475 
z
" clip-path="url(#p635f965321)" style="fill: #98daa7; stroke: #6f6f6f; stroke-width: 1.5; stroke-linejoin: miter"/>
   </g>
   <g id="patch_9">
    <path d="M 808.585369 534.44475 
L 891.967444 534.44475 
L 891.967444 534.44475 
L 808.585369 534.44475 
L 808.585369 534.44475 
z
" clip-path="url(#p635f965321)" style="fill: #abc9ea; stroke: #6f6f6f; stroke-width: 1.5; stroke-linejoin: miter"/>
   </g>
   <g id="patch_10">
    <path d="M 893.669119 534.44475 
L 977.051194 534.44475 
L 977.051194 534.44475 
L 893.669119 534.44475 
L 893.669119 534.44475 
z
" clip-path="url(#p635f965321)" style="fill: #efb792; stroke: #6f6f6f; stroke-width: 1.5; stroke-linejoin: miter"/>
   </g>
   <g id="patch_11">
    <path d="M 978.752869 534.44475 
L 1062.134944 534.44475 
L 1062.134944 534.44475 
L 978.752869 534.44475 
L 978.752869 534.44475 
z
" clip-path="url(#p635f965321)" style="fill: #98daa7; stroke: #6f6f6f; stroke-width: 1.5; stroke-linejoin: miter"/>
   </g>
   <g id="patch_12">
    <path d="M 1127.649431 534.44475 
L 1211.031506 534.44475 
L 1211.031506 534.44475 
L 1127.649431 534.44475 
L 1127.649431 534.44475 
z
" clip-path="url(#p635f965321)" style="fill: #abc9ea; stroke: #6f6f6f; stroke-width: 1.5; stroke-linejoin: miter"/>
   </g>
   <g id="patch_13">
    <path d="M 1212.733181 534.44475 
L 1296.115256 534.44475 
L 1296.115256 534.44475 
L 1212.733181 534.44475 
L 1212.733181 534.44475 
z
" clip-path="url(#p635f965321)" style="fill: #efb792; stroke: #6f6f6f; stroke-width: 1.5; stroke-linejoin: miter"/>
   </g>
   <g id="patch_14">
    <path d="M 1297.816931 534.44475 
L 1381.199006 534.44475 
L 1381.199006 534.44475 
L 1297.816931 534.44475 
L 1297.816931 534.44475 
z
" clip-path="url(#p635f965321)" style="fill: #98daa7; stroke: #6f6f6f; stroke-width: 1.5; stroke-linejoin: miter"/>
   </g>
   <g id="patch_15">
    <path d="M 297.232031 534.44475 
L 297.232031 534.44475 
L 297.232031 534.44475 
L 297.232031 534.44475 
z
" clip-path="url(#p635f965321)" style="fill: #abc9ea; stroke: #6f6f6f; stroke-width: 0.75; stroke-linejoin: miter"/>
   </g>
   <g id="patch_16">
    <path d="M 297.232031 534.44475 
L 297.232031 534.44475 
L 297.232031 534.44475 
L 297.232031 534.44475 
z
" clip-path="url(#p635f965321)" style="fill: #efb792; stroke: #6f6f6f; stroke-width: 0.75; stroke-linejoin: miter"/>
   </g>
   <g id="patch_17">
    <path d="M 297.232031 534.44475 
L 297.232031 534.44475 
L 297.232031 534.44475 
L 297.232031 534.44475 
z
" clip-path="url(#p635f965321)" style="fill: #98daa7; stroke: #6f6f6f; stroke-width: 0.75; stroke-linejoin: miter"/>
   </g>
   <g id="line2d_12">
    <path d="M 212.148281 166.452891 
L 212.148281 167.023153 
" clip-path="url(#p635f965321)" style="fill: none; stroke: #6f6f6f; stroke-width: 1.5; stroke-linecap: round"/>
   </g>
   <g id="line2d_13">
    <path d="M 212.148281 165.939748 
L 212.148281 165.939748 
" clip-path="url(#p635f965321)" style="fill: none; stroke: #6f6f6f; stroke-width: 1.5; stroke-linecap: round"/>
   </g>
   <g id="line2d_14">
    <path d="M 191.302762 167.023153 
L 232.9938 167.023153 
" clip-path="url(#p635f965321)" style="fill: none; stroke: #6f6f6f; stroke-width: 1.5; stroke-linecap: round"/>
   </g>
   <g id="line2d_15">
    <path d="M 191.302762 165.939748 
L 232.9938 165.939748 
" clip-path="url(#p635f965321)" style="fill: none; stroke: #6f6f6f; stroke-width: 1.5; stroke-linecap: round"/>
   </g>
   <g id="line2d_16">
    <defs>
     <path id="m58de6d0f3e" d="M -0 3.535534 
L 2.12132 0 
L -0 -3.535534 
L -2.12132 -0 
z
" style="stroke: #6f6f6f; stroke-linejoin: miter"/>
    </defs>
    <g clip-path="url(#p635f965321)">
     <use xlink:href="#m58de6d0f3e" x="212.148281" y="170.87403" style="fill: #6f6f6f; stroke: #6f6f6f; stroke-linejoin: miter"/>
     <use xlink:href="#m58de6d0f3e" x="212.148281" y="169.470026" style="fill: #6f6f6f; stroke: #6f6f6f; stroke-linejoin: miter"/>
     <use xlink:href="#m58de6d0f3e" x="212.148281" y="171.714221" style="fill: #6f6f6f; stroke: #6f6f6f; stroke-linejoin: miter"/>
     <use xlink:href="#m58de6d0f3e" x="212.148281" y="168.194999" style="fill: #6f6f6f; stroke: #6f6f6f; stroke-linejoin: miter"/>
     <use xlink:href="#m58de6d0f3e" x="212.148281" y="167.970211" style="fill: #6f6f6f; stroke: #6f6f6f; stroke-linejoin: miter"/>
     <use xlink:href="#m58de6d0f3e" x="212.148281" y="167.247941" style="fill: #6f6f6f; stroke: #6f6f6f; stroke-linejoin: miter"/>
     <use xlink:href="#m58de6d0f3e" x="212.148281" y="168.467692" style="fill: #6f6f6f; stroke: #6f6f6f; stroke-linejoin: miter"/>
     <use xlink:href="#m58de6d0f3e" x="212.148281" y="167.730682" style="fill: #6f6f6f; stroke: #6f6f6f; stroke-linejoin: miter"/>
     <use xlink:href="#m58de6d0f3e" x="212.148281" y="168.464007" style="fill: #6f6f6f; stroke: #6f6f6f; stroke-linejoin: miter"/>
    </g>
   </g>
   <g id="line2d_17">
    <path d="M 297.232031 166.319308 
L 297.232031 166.341419 
" clip-path="url(#p635f965321)" style="fill: none; stroke: #6f6f6f; stroke-width: 1.5; stroke-linecap: round"/>
   </g>
   <g id="line2d_18">
    <path d="M 297.232031 165.939748 
L 297.232031 165.939748 
" clip-path="url(#p635f965321)" style="fill: none; stroke: #6f6f6f; stroke-width: 1.5; stroke-linecap: round"/>
   </g>
   <g id="line2d_19">
    <path d="M 276.386512 166.341419 
L 318.07755 166.341419 
" clip-path="url(#p635f965321)" style="fill: none; stroke: #6f6f6f; stroke-width: 1.5; stroke-linecap: round"/>
   </g>
   <g id="line2d_20">
    <path d="M 276.386512 165.939748 
L 318.07755 165.939748 
" clip-path="url(#p635f965321)" style="fill: none; stroke: #6f6f6f; stroke-width: 1.5; stroke-linecap: round"/>
   </g>
   <g id="line2d_21">
    <g clip-path="url(#p635f965321)">
     <use xlink:href="#m58de6d0f3e" x="297.232031" y="174.883364" style="fill: #6f6f6f; stroke: #6f6f6f; stroke-linejoin: miter"/>
     <use xlink:href="#m58de6d0f3e" x="297.232031" y="168.99834" style="fill: #6f6f6f; stroke: #6f6f6f; stroke-linejoin: miter"/>
     <use xlink:href="#m58de6d0f3e" x="297.232031" y="166.901546" style="fill: #6f6f6f; stroke: #6f6f6f; stroke-linejoin: miter"/>
    </g>
   </g>
   <g id="line2d_22">
    <path d="M 382.315781 166.486978 
L 382.315781 166.592002 
" clip-path="url(#p635f965321)" style="fill: none; stroke: #6f6f6f; stroke-width: 1.5; stroke-linecap: round"/>
   </g>
   <g id="line2d_23">
    <path d="M 382.315781 165.939748 
L 382.315781 165.939748 
" clip-path="url(#p635f965321)" style="fill: none; stroke: #6f6f6f; stroke-width: 1.5; stroke-linecap: round"/>
   </g>
   <g id="line2d_24">
    <path d="M 361.470262 166.592002 
L 403.1613 166.592002 
" clip-path="url(#p635f965321)" style="fill: none; stroke: #6f6f6f; stroke-width: 1.5; stroke-linecap: round"/>
   </g>
   <g id="line2d_25">
    <path d="M 361.470262 165.939748 
L 403.1613 165.939748 
" clip-path="url(#p635f965321)" style="fill: none; stroke: #6f6f6f; stroke-width: 1.5; stroke-linecap: round"/>
   </g>
   <g id="line2d_26">
    <g clip-path="url(#p635f965321)">
     <use xlink:href="#m58de6d0f3e" x="382.315781" y="173.129281" style="fill: #6f6f6f; stroke: #6f6f6f; stroke-linejoin: miter"/>
     <use xlink:href="#m58de6d0f3e" x="382.315781" y="174.9239" style="fill: #6f6f6f; stroke: #6f6f6f; stroke-linejoin: miter"/>
     <use xlink:href="#m58de6d0f3e" x="382.315781" y="168.2687" style="fill: #6f6f6f; stroke: #6f6f6f; stroke-linejoin: miter"/>
    </g>
   </g>
   <g id="line2d_27">
    <path d="M 531.212344 534.44475 
L 531.212344 534.44475 
" clip-path="url(#p635f965321)" style="fill: none; stroke: #6f6f6f; stroke-width: 1.5; stroke-linecap: round"/>
   </g>
   <g id="line2d_28">
    <path d="M 531.212344 533.931607 
L 531.212344 533.361345 
" clip-path="url(#p635f965321)" style="fill: none; stroke: #6f6f6f; stroke-width: 1.5; stroke-linecap: round"/>
   </g>
   <g id="line2d_29">
    <path d="M 510.366825 534.44475 
L 552.057862 534.44475 
" clip-path="url(#p635f965321)" style="fill: none; stroke: #6f6f6f; stroke-width: 1.5; stroke-linecap: round"/>
   </g>
   <g id="line2d_30">
    <path d="M 510.366825 533.361345 
L 552.057862 533.361345 
" clip-path="url(#p635f965321)" style="fill: none; stroke: #6f6f6f; stroke-width: 1.5; stroke-linecap: round"/>
   </g>
   <g id="line2d_31">
    <g clip-path="url(#p635f965321)">
     <use xlink:href="#m58de6d0f3e" x="531.212344" y="529.510468" style="fill: #6f6f6f; stroke: #6f6f6f; stroke-linejoin: miter"/>
     <use xlink:href="#m58de6d0f3e" x="531.212344" y="530.914472" style="fill: #6f6f6f; stroke: #6f6f6f; stroke-linejoin: miter"/>
     <use xlink:href="#m58de6d0f3e" x="531.212344" y="528.670277" style="fill: #6f6f6f; stroke: #6f6f6f; stroke-linejoin: miter"/>
     <use xlink:href="#m58de6d0f3e" x="531.212344" y="532.189499" style="fill: #6f6f6f; stroke: #6f6f6f; stroke-linejoin: miter"/>
     <use xlink:href="#m58de6d0f3e" x="531.212344" y="532.414287" style="fill: #6f6f6f; stroke: #6f6f6f; stroke-linejoin: miter"/>
     <use xlink:href="#m58de6d0f3e" x="531.212344" y="533.136557" style="fill: #6f6f6f; stroke: #6f6f6f; stroke-linejoin: miter"/>
     <use xlink:href="#m58de6d0f3e" x="531.212344" y="531.916806" style="fill: #6f6f6f; stroke: #6f6f6f; stroke-linejoin: miter"/>
     <use xlink:href="#m58de6d0f3e" x="531.212344" y="532.653816" style="fill: #6f6f6f; stroke: #6f6f6f; stroke-linejoin: miter"/>
     <use xlink:href="#m58de6d0f3e" x="531.212344" y="531.920491" style="fill: #6f6f6f; stroke: #6f6f6f; stroke-linejoin: miter"/>
    </g>
   </g>
   <g id="line2d_32">
    <path d="M 616.296094 534.44475 
L 616.296094 534.44475 
" clip-path="url(#p635f965321)" style="fill: none; stroke: #6f6f6f; stroke-width: 1.5; stroke-linecap: round"/>
   </g>
   <g id="line2d_33">
    <path d="M 616.296094 534.06519 
L 616.296094 534.043079 
" clip-path="url(#p635f965321)" style="fill: none; stroke: #6f6f6f; stroke-width: 1.5; stroke-linecap: round"/>
   </g>
   <g id="line2d_34">
    <path d="M 595.450575 534.44475 
L 637.141612 534.44475 
" clip-path="url(#p635f965321)" style="fill: none; stroke: #6f6f6f; stroke-width: 1.5; stroke-linecap: round"/>
   </g>
   <g id="line2d_35">
    <path d="M 595.450575 534.043079 
L 637.141612 534.043079 
" clip-path="url(#p635f965321)" style="fill: none; stroke: #6f6f6f; stroke-width: 1.5; stroke-linecap: round"/>
   </g>
   <g id="line2d_36">
    <g clip-path="url(#p635f965321)">
     <use xlink:href="#m58de6d0f3e" x="616.296094" y="525.501134" style="fill: #6f6f6f; stroke: #6f6f6f; stroke-linejoin: miter"/>
     <use xlink:href="#m58de6d0f3e" x="616.296094" y="531.386158" style="fill: #6f6f6f; stroke: #6f6f6f; stroke-linejoin: miter"/>
     <use xlink:href="#m58de6d0f3e" x="616.296094" y="533.482952" style="fill: #6f6f6f; stroke: #6f6f6f; stroke-linejoin: miter"/>
    </g>
   </g>
   <g id="line2d_37">
    <path d="M 701.379844 534.44475 
L 701.379844 534.44475 
" clip-path="url(#p635f965321)" style="fill: none; stroke: #6f6f6f; stroke-width: 1.5; stroke-linecap: round"/>
   </g>
   <g id="line2d_38">
    <path d="M 701.379844 534.164686 
L 701.379844 533.932528 
" clip-path="url(#p635f965321)" style="fill: none; stroke: #6f6f6f; stroke-width: 1.5; stroke-linecap: round"/>
   </g>
   <g id="line2d_39">
    <path d="M 680.534325 534.44475 
L 722.225362 534.44475 
" clip-path="url(#p635f965321)" style="fill: none; stroke: #6f6f6f; stroke-width: 1.5; stroke-linecap: round"/>
   </g>
   <g id="line2d_40">
    <path d="M 680.534325 533.932528 
L 722.225362 533.932528 
" clip-path="url(#p635f965321)" style="fill: none; stroke: #6f6f6f; stroke-width: 1.5; stroke-linecap: round"/>
   </g>
   <g id="line2d_41">
    <g clip-path="url(#p635f965321)">
     <use xlink:href="#m58de6d0f3e" x="701.379844" y="527.255217" style="fill: #6f6f6f; stroke: #6f6f6f; stroke-linejoin: miter"/>
     <use xlink:href="#m58de6d0f3e" x="701.379844" y="525.460598" style="fill: #6f6f6f; stroke: #6f6f6f; stroke-linejoin: miter"/>
     <use xlink:href="#m58de6d0f3e" x="701.379844" y="532.115798" style="fill: #6f6f6f; stroke: #6f6f6f; stroke-linejoin: miter"/>
    </g>
   </g>
   <g id="line2d_42">
    <path d="M 850.276406 534.44475 
L 850.276406 534.44475 
" clip-path="url(#p635f965321)" style="fill: none; stroke: #6f6f6f; stroke-width: 1.5; stroke-linecap: round"/>
   </g>
   <g id="line2d_43">
    <path d="M 850.276406 534.44475 
L 850.276406 534.44475 
" clip-path="url(#p635f965321)" style="fill: none; stroke: #6f6f6f; stroke-width: 1.5; stroke-linecap: round"/>
   </g>
   <g id="line2d_44">
    <path d="M 829.430888 534.44475 
L 871.121925 534.44475 
" clip-path="url(#p635f965321)" style="fill: none; stroke: #6f6f6f; stroke-width: 1.5; stroke-linecap: round"/>
   </g>
   <g id="line2d_45">
    <path d="M 829.430888 534.44475 
L 871.121925 534.44475 
" clip-path="url(#p635f965321)" style="fill: none; stroke: #6f6f6f; stroke-width: 1.5; stroke-linecap: round"/>
   </g>
   <g id="line2d_46"/>
   <g id="line2d_47">
    <path d="M 935.360156 534.44475 
L 935.360156 534.44475 
" clip-path="url(#p635f965321)" style="fill: none; stroke: #6f6f6f; stroke-width: 1.5; stroke-linecap: round"/>
   </g>
   <g id="line2d_48">
    <path d="M 935.360156 534.44475 
L 935.360156 534.44475 
" clip-path="url(#p635f965321)" style="fill: none; stroke: #6f6f6f; stroke-width: 1.5; stroke-linecap: round"/>
   </g>
   <g id="line2d_49">
    <path d="M 914.514637 534.44475 
L 956.205675 534.44475 
" clip-path="url(#p635f965321)" style="fill: none; stroke: #6f6f6f; stroke-width: 1.5; stroke-linecap: round"/>
   </g>
   <g id="line2d_50">
    <path d="M 914.514637 534.44475 
L 956.205675 534.44475 
" clip-path="url(#p635f965321)" style="fill: none; stroke: #6f6f6f; stroke-width: 1.5; stroke-linecap: round"/>
   </g>
   <g id="line2d_51"/>
   <g id="line2d_52">
    <path d="M 1020.443906 534.44475 
L 1020.443906 534.44475 
" clip-path="url(#p635f965321)" style="fill: none; stroke: #6f6f6f; stroke-width: 1.5; stroke-linecap: round"/>
   </g>
   <g id="line2d_53">
    <path d="M 1020.443906 534.44475 
L 1020.443906 534.44475 
" clip-path="url(#p635f965321)" style="fill: none; stroke: #6f6f6f; stroke-width: 1.5; stroke-linecap: round"/>
   </g>
   <g id="line2d_54">
    <path d="M 999.598387 534.44475 
L 1041.289425 534.44475 
" clip-path="url(#p635f965321)" style="fill: none; stroke: #6f6f6f; stroke-width: 1.5; stroke-linecap: round"/>
   </g>
   <g id="line2d_55">
    <path d="M 999.598387 534.44475 
L 1041.289425 534.44475 
" clip-path="url(#p635f965321)" style="fill: none; stroke: #6f6f6f; stroke-width: 1.5; stroke-linecap: round"/>
   </g>
   <g id="line2d_56">
    <g clip-path="url(#p635f965321)">
     <use xlink:href="#m58de6d0f3e" x="1020.443906" y="533.995174" style="fill: #6f6f6f; stroke: #6f6f6f; stroke-linejoin: miter"/>
    </g>
   </g>
   <g id="line2d_57">
    <path d="M 1169.340469 534.44475 
L 1169.340469 534.44475 
" clip-path="url(#p635f965321)" style="fill: none; stroke: #6f6f6f; stroke-width: 1.5; stroke-linecap: round"/>
   </g>
   <g id="line2d_58">
    <path d="M 1169.340469 534.44475 
L 1169.340469 534.44475 
" clip-path="url(#p635f965321)" style="fill: none; stroke: #6f6f6f; stroke-width: 1.5; stroke-linecap: round"/>
   </g>
   <g id="line2d_59">
    <path d="M 1148.49495 534.44475 
L 1190.185988 534.44475 
" clip-path="url(#p635f965321)" style="fill: none; stroke: #6f6f6f; stroke-width: 1.5; stroke-linecap: round"/>
   </g>
   <g id="line2d_60">
    <path d="M 1148.49495 534.44475 
L 1190.185988 534.44475 
" clip-path="url(#p635f965321)" style="fill: none; stroke: #6f6f6f; stroke-width: 1.5; stroke-linecap: round"/>
   </g>
   <g id="line2d_61"/>
   <g id="line2d_62">
    <path d="M 1254.424219 534.44475 
L 1254.424219 534.44475 
" clip-path="url(#p635f965321)" style="fill: none; stroke: #6f6f6f; stroke-width: 1.5; stroke-linecap: round"/>
   </g>
   <g id="line2d_63">
    <path d="M 1254.424219 534.44475 
L 1254.424219 534.44475 
" clip-path="url(#p635f965321)" style="fill: none; stroke: #6f6f6f; stroke-width: 1.5; stroke-linecap: round"/>
   </g>
   <g id="line2d_64">
    <path d="M 1233.5787 534.44475 
L 1275.269737 534.44475 
" clip-path="url(#p635f965321)" style="fill: none; stroke: #6f6f6f; stroke-width: 1.5; stroke-linecap: round"/>
   </g>
   <g id="line2d_65">
    <path d="M 1233.5787 534.44475 
L 1275.269737 534.44475 
" clip-path="url(#p635f965321)" style="fill: none; stroke: #6f6f6f; stroke-width: 1.5; stroke-linecap: round"/>
   </g>
   <g id="line2d_66"/>
   <g id="line2d_67">
    <path d="M 1339.507969 534.44475 
L 1339.507969 534.44475 
" clip-path="url(#p635f965321)" style="fill: none; stroke: #6f6f6f; stroke-width: 1.5; stroke-linecap: round"/>
   </g>
   <g id="line2d_68">
    <path d="M 1339.507969 534.44475 
L 1339.507969 534.44475 
" clip-path="url(#p635f965321)" style="fill: none; stroke: #6f6f6f; stroke-width: 1.5; stroke-linecap: round"/>
   </g>
   <g id="line2d_69">
    <path d="M 1318.66245 534.44475 
L 1360.353488 534.44475 
" clip-path="url(#p635f965321)" style="fill: none; stroke: #6f6f6f; stroke-width: 1.5; stroke-linecap: round"/>
   </g>
   <g id="line2d_70">
    <path d="M 1318.66245 534.44475 
L 1360.353488 534.44475 
" clip-path="url(#p635f965321)" style="fill: none; stroke: #6f6f6f; stroke-width: 1.5; stroke-linecap: round"/>
   </g>
   <g id="line2d_71">
    <g clip-path="url(#p635f965321)">
     <use xlink:href="#m58de6d0f3e" x="1339.507969" y="534.348939" style="fill: #6f6f6f; stroke: #6f6f6f; stroke-linejoin: miter"/>
    </g>
   </g>
   <g id="line2d_72">
    <path d="M 616.296094 501.139268 
L 616.296094 493.032158 
L 701.379844 493.032158 
L 701.379844 501.139268 
" clip-path="url(#p635f965321)" style="fill: none; stroke: #333333; stroke-width: 1.5; stroke-linecap: round"/>
   </g>
   <g id="line2d_73">
    <path d="M 850.276406 510.12342 
L 850.276406 502.01631 
L 935.360156 502.01631 
L 935.360156 510.12342 
" clip-path="url(#p635f965321)" style="fill: none; stroke: #333333; stroke-width: 1.5; stroke-linecap: round"/>
   </g>
   <g id="line2d_74">
    <path d="M 935.360156 472.162205 
L 935.360156 464.055095 
L 1020.443906 464.055095 
L 1020.443906 472.162205 
" clip-path="url(#p635f965321)" style="fill: none; stroke: #333333; stroke-width: 1.5; stroke-linecap: round"/>
   </g>
   <g id="line2d_75">
    <path d="M 1169.340469 510.12342 
L 1169.340469 502.01631 
L 1254.424219 502.01631 
L 1254.424219 510.12342 
" clip-path="url(#p635f965321)" style="fill: none; stroke: #333333; stroke-width: 1.5; stroke-linecap: round"/>
   </g>
   <g id="line2d_76">
    <path d="M 1254.424219 472.162205 
L 1254.424219 464.055095 
L 1339.507969 464.055095 
L 1339.507969 472.162205 
" clip-path="url(#p635f965321)" style="fill: none; stroke: #333333; stroke-width: 1.5; stroke-linecap: round"/>
   </g>
   <g id="line2d_77">
    <path d="M 212.148281 141.618418 
L 212.148281 133.511308 
L 297.232031 133.511308 
L 297.232031 141.618418 
" clip-path="url(#p635f965321)" style="fill: none; stroke: #333333; stroke-width: 1.5; stroke-linecap: round"/>
   </g>
   <g id="line2d_78">
    <path d="M 297.232031 102.813606 
L 297.232031 94.706496 
L 382.315781 94.706496 
L 382.315781 102.813606 
" clip-path="url(#p635f965321)" style="fill: none; stroke: #333333; stroke-width: 1.5; stroke-linecap: round"/>
   </g>
   <g id="line2d_79">
    <path d="M 531.212344 463.178053 
L 531.212344 455.070943 
L 616.296094 455.070943 
L 616.296094 463.178053 
" clip-path="url(#p635f965321)" style="fill: none; stroke: #333333; stroke-width: 1.5; stroke-linecap: round"/>
   </g>
   <g id="line2d_80">
    <path d="M 850.276406 434.200991 
L 850.276406 426.093881 
L 1020.443906 426.093881 
L 1020.443906 434.200991 
" clip-path="url(#p635f965321)" style="fill: none; stroke: #333333; stroke-width: 1.5; stroke-linecap: round"/>
   </g>
   <g id="line2d_81">
    <path d="M 1169.340469 434.200991 
L 1169.340469 426.093881 
L 1339.507969 426.093881 
L 1339.507969 434.200991 
" clip-path="url(#p635f965321)" style="fill: none; stroke: #333333; stroke-width: 1.5; stroke-linecap: round"/>
   </g>
   <g id="line2d_82">
    <path d="M 531.212344 423.363769 
L 531.212344 415.256659 
L 701.379844 415.256659 
L 701.379844 423.363769 
" clip-path="url(#p635f965321)" style="fill: none; stroke: #333333; stroke-width: 1.5; stroke-linecap: round"/>
   </g>
   <g id="line2d_83">
    <path d="M 212.148281 62.999322 
L 212.148281 54.892212 
L 382.315781 54.892212 
L 382.315781 62.999322 
" clip-path="url(#p635f965321)" style="fill: none; stroke: #333333; stroke-width: 1.5; stroke-linecap: round"/>
   </g>
   <g id="line2d_84">
    <path d="M 170.457244 165.939748 
L 253.839319 165.939748 
" clip-path="url(#p635f965321)" style="fill: none; stroke: #6f6f6f; stroke-width: 1.5; stroke-linecap: round"/>
   </g>
   <g id="line2d_85">
    <path d="M 255.540994 166.018977 
L 338.923069 166.018977 
" clip-path="url(#p635f965321)" style="fill: none; stroke: #6f6f6f; stroke-width: 1.5; stroke-linecap: round"/>
   </g>
   <g id="line2d_86">
    <path d="M 340.624744 165.939748 
L 424.006819 165.939748 
" clip-path="url(#p635f965321)" style="fill: none; stroke: #6f6f6f; stroke-width: 1.5; stroke-linecap: round"/>
   </g>
   <g id="line2d_87">
    <path d="M 489.521306 534.44475 
L 572.903381 534.44475 
" clip-path="url(#p635f965321)" style="fill: none; stroke: #6f6f6f; stroke-width: 1.5; stroke-linecap: round"/>
   </g>
   <g id="line2d_88">
    <path d="M 574.605056 534.365521 
L 657.987131 534.365521 
" clip-path="url(#p635f965321)" style="fill: none; stroke: #6f6f6f; stroke-width: 1.5; stroke-linecap: round"/>
   </g>
   <g id="line2d_89">
    <path d="M 659.688806 534.44475 
L 743.070881 534.44475 
" clip-path="url(#p635f965321)" style="fill: none; stroke: #6f6f6f; stroke-width: 1.5; stroke-linecap: round"/>
   </g>
   <g id="line2d_90">
    <path d="M 808.585369 534.44475 
L 891.967444 534.44475 
" clip-path="url(#p635f965321)" style="fill: none; stroke: #6f6f6f; stroke-width: 1.5; stroke-linecap: round"/>
   </g>
   <g id="line2d_91">
    <path d="M 893.669119 534.44475 
L 977.051194 534.44475 
" clip-path="url(#p635f965321)" style="fill: none; stroke: #6f6f6f; stroke-width: 1.5; stroke-linecap: round"/>
   </g>
   <g id="line2d_92">
    <path d="M 978.752869 534.44475 
L 1062.134944 534.44475 
" clip-path="url(#p635f965321)" style="fill: none; stroke: #6f6f6f; stroke-width: 1.5; stroke-linecap: round"/>
   </g>
   <g id="line2d_93">
    <path d="M 1127.649431 534.44475 
L 1211.031506 534.44475 
" clip-path="url(#p635f965321)" style="fill: none; stroke: #6f6f6f; stroke-width: 1.5; stroke-linecap: round"/>
   </g>
   <g id="line2d_94">
    <path d="M 1212.733181 534.44475 
L 1296.115256 534.44475 
" clip-path="url(#p635f965321)" style="fill: none; stroke: #6f6f6f; stroke-width: 1.5; stroke-linecap: round"/>
   </g>
   <g id="line2d_95">
    <path d="M 1297.816931 534.44475 
L 1381.199006 534.44475 
" clip-path="url(#p635f965321)" style="fill: none; stroke: #6f6f6f; stroke-width: 1.5; stroke-linecap: round"/>
   </g>
   <g id="patch_18">
    <path d="M 52.61625 552.87 
L 52.61625 27.65625 
" style="fill: none; stroke: #262626; stroke-width: 1.25; stroke-linejoin: miter; stroke-linecap: square"/>
   </g>
   <g id="patch_19">
    <path d="M 52.61625 552.87 
L 1499.04 552.87 
" style="fill: none; stroke: #262626; stroke-width: 1.25; stroke-linejoin: miter; stroke-linecap: square"/>
   </g>
   <g id="text_14">
    <!-- ns -->
    <g style="fill: #262626" transform="translate(652.501406 489.647158) scale(0.12 -0.12)">
     <use xlink:href="#ArialMT-6e"/>
     <use xlink:href="#ArialMT-73" x="55.615234"/>
    </g>
   </g>
   <g id="text_15">
    <!-- ns -->
    <g style="fill: #262626" transform="translate(886.481719 498.63131) scale(0.12 -0.12)">
     <use xlink:href="#ArialMT-6e"/>
     <use xlink:href="#ArialMT-73" x="55.615234"/>
    </g>
   </g>
   <g id="text_16">
    <!-- ns -->
    <g style="fill: #262626" transform="translate(971.565469 460.670095) scale(0.12 -0.12)">
     <use xlink:href="#ArialMT-6e"/>
     <use xlink:href="#ArialMT-73" x="55.615234"/>
    </g>
   </g>
   <g id="text_17">
    <!-- ns -->
    <g style="fill: #262626" transform="translate(1205.545781 498.63131) scale(0.12 -0.12)">
     <use xlink:href="#ArialMT-6e"/>
     <use xlink:href="#ArialMT-73" x="55.615234"/>
    </g>
   </g>
   <g id="text_18">
    <!-- ns -->
    <g style="fill: #262626" transform="translate(1290.629531 460.670095) scale(0.12 -0.12)">
     <use xlink:href="#ArialMT-6e"/>
     <use xlink:href="#ArialMT-73" x="55.615234"/>
    </g>
   </g>
   <g id="text_19">
    <!-- ns -->
    <g style="fill: #262626" transform="translate(248.353594 130.126308) scale(0.12 -0.12)">
     <use xlink:href="#ArialMT-6e"/>
     <use xlink:href="#ArialMT-73" x="55.615234"/>
    </g>
   </g>
   <g id="text_20">
    <!-- ns -->
    <g style="fill: #262626" transform="translate(333.437344 91.321496) scale(0.12 -0.12)">
     <use xlink:href="#ArialMT-6e"/>
     <use xlink:href="#ArialMT-73" x="55.615234"/>
    </g>
   </g>
   <g id="text_21">
    <!-- ns -->
    <g style="fill: #262626" transform="translate(567.417656 451.685943) scale(0.12 -0.12)">
     <use xlink:href="#ArialMT-6e"/>
     <use xlink:href="#ArialMT-73" x="55.615234"/>
    </g>
   </g>
   <g id="text_22">
    <!-- ns -->
    <g style="fill: #262626" transform="translate(929.023594 422.708881) scale(0.12 -0.12)">
     <use xlink:href="#ArialMT-6e"/>
     <use xlink:href="#ArialMT-73" x="55.615234"/>
    </g>
   </g>
   <g id="text_23">
    <!-- ns -->
    <g style="fill: #262626" transform="translate(1248.087656 422.708881) scale(0.12 -0.12)">
     <use xlink:href="#ArialMT-6e"/>
     <use xlink:href="#ArialMT-73" x="55.615234"/>
    </g>
   </g>
   <g id="text_24">
    <!-- ns -->
    <g style="fill: #262626" transform="translate(609.959531 411.871659) scale(0.12 -0.12)">
     <use xlink:href="#ArialMT-6e"/>
     <use xlink:href="#ArialMT-73" x="55.615234"/>
    </g>
   </g>
   <g id="text_25">
    <!-- ns -->
    <g style="fill: #262626" transform="translate(290.895469 51.507212) scale(0.12 -0.12)">
     <use xlink:href="#ArialMT-6e"/>
     <use xlink:href="#ArialMT-73" x="55.615234"/>
    </g>
   </g>
   <g id="text_26">
    <!-- Top 10 Kingdom relative-all abundances rank by groups. -->
    <g style="fill: #262626" transform="translate(626.085 21.65625) scale(0.12 -0.12)">
     <defs>
      <path id="ArialMT-70" d="M 422 -1272 
L 422 3319 
L 934 3319 
L 934 2888 
Q 1116 3141 1344 3267 
Q 1572 3394 1897 3394 
Q 2322 3394 2647 3175 
Q 2972 2956 3137 2557 
Q 3303 2159 3303 1684 
Q 3303 1175 3120 767 
Q 2938 359 2589 142 
Q 2241 -75 1856 -75 
Q 1575 -75 1351 44 
Q 1128 163 984 344 
L 984 -1272 
L 422 -1272 
z
M 931 1641 
Q 931 1000 1190 694 
Q 1450 388 1819 388 
Q 2194 388 2461 705 
Q 2728 1022 2728 1688 
Q 2728 2322 2467 2637 
Q 2206 2953 1844 2953 
Q 1484 2953 1207 2617 
Q 931 2281 931 1641 
z
" transform="scale(0.015625)"/>
      <path id="ArialMT-4b" d="M 469 0 
L 469 4581 
L 1075 4581 
L 1075 2309 
L 3350 4581 
L 4172 4581 
L 2250 2725 
L 4256 0 
L 3456 0 
L 1825 2319 
L 1075 1588 
L 1075 0 
L 469 0 
z
" transform="scale(0.015625)"/>
      <path id="ArialMT-67" d="M 319 -275 
L 866 -356 
Q 900 -609 1056 -725 
Q 1266 -881 1628 -881 
Q 2019 -881 2231 -725 
Q 2444 -569 2519 -288 
Q 2563 -116 2559 434 
Q 2191 0 1641 0 
Q 956 0 581 494 
Q 206 988 206 1678 
Q 206 2153 378 2554 
Q 550 2956 876 3175 
Q 1203 3394 1644 3394 
Q 2231 3394 2613 2919 
L 2613 3319 
L 3131 3319 
L 3131 450 
Q 3131 -325 2973 -648 
Q 2816 -972 2473 -1159 
Q 2131 -1347 1631 -1347 
Q 1038 -1347 672 -1080 
Q 306 -813 319 -275 
z
M 784 1719 
Q 784 1066 1043 766 
Q 1303 466 1694 466 
Q 2081 466 2343 764 
Q 2606 1063 2606 1700 
Q 2606 2309 2336 2618 
Q 2066 2928 1684 2928 
Q 1309 2928 1046 2623 
Q 784 2319 784 1719 
z
" transform="scale(0.015625)"/>
      <path id="ArialMT-2d" d="M 203 1375 
L 203 1941 
L 1931 1941 
L 1931 1375 
L 203 1375 
z
" transform="scale(0.015625)"/>
      <path id="ArialMT-62" d="M 941 0 
L 419 0 
L 419 4581 
L 981 4581 
L 981 2947 
Q 1338 3394 1891 3394 
Q 2197 3394 2470 3270 
Q 2744 3147 2920 2923 
Q 3097 2700 3197 2384 
Q 3297 2069 3297 1709 
Q 3297 856 2875 390 
Q 2453 -75 1863 -75 
Q 1275 -75 941 416 
L 941 0 
z
M 934 1684 
Q 934 1088 1097 822 
Q 1363 388 1816 388 
Q 2184 388 2453 708 
Q 2722 1028 2722 1663 
Q 2722 2313 2464 2622 
Q 2206 2931 1841 2931 
Q 1472 2931 1203 2611 
Q 934 2291 934 1684 
z
" transform="scale(0.015625)"/>
     </defs>
     <use xlink:href="#ArialMT-54"/>
     <use xlink:href="#ArialMT-6f" x="49.958984"/>
     <use xlink:href="#ArialMT-70" x="105.574219"/>
     <use xlink:href="#ArialMT-20" x="161.189453"/>
     <use xlink:href="#ArialMT-31" x="188.972656"/>
     <use xlink:href="#ArialMT-30" x="244.587891"/>
     <use xlink:href="#ArialMT-20" x="300.203125"/>
     <use xlink:href="#ArialMT-4b" x="327.986328"/>
     <use xlink:href="#ArialMT-69" x="394.685547"/>
     <use xlink:href="#ArialMT-6e" x="416.902344"/>
     <use xlink:href="#ArialMT-67" x="472.517578"/>
     <use xlink:href="#ArialMT-64" x="528.132812"/>
     <use xlink:href="#ArialMT-6f" x="583.748047"/>
     <use xlink:href="#ArialMT-6d" x="639.363281"/>
     <use xlink:href="#ArialMT-20" x="722.664062"/>
     <use xlink:href="#ArialMT-72" x="750.447266"/>
     <use xlink:href="#ArialMT-65" x="783.748047"/>
     <use xlink:href="#ArialMT-6c" x="839.363281"/>
     <use xlink:href="#ArialMT-61" x="861.580078"/>
     <use xlink:href="#ArialMT-74" x="917.195312"/>
     <use xlink:href="#ArialMT-69" x="944.978516"/>
     <use xlink:href="#ArialMT-76" x="967.195312"/>
     <use xlink:href="#ArialMT-65" x="1017.195312"/>
     <use xlink:href="#ArialMT-2d" x="1072.810547"/>
     <use xlink:href="#ArialMT-61" x="1106.111328"/>
     <use xlink:href="#ArialMT-6c" x="1161.726562"/>
     <use xlink:href="#ArialMT-6c" x="1183.943359"/>
     <use xlink:href="#ArialMT-20" x="1206.160156"/>
     <use xlink:href="#ArialMT-61" x="1233.943359"/>
     <use xlink:href="#ArialMT-62" x="1289.558594"/>
     <use xlink:href="#ArialMT-75" x="1345.173828"/>
     <use xlink:href="#ArialMT-6e" x="1400.789062"/>
     <use xlink:href="#ArialMT-64" x="1456.404297"/>
     <use xlink:href="#ArialMT-61" x="1512.019531"/>
     <use xlink:href="#ArialMT-6e" x="1567.634766"/>
     <use xlink:href="#ArialMT-63" x="1623.25"/>
     <use xlink:href="#ArialMT-65" x="1673.25"/>
     <use xlink:href="#ArialMT-73" x="1728.865234"/>
     <use xlink:href="#ArialMT-20" x="1778.865234"/>
     <use xlink:href="#ArialMT-72" x="1806.648438"/>
     <use xlink:href="#ArialMT-61" x="1839.949219"/>
     <use xlink:href="#ArialMT-6e" x="1895.564453"/>
     <use xlink:href="#ArialMT-6b" x="1951.179688"/>
     <use xlink:href="#ArialMT-20" x="2001.179688"/>
     <use xlink:href="#ArialMT-62" x="2028.962891"/>
     <use xlink:href="#ArialMT-79" x="2084.578125"/>
     <use xlink:href="#ArialMT-20" x="2134.578125"/>
     <use xlink:href="#ArialMT-67" x="2162.361328"/>
     <use xlink:href="#ArialMT-72" x="2217.976562"/>
     <use xlink:href="#ArialMT-6f" x="2251.277344"/>
     <use xlink:href="#ArialMT-75" x="2306.892578"/>
     <use xlink:href="#ArialMT-70" x="2362.507812"/>
     <use xlink:href="#ArialMT-73" x="2418.123047"/>
     <use xlink:href="#ArialMT-2e" x="2468.123047"/>
    </g>
   </g>
   <g id="legend_1">
    <g id="patch_20">
     <path d="M 1450.022969 99.756406 
L 1491.34 99.756406 
Q 1493.54 99.756406 1493.54 97.556406 
L 1493.54 35.35625 
Q 1493.54 33.15625 1491.34 33.15625 
L 1450.022969 33.15625 
Q 1447.822969 33.15625 1447.822969 35.35625 
L 1447.822969 97.556406 
Q 1447.822969 99.756406 1450.022969 99.756406 
z
" style="fill: #ffffff; opacity: 0.8; stroke: #cccccc; stroke-linejoin: miter"/>
    </g>
    <g id="text_27">
     <!-- Grupo -->
     <g style="fill: #262626" transform="translate(1454.007109 46.291875) scale(0.12 -0.12)">
      <defs>
       <path id="ArialMT-47" d="M 2638 1797 
L 2638 2334 
L 4578 2338 
L 4578 638 
Q 4131 281 3656 101 
Q 3181 -78 2681 -78 
Q 2006 -78 1454 211 
Q 903 500 622 1047 
Q 341 1594 341 2269 
Q 341 2938 620 3517 
Q 900 4097 1425 4378 
Q 1950 4659 2634 4659 
Q 3131 4659 3532 4498 
Q 3934 4338 4162 4050 
Q 4391 3763 4509 3300 
L 3963 3150 
Q 3859 3500 3706 3700 
Q 3553 3900 3268 4020 
Q 2984 4141 2638 4141 
Q 2222 4141 1919 4014 
Q 1616 3888 1430 3681 
Q 1244 3475 1141 3228 
Q 966 2803 966 2306 
Q 966 1694 1177 1281 
Q 1388 869 1791 669 
Q 2194 469 2647 469 
Q 3041 469 3416 620 
Q 3791 772 3984 944 
L 3984 1797 
L 2638 1797 
z
" transform="scale(0.015625)"/>
      </defs>
      <use xlink:href="#ArialMT-47"/>
      <use xlink:href="#ArialMT-72" x="77.783203"/>
      <use xlink:href="#ArialMT-75" x="111.083984"/>
      <use xlink:href="#ArialMT-70" x="166.699219"/>
      <use xlink:href="#ArialMT-6f" x="222.314453"/>
     </g>
    </g>
    <g id="patch_21">
     <path d="M 1452.222969 62.050469 
L 1474.222969 62.050469 
L 1474.222969 54.350469 
L 1452.222969 54.350469 
z
" style="fill: #abc9ea; stroke: #6f6f6f; stroke-width: 0.75; stroke-linejoin: miter"/>
    </g>
    <g id="text_28">
     <!-- 2 -->
     <g style="fill: #262626" transform="translate(1483.022969 62.050469) scale(0.11 -0.11)">
      <use xlink:href="#ArialMT-32"/>
     </g>
    </g>
    <g id="patch_22">
     <path d="M 1452.222969 77.610312 
L 1474.222969 77.610312 
L 1474.222969 69.910312 
L 1452.222969 69.910312 
z
" style="fill: #efb792; stroke: #6f6f6f; stroke-width: 0.75; stroke-linejoin: miter"/>
    </g>
    <g id="text_29">
     <!-- 0 -->
     <g style="fill: #262626" transform="translate(1483.022969 77.610312) scale(0.11 -0.11)">
      <use xlink:href="#ArialMT-30"/>
     </g>
    </g>
    <g id="patch_23">
     <path d="M 1452.222969 93.170156 
L 1474.222969 93.170156 
L 1474.222969 85.470156 
L 1452.222969 85.470156 
z
" style="fill: #98daa7; stroke: #6f6f6f; stroke-width: 0.75; stroke-linejoin: miter"/>
    </g>
    <g id="text_30">
     <!-- 1 -->
     <g style="fill: #262626" transform="translate(1483.022969 93.170156) scale(0.11 -0.11)">
      <use xlink:href="#ArialMT-31"/>
     </g>
    </g>
   </g>
  </g>
 </g>
 <defs>
  <clipPath id="p635f965321">
   <rect x="52.61625" y="27.65625" width="1446.42375" height="525.21375"/>
  </clipPath>
 </defs>
</svg>
